<?xml version="1.0" standalone="no"?>
<!DOCTYPE svg PUBLIC "-//W3C//DTD SVG 1.1//EN" "http://www.w3.org/Graphics/SVG/1.1/DTD/svg11.dtd" >
<svg xmlns="http://www.w3.org/2000/svg">
<metadata></metadata>
<defs>
<font id="komikandyregular" horiz-adv-x="1132" >
<font-face units-per-em="2048" ascent="1638" descent="-410" />
<missing-glyph horiz-adv-x="983" />
<glyph horiz-adv-x="2048" />
<glyph horiz-adv-x="2048" />
<glyph unicode="&#xd;" horiz-adv-x="1024" />
<glyph unicode=" "  horiz-adv-x="983" />
<glyph unicode="&#x09;" horiz-adv-x="983" />
<glyph unicode="&#xa0;" horiz-adv-x="983" />
<glyph unicode="!" horiz-adv-x="886" d="M43 184q14 -33 32.5 -67.5t40 -65.5t49.5 -54.5t62 -33.5q27 23 54.5 35t56.5 29v-2q37 12 75 36.5t68.5 58.5t49 78t18.5 95v4q0 4 1 9t1 9t-1 9.5t-1 11.5l-2 -4q-2 55 -22.5 101t-53.5 78t-74 50.5t-84 18.5q-18 0 -40.5 -4.5t-46 -14.5t-42 -27.5t-26.5 -44.5v-14 q-4 -39 -21.5 -69.5t-39 -59.5t-38 -58.5t-16.5 -68.5v-35zM207 813q8 -47 34.5 -88t73.5 -41q20 0 36 7t34 16q96 139 159.5 295.5t110.5 324.5t90 343t101 351q-2 8 -2 17q0 8 -2 16q-18 29 -46 50.5t-63 21.5q-43 0 -86 -29t-84 -69.5t-77.5 -87t-65.5 -80.5h2 q-47 -59 -96.5 -109.5t-83.5 -116.5l2 -10q8 -45 11 -92t3 -96q0 -156 -17.5 -312.5t-33.5 -310.5z" />
<glyph unicode="&#x22;" horiz-adv-x="829" d="M41 1415q0 -53 17.5 -98t17.5 -96q0 -66 -11.5 -132.5t-15.5 -132.5v-12q0 -47 26.5 -77.5t63.5 -30.5q18 0 43 11t43 30v-3q43 45 65.5 102.5t35 118t17.5 122t9 116.5q4 53 9.5 103.5t5.5 103.5q0 33 -7 68v-2q-8 37 -31.5 55t-56.5 18q-37 0 -73.5 -25.5t-68.5 -63.5 t-55.5 -85t-33.5 -90zM387 1024q0 -51 29.5 -88t72.5 -37q31 0 54.5 14.5t46.5 40.5q61 72 100 152t60.5 165t29.5 174t8 181v19q0 33 -2 75.5t-12 80.5t-31.5 63.5t-58.5 25.5q-25 0 -52.5 -14t-43.5 -35l-2 2q-37 -29 -68 -64.5t-54.5 -76.5t-36.5 -84t-13 -84 q0 -57 1 -112.5t1 -110.5q0 -63 -6.5 -125t-16.5 -123h2q-2 -8 -4 -15.5t-4 -15.5v-8z" />
<glyph unicode="#" horiz-adv-x="1585" d="M43 535q0 -37 10 -72t28.5 -62.5t43.5 -44t53 -18.5l10 2q10 0 18.5 2t18.5 2q0 -35 -10 -67.5t-12 -67.5v-6q0 -45 21.5 -80t49.5 -57h-2q12 -10 24.5 -19.5t27.5 -9.5h8q31 0 59.5 17.5t50 47t34.5 66.5t16 76q0 10 -1.5 17t-1.5 18v24q0 16 3 25l8 16q10 6 19 13.5 t32 7.5l40.5 -4.5t35.5 -24.5l-2 -55l2 -37q-6 -16 -6 -37v-12q0 -78 47 -138.5t118 -64.5q53 4 98.5 44t73.5 91q4 76 9.5 149.5t9.5 149.5q84 10 169 25.5t179 25.5h12q41 12 76 38t61.5 60.5t45 74.5t24.5 81q0 25 -4 49.5t-14 44.5v4q-35 59 -98.5 81t-131.5 22 q-66 0 -123 -15.5t-118 -31.5q-14 16 -15.5 38.5t-5.5 45.5l29 61q59 14 120.5 28.5t121.5 47.5q63 41 102 110.5t39 137.5l2 28q0 84 -45 145.5t-123 61.5q-47 0 -96 -25.5t-94 -43.5v6q4 29 9 55.5t15 54.5v-2q8 23 14.5 43.5t8.5 42.5q-2 59 -43 89t-90 30 q-68 0 -113 -46t-74 -106.5t-44 -121t-21 -86.5h2q-4 -16 -7.5 -35t-13.5 -35l-16 -18l-78 -23q-10 4 -11 6t-5 12l2 23q2 6 2 18q0 20 -11 37l5 -2l4 35l2 31q0 59 -31 99t-78 40q-31 0 -57.5 -16.5t-49 -42t-41 -57t-30.5 -62.5q-8 -59 -16.5 -117.5t-14.5 -118.5 q-35 -16 -67.5 -31.5t-65.5 -27.5l-14 -2q-45 -27 -75 -85t-38 -118q0 -80 36 -105.5t83 -25.5q23 0 44 2t44 6h2q10 0 13 -9t3 -21q-2 -23 -8 -42.5t-20 -35.5q-31 -8 -67 -24.5t-66.5 -42t-50 -63.5t-19.5 -87v-6zM545 864v6q2 27 13 43.5t28.5 23.5t37 9t40.5 2h22 q-4 -33 -6 -65.5t-8 -65.5q-12 0 -23.5 -4t-21.5 -6q-4 0 -8.5 -1t-8.5 -1q-25 0 -45 14.5t-20 44.5z" />
<glyph unicode="$" horiz-adv-x="1026" d="M41 528q10 -123 83 -209t169 -120q4 -16 4 -31q0 -12 2 -29q-4 -37 -13.5 -72.5t-9.5 -72.5q0 -59 34 -108.5t87 -59.5q25 0 60 23.5t67.5 61.5t56 86t23.5 95q0 72 -12 144q66 27 130 71.5t118.5 105t92.5 134.5t50 160v36q0 59 -11 112.5t-22 109.5v-2q-14 49 -24 106 q-59 76 -140 100.5t-168 24.5q-51 0 -99 -5t-95 -11q-23 6 -39 22.5t-16 44.5q2 4 2 10t2 13l4 20q37 35 73.5 46.5t77.5 11.5q53 0 97.5 -23t70.5 -72q27 -33 72 -32q27 0 57.5 13t60 35.5t52.5 51t33 59.5q0 18 5 37t5 37v6q0 86 -35 151.5t-88 106.5q-41 8 -92 8 q-23 0 -46.5 -1t-45.5 -1v2q4 16 6 29.5t4 28.5q-4 29 -6 55.5t-2 54.5q0 10 1 17.5t1 17.5q-4 51 -30.5 87t-69.5 36q-27 0 -65 -22.5t-74 -57.5t-60.5 -78t-24.5 -86q0 -25 1 -49t1 -51v-25q-18 -59 -52 -100t-71.5 -77t-72.5 -73.5t-56 -89.5q-23 -47 -33 -96t-12 -96 v-25q0 -88 13.5 -140t36 -82t52 -42t62.5 -21.5t67 -20.5t62 -40q25 -33 70 -33q31 0 58.5 11.5t56.5 11.5q27 0 45 -23.5t18 -54.5q0 -55 -36 -98t-85 -45h-10q-47 0 -86 18.5t-74 45t-67.5 56t-65.5 52.5h-20q-49 -23 -82 -76t-33 -115z" />
<glyph unicode="%" horiz-adv-x="1619" d="M41 1108q0 -90 45 -149.5t113 -59.5q43 0 93 23.5t96 66.5t82 101.5t52 126.5q10 51 20.5 103t10.5 101q0 84 -43 137.5t-104 53.5q-43 0 -84 -27q-61 -23 -113.5 -73t-89.5 -115.5t-57.5 -141t-20.5 -147.5zM92 147q0 -31 8.5 -65.5t24.5 -66t38.5 -54t51.5 -27.5 q57 8 99 49.5t76 97.5t62.5 121.5t59.5 121.5q49 92 87 194.5t97 194.5q72 111 129.5 235.5t124.5 247.5q37 68 83 134.5t88 136t75 143t41 151.5v15q0 23 -2 42t-6 42q-12 29 -25.5 58.5t-32 53t-43 38.5t-55.5 15q-25 0 -47 -8q-76 -49 -126 -120.5t-86 -151.5t-64.5 -163 t-59.5 -152q-129 -287 -243.5 -549.5t-249.5 -485.5l2 2q-12 -33 -29.5 -61.5t-33 -58t-28 -61.5t-16.5 -69zM217 1145q0 29 8 64.5t24.5 66.5t40 51.5t56.5 20.5q23 0 38 -13.5t19 -42.5v-2q2 -10 3 -18v-19v-18q-6 -59 -43 -106.5t-78 -61.5l-13 -2q-27 0 -41 23.5 t-14 56.5zM793 365q0 -59 20.5 -117t56 -104t86 -73.5t109.5 -27.5h18t19 2h8q23 0 46.5 5t45.5 13l-2 -4q104 33 195.5 110.5t132.5 188.5q16 57 33.5 121t17.5 121t-22.5 108.5t-60.5 90.5t-88 60.5t-105 21.5t-119 -16.5t-123.5 -47.5t-112.5 -74t-86 -96h2 q-35 -66 -53 -141.5t-18 -140.5zM967 442v15q2 33 13 67.5t32.5 63t52.5 46t68 17.5q41 0 72.5 -21.5t35.5 -64.5q4 -20 4 -30q0 -90 -52 -148.5t-130 -69.5l-8 -2q-43 10 -65.5 47t-22.5 80z" />
<glyph unicode="&#x26;" horiz-adv-x="1327" d="M43 422q0 -186 80 -334q37 -16 75 -38.5t60 -69.5q16 -16 25 -19h4q43 4 89 6t92 10.5t92 23.5t91 46q33 -53 81 -102t116 -54l22 -2q33 0 63 15.5t52.5 42t35.5 59.5t15 70v18q0 76 -28.5 145.5t-67.5 129.5l2 -2l-18 28q29 82 50 166t40 170q53 10 98 23.5t92 56.5 q25 25 40.5 55.5t24.5 64.5t13 67.5t4 62.5q0 27 -5 52.5t-16.5 46t-29.5 33.5t-47 13h-2q-41 -6 -74 -6q-23 0 -43 1t-41 1q-86 0 -154.5 -31.5t-132.5 -95.5h2q-35 -41 -43 -100.5t-8 -106.5v-65q0 -4 -1 -6t-1 -6q-27 57 -59.5 109t-66.5 103.5t-66.5 103.5t-59.5 107v-2 l-4 48q2 61 44 109t95 48q37 0 67 -17.5t58.5 -39t60.5 -38.5t70 -17q43 0 83 29.5t70 74.5t48.5 95t22.5 91v7q0 63 -29 113t-72 84t-95 52.5t-101 18.5q-109 0 -214.5 -59.5t-191.5 -154.5t-142 -218t-67 -248v-43q0 -31 2 -60.5t13 -56.5l-2 2q12 -76 49 -127 q-72 -100 -114 -217t-46 -239v-27zM293 471v8q0 41 18.5 76t40.5 63h2q20 -8 37 -28.5t30 -47t23.5 -52t18.5 -44.5l-2 3q4 -16 13 -29.5t11 -30.5v-2q-14 -25 -36.5 -43t-45.5 -29q-41 23 -75.5 60t-34.5 96z" />
<glyph unicode="'" horiz-adv-x="389" d="M43 1014q4 -59 38 -96t85 -37h14q59 18 92 86.5t49.5 156.5t20.5 175t4 143v114q0 39 -2 81t-11 77t-26.5 56.5t-46.5 21.5q-8 0 -24 -4q-45 -14 -81 -55t-60.5 -93.5t-38 -106.5t-13.5 -93q0 -78 3 -149.5t9 -147.5q0 -33 -6 -66t-6 -63z" />
<glyph unicode="(" horiz-adv-x="792" d="M41 848q4 -141 30.5 -277.5t78.5 -263.5q41 -43 72.5 -106.5t68.5 -122t85 -99t120 -40.5h26q35 4 63.5 23.5t50 48t35 63.5t17.5 71q0 41 -13 80t-48 58q-141 104 -224.5 256.5t-83.5 341.5q0 76 20.5 144.5t51.5 134t67 131t68 139.5l-2 -3q25 47 64 91.5t74.5 89.5 t61.5 93t28 105q-2 23 -6.5 41.5t-8.5 38.5q-14 47 -40.5 81t-73.5 34h-17q-6 0 -16 -4q-100 -61 -167 -153.5t-115 -195t-87 -208t-84 -195.5v2q-35 -82 -50 -165t-38 -160q-2 -18 -5 -37t-3 -37z" />
<glyph unicode=")" horiz-adv-x="702" d="M41 147q0 -37 9 -74.5t26.5 -71.5t43 -56.5t58.5 -28.5h10q33 0 60.5 18.5t50.5 46t41 61.5t37 64q68 129 136.5 265.5t107.5 294.5l-3 -4q35 152 41 296v64v45q0 24 -4 47q-4 78 -14 153.5t-41 137.5q-43 68 -67.5 149.5t-57.5 153.5q-16 25 -33.5 50.5t-38 47t-43 34.5 t-51.5 13q-27 0 -49 -10l-29 -14h2q-55 -41 -93 -111.5t-38 -138.5v-25q0 -66 25 -108.5t57.5 -80.5t64.5 -78t48 -95t28.5 -114.5t12.5 -123.5q0 -172 -55.5 -338.5t-145.5 -298.5q-31 -39 -60.5 -77.5t-35.5 -92.5z" />
<glyph unicode="*" horiz-adv-x="1490" d="M41 852q0 -39 12.5 -60.5t32.5 -30.5t47 -11t55 -2h80l15 -7q-8 -35 -21.5 -67.5t-29 -63t-27.5 -62.5t-19 -67l2 -12q6 -29 15.5 -59.5t24 -56t35 -42t48.5 -16.5q47 6 83 48t63 89l2 -2q18 33 33.5 69t37.5 66l-2 -2q14 25 28.5 37t45.5 12q39 0 63.5 -23.5t42 -57 t33 -74.5t35 -75t48 -57.5t73.5 -23.5h6q43 6 81 31.5t64.5 64.5t42 85t15.5 91q0 29 -5 53.5t-16 49.5l2 -2q-27 53 -54 103t-38 110l2 -2q20 33 49 53t63 34.5t68.5 25t67.5 20.5l53 6q43 8 72 37t46.5 65.5t24.5 77.5t7 74q0 39 -10 72.5t-35 60.5q-43 31 -100 31 q-33 0 -66 -9.5t-64.5 -21.5t-61.5 -21.5t-56 -9.5h-13q8 29 24.5 58.5t33.5 58.5v-4q37 72 71.5 144.5t38.5 146.5v6q0 53 -22.5 100t-71.5 47q-16 0 -35 -6q-70 -49 -114.5 -118.5t-84.5 -142.5t-82 -139.5t-106 -109.5q-16 -4 -20 -4q-16 0 -28.5 10.5t-22 25.5 t-15.5 33.5t-12 33.5v-2q-23 59 -63.5 108t-100.5 49q-37 0 -70.5 -19.5t-60.5 -52t-42 -75.5t-15 -92q0 -55 25.5 -95.5t58.5 -64.5h-2q18 -20 38.5 -37.5t30.5 -50.5l-18 -12q-47 -23 -104.5 -46.5t-109.5 -58.5t-87 -87t-35 -132z" />
<glyph unicode="+" horiz-adv-x="1122" d="M43 780q0 -41 15.5 -70.5t40 -50t55 -31t59.5 -10.5q27 0 55.5 7.5t57.5 17.5l4 -27q4 -18 5 -36.5t1 -38.5q-2 -41 -12.5 -82t-14.5 -82v-12q0 -68 47 -112t107 -44q59 4 93 41t51.5 89t22.5 110.5t7 105.5q2 33 14.5 63.5t36.5 53.5v-2q43 43 98.5 69.5t112.5 38.5 q31 4 62.5 19.5t57 39t43 55.5t17.5 66v17q0 6 1 12t1 12q0 82 -46 142.5t-122 60.5h-14q-6 0 -14 -2l-27 -10q-37 -16 -70.5 -42t-70.5 -40h-2q-25 0 -32 25.5t-7 50.5q4 55 15 112.5t11 112.5q0 29 -5 57.5t-16 51t-29.5 36t-43.5 13.5q-31 0 -68.5 -24.5t-71.5 -61.5 t-56.5 -83t-22.5 -89v-29q0 -31 2 -60.5t2 -60.5v-14q-2 -39 -18.5 -80t-61.5 -47q-39 -10 -75.5 -13.5t-73.5 -7.5l-8 -4q-47 -23 -77 -82t-36 -116v-15z" />
<glyph unicode="," horiz-adv-x="491" d="M41 27q2 -66 39 -121.5t96 -61.5q70 10 119 58.5t80 117t48 147.5t28 152q0 4 -1 9.5t-1 11.5q0 8 2 12q-2 59 -8.5 128t-25 128.5t-54 98t-95.5 38.5h-14q-35 -6 -63.5 -24.5t-55.5 -44.5h2q-29 -33 -52.5 -72t-23.5 -84v-14q0 -55 21.5 -103.5t32.5 -101.5v-8 q-4 -35 -15.5 -66.5t-24 -64.5t-22.5 -64.5t-12 -66.5v-4z" />
<glyph unicode="-" horiz-adv-x="808" d="M41 700q0 -37 17.5 -62.5t44 -41.5t57 -23.5t55.5 -7.5q43 0 91 16.5t79 16.5q33 0 65.5 -4t67.5 -4q98 0 165 70t79 174q2 10 3 20t1 20q0 66 -41 112t-100 46q-14 0 -23 -2l-27 -12l3 4q-102 -37 -194.5 -61.5t-197.5 -42.5l-4 -3q-25 -12 -50.5 -34.5t-45.5 -52 t-32.5 -62.5t-12.5 -66z" />
<glyph unicode="." horiz-adv-x="546" d="M43 213q0 -43 12.5 -86t36 -77t55 -55.5t72.5 -21.5h12q45 4 90.5 27t83 59.5t64.5 86t35 104.5v18q0 10 1 21.5t1 23.5q0 51 -8.5 103.5t-26.5 94.5t-50 68.5t-79 26.5q-66 0 -119 -34.5t-91 -89t-61.5 -121t-27.5 -130.5v-18z" />
<glyph unicode="/" horiz-adv-x="1214" d="M41 219q0 -31 9 -68.5t26.5 -70.5t41 -56.5t54.5 -27.5q59 8 93 36.5t58.5 70.5t46 94.5t56.5 109.5q41 80 70.5 146.5t54 126t48.5 110.5t52 101q72 117 127.5 240.5t116.5 254.5q33 70 78 137.5t88 136t75.5 141.5t37.5 152q-4 23 -7.5 46.5t-13.5 42.5h2 q-12 27 -26.5 56.5t-34 55t-45 41.5t-56.5 16q-51 0 -90 -31.5t-68.5 -75.5t-52 -93t-41.5 -84v2q-113 -305 -225.5 -581.5t-239.5 -524.5q-61 -127 -105 -208t-71.5 -135t-42 -89t-16.5 -72z" />
<glyph unicode="0" horiz-adv-x="1427" d="M41 700q0 -123 21.5 -241.5t66.5 -222.5q27 -63 70 -111.5t97 -80.5t115.5 -48t125.5 -16h18q70 0 137 6q100 43 194.5 114.5t174.5 166.5t141 210t96 244q41 129 63.5 270.5t22.5 270.5q0 119 -36.5 235.5t-100 206.5t-150.5 146.5t-188 56.5q-111 0 -227.5 -53.5 t-221 -142.5t-189.5 -203.5t-130 -239.5q-51 -139 -75.5 -288t-24.5 -280zM309 717v31q8 137 43 276t101 274q53 59 117.5 93t129.5 34q80 0 141.5 -52t65.5 -148q6 -66 6 -133q0 -66 -6 -138.5t-21.5 -144.5t-43 -140.5t-68.5 -127.5l2 4q-49 -68 -117.5 -99.5 t-134.5 -39.5h-8q-53 0 -91 27.5t-64.5 71.5t-39 100.5t-12.5 111.5z" />
<glyph unicode="1" horiz-adv-x="641" d="M41 1282q0 -45 20.5 -80t55.5 -35q33 0 71.5 27t71.5 68q-4 -111 -10 -220.5t-12 -220.5v-4q0 -27 13 -44t17 -42q0 -29 -9 -53.5t-17 -50.5v2q-35 -76 -41 -154v-24q16 -18 24 -45t8 -56q0 -31 -8 -60.5l-16 -59t-15.5 -59.5t-7.5 -60v-5q0 -31 10.5 -62.5t28 -57 t42 -42t55.5 -16.5q63 2 109 55.5t56 122.5q27 195 40.5 390.5t23.5 392t20.5 395t28.5 399.5v17q-4 74 -41 126t-100 52h-19q-8 0 -18 -4q-66 -47 -133.5 -115.5t-122.5 -147.5t-90 -164t-35 -165z" />
<glyph unicode="2" horiz-adv-x="1271" d="M41 215q6 -12 12 -26.5t15 -28.5l8 -10q4 -6 10 -12.5t10 -14.5l-4 -19q14 -33 37 -49t49.5 -23t54 -10.5t54.5 -9.5h14q59 0 119.5 7.5t124.5 9.5q45 -2 92 -11.5t90 -31.5q55 18 126 28.5t137.5 33t118.5 68.5t71 132l-4 -2q4 8 6 13t4 13l8 43v9q0 51 -22.5 83.5 t-57.5 51t-79 26t-87 7.5q-59 0 -112.5 -11.5t-103.5 -26t-98 -28.5t-97 -18l-19 -2q-4 0 -9 1t-9 1l-31 6q133 170 259 365.5t273 406.5v-2q86 115 151 247t77 269v10q0 76 -41 133v-2q-37 51 -81 95t-112 44h-14q-8 -2 -16 -2h-13q-27 0 -50 4.5t-50 4.5q-43 0 -84 -22.5 t-79 -53.5t-74.5 -63.5t-71.5 -53.5q-27 -10 -51.5 -13t-49.5 -18q-51 -27 -95 -66.5t-83 -87.5t-73.5 -101.5t-65.5 -104.5q-10 -20 -18.5 -43t-8.5 -45v-19q0 -59 26 -108t73 -49h10q41 25 76.5 63.5t69.5 81.5t71 83t80 69h-2q41 23 89 40t95 17q31 0 56.5 -12.5 t39.5 -44.5q-18 -51 -51 -91t-55 -88v3q-55 -72 -100.5 -147t-90.5 -146l2 4q-90 -141 -173 -274.5t-171 -254.5q-35 -49 -62.5 -106t-39.5 -121z" />
<glyph unicode="3" horiz-adv-x="1275" d="M41 209q0 -14 2 -39t8 -52.5t15.5 -52t25.5 -38.5q78 -47 163 -68.5t177 -21.5q70 0 141.5 18t144.5 48t145.5 69t146.5 80q96 100 146 227t50 268q0 145 -49 271t-143 212q37 51 74.5 106.5t68.5 114t51.5 119t24.5 121.5v15q0 23 -3.5 41t-19.5 34q-43 31 -75.5 74 t-65.5 81t-72 65.5t-92 27.5q-31 0 -57 -8q-88 -23 -173 -40t-165 -58q-63 -31 -127 -79t-118 -107.5t-94 -132t-54 -152.5v-6q0 -51 21.5 -91.5t62.5 -40.5q27 0 55.5 24t57 55.5t57 64.5t53.5 51q53 35 103.5 55.5t109.5 20.5q35 0 70.5 -5t70.5 -14q8 -12 9 -29.5 t4 -33.5q-8 -74 -51.5 -139.5t-98.5 -106.5q-18 -2 -35.5 -1t-36.5 -7q-43 -12 -87 -38t-80.5 -60.5t-63.5 -80.5t-33 -100v-12q0 -43 18.5 -76.5t47.5 -56.5q55 6 116 6q82 0 164 -18.5t152 -75.5v-21q-6 -53 -30.5 -99t-59.5 -82t-76 -63.5t-80 -43.5l2 2l-18 -4 q-10 -4 -21.5 -6.5t-21.5 -2.5h-17q-63 0 -116.5 28t-100.5 63l2 -2q-16 10 -32.5 12t-32.5 2q-33 0 -62.5 -18.5t-51 -47t-34 -66.5t-12.5 -79z" />
<glyph unicode="4" horiz-adv-x="1411" d="M43 741q0 -86 52 -132t116 -46q16 0 25 2l16 2q16 4 21.5 6t9.5 5q96 47 206.5 70.5t219.5 23.5q35 0 42 -17.5t7 -42.5v-88q-4 -74 -21.5 -148.5t-17.5 -146.5q0 -39 9 -78.5t27.5 -73.5t48.5 -55.5t70 -21.5h5q29 6 61.5 15.5t62 22.5t55 35.5t40.5 57.5 q20 158 33.5 315.5t23.5 319.5q47 6 86 33.5t66.5 66.5t43 85t15.5 91v21q2 10 2 31q0 74 -44 127t-116 53h-12q8 150 19.5 298t27.5 302q-8 41 -35.5 68.5t-68.5 27.5q-35 0 -67 -17.5t-64 -27.5l-64 -24l-6 -9q-66 -78 -91.5 -165t-25.5 -168q0 -47 4 -91.5t4 -91.5 q0 -10 -1 -22.5t-1 -24.5v-8q0 -41 -14 -85t-38.5 -82t-57.5 -63.5t-72 -29.5q-35 -10 -70.5 -13.5t-71.5 -7.5t-69 -13t-63 -30v2q25 80 61.5 156t76.5 152.5t77 156.5t61 168l-2 -2q2 4 2 10t2 11v8q0 55 -30.5 77.5t-71.5 22.5t-76 -19.5t-65.5 -52t-54 -72.5t-38.5 -79 q-70 -174 -129 -339t-118 -325q-8 -29 -14.5 -56.5t-8.5 -55.5v-19z" />
<glyph unicode="5" horiz-adv-x="1316" d="M41 360q12 -84 55 -152.5t102.5 -116.5t133.5 -73.5t147 -25.5h4q76 0 162 24.5t170 71.5t163 112.5t138.5 149.5t95 184.5t35.5 213.5q0 92 -26.5 177t-55.5 165q-57 96 -146 130.5t-192 34.5q-121 0 -220 -26.5t-204 -67.5q-2 10 -3 20.5t-1 20.5q0 82 35 162 q102 57 219 105.5t234 48.5q31 0 65 -7h19q37 0 88 18.5t97 52.5t80 83t40 109q-2 8 -2 16t-2 18l2 -4q-10 111 -78 159t-160 48q-61 0 -127.5 -19.5t-134 -50t-132 -69.5t-120.5 -80l2 2q-39 -23 -68.5 -36t-62.5 -21h2q-72 -25 -108.5 -62t-71.5 -106h2 q-59 -145 -82.5 -298t-23.5 -288q0 -39 4 -77t16 -68.5t33.5 -49t54.5 -18.5q41 0 92 18.5t99 28.5q49 6 102 8t104 2q31 0 67 -6t66.5 -21.5t51 -45t20.5 -74.5q-10 -61 -40.5 -112.5t-74.5 -87.5t-94.5 -56.5t-95.5 -20.5q-55 0 -99 28t-83 61.5t-77 62.5t-77 29h-8 q-27 -4 -50.5 -21.5t-42 -43t-28.5 -57.5t-10 -65v-37z" />
<glyph unicode="6" horiz-adv-x="1304" d="M43 768q0 -176 43 -336v2q23 -84 65 -161.5t101 -137t133 -95.5t160 -36h24q109 0 208.5 53.5t185.5 140.5t155.5 198.5t116.5 228.5q10 41 19.5 78.5t9.5 78.5q0 104 -34 195.5t-92.5 159t-136 106.5t-165.5 39q-55 0 -122 -18.5t-134.5 -47t-131 -65.5t-112.5 -76 q8 70 45 145.5t85 138t102.5 102.5t99.5 40q37 0 66.5 -16.5t59 -37t61.5 -36.5t71 -16q45 0 95 26.5t94 68.5t78 95t46 107q-2 41 -18.5 69.5t-38 54t-41 51t-25.5 62.5q-12 20 -33 21q-23 0 -47 -10.5t-47 -10.5q-25 0 -47 19.5t-55 19.5q-47 0 -97.5 -19.5t-97.5 -35.5 q-164 -66 -285.5 -193t-202.5 -285.5t-121 -332.5t-40 -334zM338 666q37 20 76 46.5t78.5 51t82.5 42t91 17.5q70 0 120 -40t50 -117v-11q-2 -12 -3.5 -24.5t-5.5 -24.5l2 2q-18 -45 -51 -76.5t-71.5 -51t-78.5 -29t-73 -9.5q-29 0 -64.5 18.5t-68.5 50.5t-57.5 72t-26.5 83 z" />
<glyph unicode="7" horiz-adv-x="1277" d="M43 1378q0 -51 24.5 -83.5t63.5 -32.5q25 0 54.5 13t61.5 31.5t63.5 37t62.5 30.5q31 6 61.5 8t65.5 15q49 14 100 38.5t105 24.5q14 0 20 -2q-68 -172 -144.5 -330.5t-156.5 -306t-159 -285t-150 -268.5v2q-18 -35 -23 -80q0 -35 10.5 -67.5t27.5 -60t41 -47t50 -27.5 h12q59 0 101.5 36.5t74 92t58.5 120t55 119.5q74 145 162 295t178 308.5t178 327.5t164 353v-2q14 35 22.5 69t8.5 67v16q0 39 -7 81t-22.5 74.5t-42 54t-65.5 21.5h-15l2 2q-184 -51 -349 -112.5t-318 -132.5q-57 -27 -123 -57.5t-122 -74.5t-93 -104.5t-37 -146.5v-17z " />
<glyph unicode="8" horiz-adv-x="1406" d="M43 434q0 -119 40 -210t107.5 -153.5t158.5 -96t194 -35.5h18q135 0 269.5 60t263.5 157v-2q121 94 187.5 230t66.5 296q0 129 -36 242.5t-95 214.5q59 88 99 188t48 199v12q0 92 -43 160q-33 41 -64.5 86t-67.5 82t-78 61.5t-97 24.5q-16 0 -34.5 -2t-37.5 -9 q-94 -27 -186 -46t-181 -58q-98 -43 -183 -123t-148.5 -181t-99 -215t-35.5 -224q0 -76 24.5 -138.5t71.5 -99.5q-72 -78 -115 -183.5t-47 -213.5v-23zM309 494q0 4 1 9t1 11l2 16q2 37 16.5 66t36 52.5t48 41t53.5 31.5q57 2 121.5 16.5t130.5 14.5q51 0 98 -17.5t82 -68.5 v-2q6 -10 7 -21.5t1 -26.5q-23 -84 -81 -136t-127.5 -81.5t-135 -40t-100.5 -10.5q-57 0 -105.5 37t-48.5 109zM381 1202v17q0 82 44 136t103.5 87t121 46t95.5 13q83 0 138 -43q12 -8 17 -20.5t9 -28.5q-16 -78 -70.5 -139.5t-111.5 -102.5q-47 0 -88 -14t-82 -37v2 q-20 -10 -45 -21.5t-47 -11.5q-39 0 -61.5 35t-22.5 82z" />
<glyph unicode="9" horiz-adv-x="1318" d="M41 1047q0 -92 29.5 -173t82 -140.5t122 -93.5t149.5 -34q70 0 152.5 25.5t158.5 66.5q12 6 29.5 11.5t28.5 5.5q18 0 24 -25q0 -4 -1 -6t-1 -4v2q-8 -55 -40 -109.5t-75 -97.5t-90 -69.5t-84 -26.5q-43 0 -76.5 23.5t-62.5 52t-56.5 52t-56.5 23.5h-10q-31 -8 -63.5 -23 t-59 -40t-44 -59.5t-17.5 -79.5q0 -74 38 -134.5t79 -105.5q57 -51 127.5 -69.5t146.5 -22.5q33 0 62.5 2t60.5 6h-4q135 23 246.5 112t195.5 217t141.5 281.5t86.5 307.5q4 61 10 122.5t6 122.5q0 113 -22.5 215.5t-39.5 206.5q-20 63 -61 119.5t-93 99.5t-112.5 68 t-118.5 25q-63 0 -130.5 -18.5t-134 -51.5t-129 -80t-111.5 -104q-53 -61 -103.5 -133t-90.5 -149t-64.5 -158t-24.5 -160zM336 1163v19q6 57 38 102t75 73.5t89 44t83 15.5q68 0 126 -34.5t80 -108.5q-10 -23 -23 -43.5t-30 -38.5h2q-59 -57 -123.5 -83t-126.5 -46l-18 -6 q-27 -10 -53 -10q-47 0 -83 28.5t-36 87.5z" />
<glyph unicode=":" horiz-adv-x="540" d="M43 266q0 -49 12.5 -100t37 -92t61 -67.5t86.5 -29.5q49 6 93 34t80 69t58.5 94.5t26.5 112.5l2 14q0 53 -5.5 113.5t-22.5 113t-50 87t-88 34.5q-68 0 -122 -35.5t-91 -91t-57.5 -124t-20.5 -132.5zM74 1135q0 -72 39 -126.5t100 -54.5q45 0 93 28t89 73t67.5 102 t29.5 115q0 4 -1.5 7t-1.5 7v4q0 45 -4 98.5t-18 99.5t-41 75.5t-70 29.5q-66 0 -118 -44t-87.5 -108.5t-55 -137t-19.5 -129.5v-11q-2 -10 -2 -28z" />
<glyph unicode=";" horiz-adv-x="495" d="M43 1153q0 -37 8 -73t25.5 -63.5t42 -45t57.5 -17.5q43 0 91 29t88 75t68 101t32 111l-2 14v4q-2 45 -7.5 98.5t-18.5 99.5t-37.5 76.5t-67.5 30.5q-72 0 -123.5 -46t-85 -112.5t-51 -141t-19.5 -130.5v-10zM45 45q0 -35 10.5 -68.5t27.5 -62.5t43 -48.5t56 -25.5 q72 14 120 66.5t78 125t45 155.5t24 157q-2 8 -3 16v19v35q0 59 -7 123.5t-26.5 118t-56.5 88t-94 34.5h-18q-70 -12 -121 -76h2q-29 -29 -52.5 -70.5t-23.5 -88.5q0 -63 24.5 -115.5t37.5 -112.5v-8q-10 -70 -35 -131t-31 -129v-2z" />
<glyph unicode="&#x3c;" horiz-adv-x="831" d="M41 797q2 -53 20.5 -95.5t46 -79t60.5 -67.5t65 -59q35 -33 62 -80t49.5 -99.5t46 -105.5t56 -95t76.5 -69t108 -27h4q33 2 60.5 18.5t47 43.5t31.5 58.5t14 66.5v14q0 39 -7 75t-17 69q-35 80 -84 145t-100.5 125.5t-98.5 121t-80 132.5q35 78 79 150.5t93 144.5h-2 q33 43 67 90t61.5 98t46 104.5t20.5 106.5q-4 16 -3 34.5t-5 35.5v-2q-8 29 -19.5 62.5t-28 63t-39 49t-53.5 19.5q-47 0 -84.5 -30.5t-67.5 -74.5t-52.5 -93.5t-38.5 -85.5q-55 -127 -98.5 -251t-100.5 -241v2q-16 -37 -36.5 -69.5t-41 -64.5t-36 -66.5t-21.5 -73.5z" />
<glyph unicode="=" horiz-adv-x="829" d="M43 543q0 -35 9 -70t27.5 -62.5t43 -46t55.5 -18.5l19 4h-2q84 16 176 30.5t182 14.5q8 0 15 -1t16 -1h6q31 10 60.5 35t53 58.5t37 71.5t13.5 73q0 31 -15 63h2q-31 59 -84 87t-112 28q-31 0 -58.5 -8t-54 -17.5t-54.5 -17.5t-61 -8t-62.5 4t-57.5 4q-76 0 -115 -62.5 t-39 -144.5v-16zM68 987q0 -76 50 -111.5t111 -35.5q27 0 52.5 7t50 16t51.5 16.5t55 7.5q29 0 56.5 -2t56.5 -2q113 0 174 70.5t61 181.5v28q0 78 -42 134.5t-109 56.5q-18 0 -29 -2l-20 -6q-106 -43 -200.5 -78t-190.5 -58l-5 -2q-25 -12 -47 -37.5t-39.5 -56.5 t-26.5 -64.5t-9 -62.5z" />
<glyph unicode="&#x3e;" horiz-adv-x="802" d="M43 1384q0 -53 15.5 -97t38 -82t51 -72.5t55.5 -67.5q49 -23 89 -70t40 -123q-20 -37 -42 -70.5t-38 -70.5q-16 -57 -42 -110.5t-54 -102.5v2q-10 -12 -16.5 -26.5t-16.5 -26.5l2 2q-25 -35 -43.5 -75t-22.5 -85v-16q2 -35 13.5 -72t30 -65.5t44 -48t60.5 -19.5h2 q45 0 80 26.5t62.5 67.5t50 89t44.5 89q53 102 107.5 209t118.5 211v-2q29 51 56.5 104.5t31.5 110.5v13q0 18 -2 34.5t-2 32.5q-6 45 -27.5 73t-50.5 47t-60.5 34.5t-56.5 36.5q-66 59 -117 131.5t-92 150.5q-10 20 -22.5 42t-27.5 39.5t-32.5 28.5t-40.5 11 q-18 0 -32.5 -8t-30.5 -19l2 5q-53 -39 -89 -105.5t-36 -132.5v-23z" />
<glyph unicode="?" horiz-adv-x="1099" d="M41 1245q2 -27 5 -56.5t11.5 -54t22.5 -43t39 -20.5q27 8 55.5 21.5t54 35t46 52t30.5 71.5v-2q12 45 42 92.5t69 86t83 62t85 23.5q12 0 22 -5t12 -21q-10 -86 -59 -162t-96 -143l-27 -37q-76 -86 -131 -194.5t-55 -223.5q8 -74 59 -117t115 -43h4q61 6 85 52.5 t39 102.5t35.5 110.5t76.5 78.5h-2q37 23 55 64t24 82v-2q2 35 21.5 58.5t44 43t50.5 38.5t42 46q53 104 100.5 213.5t57.5 222.5v4q0 68 -22.5 118t-59.5 83t-86 48.5t-105 15.5q-82 0 -168 -35q-23 -12 -41 -31.5t-35.5 -41t-34 -43t-34.5 -38.5l-31 -14 q-35 -14 -65.5 -21.5t-63.5 -23.5q-49 -23 -96 -75t-85 -117.5t-62.5 -135.5t-26.5 -125zM150 170q0 -39 14 -71.5t36.5 -57.5t53.5 -39t61 -14h7q55 0 105 28.5t90 75.5t66.5 108.5t32.5 129.5q0 23 -2 48.5t-18 41.5q-31 59 -85 89t-114 30h-16q-55 -6 -97 -42t-71 -88.5 t-45 -114t-18 -116.5v-8z" />
<glyph unicode="@" horiz-adv-x="1466" d="M41 686q0 -123 30.5 -245t89 -221t145.5 -164.5t202 -75.5h-2l57 -3q51 0 105.5 10.5t105.5 33t96 61.5t78 94q18 35 38 76t20 84q0 29 -13.5 54.5t-29.5 43.5h41q111 37 189.5 124t130.5 198.5t76.5 234.5t24.5 228q0 78 -13 148t-36 136q-20 86 -61 152.5t-98.5 114 t-128 72t-148.5 24.5h-31q-100 -4 -188 -42t-166 -98.5t-144.5 -136.5t-123.5 -151q-61 -82 -107.5 -175.5t-77 -190.5t-46 -195.5t-15.5 -190.5zM268 766q0 55 7.5 112.5t13.5 110.5q27 90 81 178t123.5 157t147.5 112t150 43q51 0 97 -18.5t81 -53.5t55 -84t20 -111v-22 q0 -18 1.5 -35.5t1.5 -34.5v-14q0 -33 -1.5 -70t-8.5 -72.5t-22.5 -68.5t-41.5 -57q-23 29 -27 68.5t-4 80.5v19q6 41 10 84t4 84v36q4 18 5 39v39q0 61 -21.5 113.5t-75.5 52.5q-14 0 -22 -2h2l-31 -6q-27 -10 -45 -33.5t-41 -40.5l-16 -2q-111 -8 -189 -77.5t-129 -168 t-74.5 -208t-23.5 -195.5q0 -61 17.5 -116.5t49 -97.5t75.5 -66.5t98 -24.5q59 0 123.5 34.5t115.5 94.5q25 -20 47.5 -44t50.5 -38l-14 -2q-39 -4 -76 -21.5t-69 -44.5q-43 -41 -95.5 -61.5t-101.5 -20.5q-61 0 -107.5 45t-77 113t-47 146.5t-16.5 148.5zM524 799 q0 49 20.5 99t41.5 97l-2 -2l30 33q4 4 9.5 7t11.5 5h6q2 0 4 1t4 1q20 0 25 -22v-6q-2 -16 -5 -61.5t-12.5 -92.5t-27 -84t-47.5 -37q-23 0 -40.5 16.5t-17.5 45.5z" />
<glyph unicode="A" horiz-adv-x="1415" d="M43 217q0 -35 8 -70.5t23.5 -66.5t40 -50.5t55.5 -19.5q27 0 48.5 15.5t38.5 39t30.5 53t21.5 58.5q2 10 4 21.5t9 19.5v2l-5 -2q23 55 72 82t98 27h41q45 0 93.5 -6.5t92.5 -23.5t84 -47t68 -77q16 -63 68.5 -100t114.5 -37q47 0 98 12t96 38t78 67t43 98v6q4 41 7 81 t3 81q0 180 -42 344t-96 321.5t-106.5 313t-70.5 321.5q-12 104 -78 160.5t-156 56.5q-59 0 -112.5 -23.5t-99.5 -64.5t-81.5 -95t-58.5 -116v2q-141 -362 -249.5 -701t-174.5 -669q-2 -10 -4 -19t-2 -20v-12zM481 788v9q6 41 22.5 79.5t36 75.5t42 74t41.5 76l14 12 q33 -2 55.5 -26.5t36.5 -58.5t19.5 -71.5t5.5 -68.5v-15q0 -35 -21.5 -65.5t-50.5 -40.5l-29 -18q-23 -10 -46 -20.5t-48 -16.5h-16q-31 0 -46.5 21.5t-15.5 53.5z" />
<glyph unicode="B" horiz-adv-x="1316" d="M43 102q0 -37 17.5 -71.5t48.5 -36.5q78 -16 160.5 -28.5t168.5 -12.5q143 0 297 46t297 157v-2q115 90 177.5 220t62.5 283q0 131 -36 249t-95 222q66 98 99.5 206t33.5 214q0 70 -25 129q-20 53 -50 100.5t-68.5 83t-87 56t-103.5 20.5q-51 0 -108.5 -13t-116 -32.5 t-113.5 -43t-104 -44.5l-27 -12q-59 -29 -115.5 -57.5t-107.5 -75.5q-59 -49 -90 -131t-37 -156q-37 -324 -53.5 -634t-24.5 -629v-7zM330 483q0 12 2 24.5t2 24.5v7q2 55 14 95t43 65.5t84 37t137 11.5q63 0 119.5 -22.5t91.5 -88.5q12 -12 13 -35q0 -8 -2 -12 q-20 -70 -63.5 -113t-95.5 -67.5t-108.5 -37t-103.5 -22.5q-16 -4 -27 -4q-45 0 -75.5 42t-30.5 95zM367 1102v6q8 57 13 120.5t24.5 116t64.5 87t135 34.5q53 0 105.5 -16t105.5 -31q4 -14 6 -26.5t6 -26.5q-10 -66 -54 -124t-99 -85q-2 2 -8 2l6 2q-66 -4 -126.5 -25.5 t-119.5 -37.5q-10 -4 -18.5 -6t-18.5 -2q-16 0 -22 12z" />
<glyph unicode="C" horiz-adv-x="1339" d="M41 745q0 -199 51 -370q27 -92 81 -165t126 -123t158 -76.5t176 -26.5q86 0 162.5 34.5t147.5 93t134.5 134t120.5 155.5q35 43 54.5 98.5t19.5 108.5q0 57 -19.5 107.5t-54.5 87.5t-81 58.5t-99 21.5q-43 -12 -74 -39t-52.5 -61.5t-39.5 -71.5t-37 -70q-18 -41 -45 -77 t-60.5 -64.5t-71.5 -46t-77 -17.5q-61 0 -100 34t-60.5 88t-28.5 118.5t-7 126.5q0 35 3 87t12 111.5t26.5 121t45 116.5t67.5 98t95 66q23 10 54 10q53 0 88 -28.5t65.5 -64.5t63.5 -64.5t82 -28.5q61 0 120.5 32.5t108.5 86t81 120t38 133.5q0 82 -27.5 138.5t-58.5 103.5 q-18 39 -53 51.5t-75 14.5q-27 1 -54 1h-28h-5q-39 0 -68 15q-39 25 -96 25q-100 0 -199.5 -51.5t-187.5 -131t-161 -180t-120 -199.5q-74 -156 -107.5 -321.5t-33.5 -319.5z" />
<glyph unicode="D" horiz-adv-x="1396" d="M43 199q0 -29 4 -57.5t13.5 -53.5t26.5 -41t42 -18q82 -10 168 -25.5t178 -15.5q84 0 173 16t173 56t159 108t132 170q106 193 174 396.5t68 430.5q0 150 -29.5 284t-95.5 251q-47 106 -133 151t-191 45q-84 0 -163.5 -24.5t-157.5 -59t-153 -73.5t-146 -70l-4 -2 q-45 -20 -84 -75.5t-43 -114.5q-41 -281 -60.5 -553.5t-36.5 -542.5q-4 -41 -9 -81t-5 -79v-22zM367 485v9q0 184 16 374.5t41 382.5q10 33 33.5 51.5t54.5 28.5t62.5 13.5t58.5 3.5q61 0 113 -24.5t79 -90.5q31 -139 31 -289q0 -72 -13.5 -148.5t-43 -146t-76.5 -124 t-117 -81.5q-41 -23 -86 -39t-86 -16q-29 0 -48 31t-19 65z" />
<glyph unicode="E" horiz-adv-x="1312" d="M41 188q0 -49 24.5 -93t65.5 -48h2q8 0 15.5 1t15.5 1q47 0 96 -9t99.5 -21.5t103.5 -21.5t108 -9q53 2 106.5 8t108.5 8h138q82 0 159.5 49t116.5 135q16 37 27.5 77t11.5 81q0 59 -46 98t-106 39q-35 0 -68.5 -8t-66 -19.5t-66.5 -19.5t-69 -8q-33 0 -63.5 4t-61.5 4 q-61 0 -123.5 -16.5t-119.5 -16.5q-31 0 -56.5 16.5t-38.5 47.5l2 -2q-4 8 -5 17.5t-1 19.5v20q4 47 20.5 99.5t59.5 74.5l2 2q57 10 119.5 34t126.5 24q16 0 34.5 -1t35.5 -1q51 0 102 28.5t91 74.5t64.5 104.5t24.5 117.5q0 72 -47 110t-109 38q-45 0 -100 -18.5 t-110.5 -41t-105.5 -41t-85 -18.5q-16 8 -24.5 26.5t-8.5 41.5v16q0 106 52.5 161.5t132.5 85t176 46t182 45.5q55 10 121.5 43t124 84t96.5 116.5t39 139.5v20q0 53 -25.5 92t-74.5 39h-4q-143 -18 -276.5 -69t-258.5 -110.5t-242.5 -116t-230.5 -87.5l-8 -4 q-45 -37 -68.5 -96t-38.5 -119q-47 -326 -66.5 -640t-29.5 -625v-9z" />
<glyph unicode="F" horiz-adv-x="1077" d="M41 217q2 -76 46 -131t103 -66q12 2 25.5 4.5t26.5 10.5v-2q57 33 85.5 107.5t28.5 152.5v182q0 47 15.5 94t42 85t63.5 62.5t80 26.5q41 8 80 11.5t82 9.5q51 8 106.5 33.5t101.5 65.5t77.5 95.5t33.5 122.5v9q0 45 -15 75.5t-41 50t-58.5 27.5t-69.5 8q-45 0 -90 -10 t-89 -25.5t-87 -32t-84 -28.5l-19 -4q-25 0 -34 24.5t-9 53.5v10q4 23 7.5 45.5t17.5 40.5v-2q68 90 162 130t196.5 65.5t207 57t194.5 103.5q51 41 80.5 99.5t35.5 117.5q0 70 -36.5 120t-102.5 50q-27 0 -51 -8q-139 -47 -267 -88t-246 -92t-226.5 -121.5t-208.5 -175.5 q-35 -41 -45 -93t-17 -99v2q-43 -301 -66.5 -591t-35.5 -577v-6z" />
<glyph unicode="G" horiz-adv-x="1349" d="M43 733q0 -78 10 -153.5t29 -147.5v2q25 -88 73 -167t113.5 -137t145.5 -92t170 -34h18q104 0 192.5 42t164 112.5t141 163t125.5 192.5v-2q20 33 31.5 75t17.5 85t7 82.5t1 70.5q4 33 6 69t2 75q0 51 -7 99t-25.5 87t-50 62.5t-83.5 23.5h-12q-92 -6 -176 -27.5 t-170 -35.5q-47 -8 -100.5 -31t-97.5 -58.5t-72.5 -86t-28.5 -111.5v-45l2 4q4 -84 60.5 -120t125.5 -36q33 0 74 11h4q27 0 45.5 -20.5t18.5 -49.5q-16 -82 -77 -131t-124 -62q-90 6 -140 56.5t-74 126t-28 166t-4 176.5q0 80 34 174t86 176t114.5 136t120.5 54 q41 0 74.5 -21.5t64.5 -43.5h-2q33 -29 72.5 -53.5t91.5 -24.5q49 0 99 28.5t92 74.5t72.5 101.5t39.5 110.5q0 55 -24.5 99.5t-65.5 66.5v-2q-33 29 -73 56.5t-83 49t-87 35t-83 13.5q-96 0 -196.5 -51.5t-190.5 -132t-166 -181t-125 -196.5q-86 -170 -129 -351.5 t-43 -351.5z" />
<glyph unicode="H" horiz-adv-x="1357" d="M43 276q0 -35 5 -73.5t18.5 -72.5t35 -57.5t52.5 -29.5h4q8 -2 24 -2q33 0 62.5 20.5t52 52t35 73.5t12.5 85v21q0 6 1 13t1 13v33q0 51 -4 101.5t-4 101.5v16q4 23 5 42.5t7 39.5q45 45 90 74t94.5 45t107.5 23.5t130 13.5q25 -29 34 -69t9 -81q0 -78 -16.5 -158.5 t-16.5 -158.5q0 -45 11.5 -90t34 -82t56.5 -59.5t79 -22.5q29 0 65.5 10.5t69 31t56.5 50t30 66.5q59 416 94 834.5t39 840.5v47q0 24 -2 49q0 4 1 9.5t1 9.5q0 49 -28.5 79.5t-74.5 30.5q-27 0 -63 -16q-59 -16 -109.5 -56t-88.5 -93.5t-59.5 -113t-21.5 -114.5 q0 -84 5.5 -158.5t7.5 -158.5v-4q0 -47 -16.5 -95.5t-45 -90.5t-65.5 -70.5t-80 -36.5q-47 -16 -99.5 -18.5t-97.5 -2.5q-33 0 -47 30t-14 66q0 82 16.5 165t16.5 167q0 39 -8.5 75t-23.5 63.5t-37 44t-50 16.5q-31 0 -64.5 -19.5t-64.5 -52.5t-53.5 -75t-28.5 -87v-6 q-18 -301 -39 -602t-41 -600v-27z" />
<glyph unicode="I" horiz-adv-x="927" d="M43 246q2 -47 15.5 -92t41.5 -74q10 -12 24.5 -17.5t29.5 -9.5q53 0 96 13.5t88 13.5q47 -4 95 -13.5t99 -9.5q55 2 106.5 23.5t92.5 56.5t68.5 83t34.5 106q0 63 -34 94t-77 48t-84 32.5t-55 52.5q-33 80 -33 180v21q0 64 10 145q12 94 26.5 194.5t26.5 200.5 q11 87 11 162v23q12 47 54 73.5t88 52t82 60.5t36 100v27q-4 33 -12.5 65.5t-23.5 59.5t-38 43t-53 16q-41 0 -82 -12t-82 -27.5t-81 -32t-77 -24.5q-49 -10 -98 -46t-89 -85t-67.5 -108.5t-34.5 -116.5q0 -37 15.5 -57.5t38 -32t48 -18.5t48.5 -17q4 -35 7 -70t3 -72 q0 -131 -16.5 -262t-20.5 -260q0 -49 4.5 -98t4.5 -98q-4 -39 -22.5 -62.5t-44.5 -40t-55.5 -31t-55 -34t-42 -49t-16.5 -76.5z" />
<glyph unicode="J" horiz-adv-x="1089" d="M43 569q0 -86 22.5 -165.5t62.5 -148.5t93 -125t117 -95q25 -10 51.5 -19.5t54.5 -9.5h7q86 2 157.5 45t127 114t97 164t69.5 194.5t43.5 204.5t17.5 196q4 98 8 193t8 194q4 18 3 35.5t3 35.5q6 98 30 198t34 198v10q-4 84 -50.5 139t-119.5 55q-66 0 -118 -45 t-89 -109.5t-56.5 -136t-19.5 -122.5q0 -78 4 -153t4 -152q-4 -47 -5 -94.5t-1 -94.5v-196q0 -55 -4 -121t-20.5 -127.5t-47 -112.5t-84.5 -78l2 2q-4 -2 -7 -3t-7 -3q-31 2 -50.5 33t-28.5 75t-12 91t-3 84q0 33 -3 69.5t-14.5 65.5t-35 48.5t-62.5 19.5q-49 0 -82 -36 t-54.5 -88.5t-30.5 -109.5t-11 -98v-21z" />
<glyph unicode="K" horiz-adv-x="1144" d="M41 301q0 -35 8 -70.5t23.5 -65.5t37 -51.5t52.5 -27.5h12q33 0 56.5 22.5t39 57.5t22.5 77t7 79v59v72q0 45 2 93t11.5 92t27.5 85t49 76q68 -53 120 -126t95 -158t78 -180t68 -192q8 -23 19 -47t27.5 -44.5t38 -33t48.5 -12.5h10q51 10 91 44t67.5 81t43 101.5 t15.5 105.5q0 16 -2 33.5t-12 34.5l-4 2q-25 74 -62 138t-79 122.5t-85 115t-78.5 115.5t-62.5 125t-35 141q14 63 50 116.5t81 101t95.5 92.5t97.5 95t84 107.5t57 128.5q16 37 22.5 72t10.5 74v4q0 53 -29 88t-76 35q-37 0 -66.5 -18.5t-57 -45t-53 -54.5t-56.5 -48 q-84 -88 -149.5 -184.5t-124 -192.5t-113.5 -190.5t-117 -176.5q-10 25 -14 53.5t-4 57.5q10 92 32.5 182t22.5 183q0 51 -19.5 90t-58.5 39q-25 0 -47 -15l-12 -6q-35 -16 -63.5 -48t-48 -72t-31 -85t-11.5 -84v-10q-4 -35 -4 -72v-69v-45q0 -127 -15.5 -253t-21.5 -251 q-4 -117 -5 -231.5t-5 -231.5z" />
<glyph unicode="L" horiz-adv-x="1191" d="M41 176q0 -41 16.5 -75.5t46.5 -49.5q86 -39 184.5 -50t203.5 -13h34q94 0 192.5 6t205.5 16q49 4 90 26.5t71.5 59.5t47 83.5t16.5 99.5q2 6 2 12v14q0 33 -12.5 64.5t-33 56.5t-48 40t-60.5 15q-39 0 -75.5 -10t-73.5 -22.5t-73 -22.5t-73 -10q-25 0 -49 5t-47 5 q-45 0 -88 -11.5t-86 -11.5q-35 0 -72 17q-12 131 -12 270q0 229 24.5 460.5t57.5 471.5l4 35q0 47 -25.5 69.5t-60.5 22.5q-78 0 -128 -50t-78.5 -122t-41 -150.5t-16.5 -134.5q-10 -154 -10 -304q0 -37 1 -75q1 -51 1 -102q0 -136 -6 -276q-4 -92 -16.5 -180.5 t-12.5 -178.5z" />
<glyph unicode="M" horiz-adv-x="1669" d="M45 266q0 -55 9 -107.5t28.5 -92t50.5 -64.5t72 -25q4 -2 14 -2q18 0 33.5 13.5t27 33t16.5 44t5 49.5q0 82 -3 136t-3 101q0 51 8 114.5t49 104.5q23 -41 31 -88t10 -98t2 -104q0 -51 7.5 -98.5t27 -89.5t59.5 -73q25 -12 50.5 -24t60.5 -12q70 14 118 54t82 97.5 t58.5 128t49 143t53 143.5t69.5 130q23 -18 29 -49t6 -60q-8 -45 -18.5 -89t-26.5 -85t-28.5 -83t-18.5 -91q0 -4 -1 -10t-1 -10q0 -41 17.5 -76t47 -62.5t68.5 -43t84 -15.5t86 20.5t72 53.5q104 111 149 255t45 294q0 86 -9.5 166.5t-23.5 162.5q-4 23 -4 43v43 q0 94 16.5 192.5t38 199t42 201t26.5 198.5q0 63 -9 115.5t-32.5 89.5t-63.5 57.5t-104 20.5q-84 0 -163.5 -34t-145.5 -90.5t-112 -133t-62 -162.5q-31 -162 -61.5 -319.5t-102.5 -309.5q-27 -59 -49.5 -119.5t-61.5 -111.5q-41 96 -57 203.5t-27.5 216t-23.5 215 t-45 200.5q-10 29 -29.5 39t-44.5 10q-57 0 -113.5 -36.5t-102.5 -95t-76.5 -131.5t-35.5 -142q-9 -145 -9 -286v-29v-62q0 -124 -3 -252q-6 -121 -23.5 -221t-23.5 -201z" />
<glyph unicode="N" horiz-adv-x="1361" d="M41 412q0 -82 3 -152t17.5 -120t41 -78.5t73.5 -30.5q29 0 57.5 12t51.5 39q35 39 50 93t19 110q0 90 -9 158.5t-9 140.5q0 49 3 82.5t17 56.5q25 0 43.5 -14.5t32.5 -35t26.5 -44t24.5 -41.5q25 -51 46.5 -115.5t45 -131.5t51 -129t64.5 -111.5t86 -79t115 -29.5 q70 0 130 44t85 111q68 209 106.5 424t59 433.5t28.5 437.5t19 438v8q0 61 -35 86t-86 25q-61 0 -125.5 -31t-117 -82t-86 -117.5t-33.5 -136.5q0 -115 15 -215t15 -213q-6 -39 -8 -75.5t-7 -72.5t-16.5 -68t-33.5 -60q-35 2 -59.5 22.5t-42 49t-31 60.5t-27.5 58 q-45 86 -82 176t-53 195q-12 76 -57.5 121t-106.5 45q-45 0 -84 -22.5t-67.5 -60.5t-48 -86t-25.5 -100q-31 -252 -53.5 -490.5t-22.5 -483.5z" />
<glyph unicode="O" horiz-adv-x="1431" d="M41 700q0 -139 26.5 -271t85 -235.5t150.5 -166t221 -62.5q137 0 260 59.5t224.5 162t177.5 239.5t119 293q39 141 61.5 299t22.5 291q0 119 -27 227.5t-79 191t-132 133t-186 54.5h-27q-131 0 -254 -51.5t-228.5 -140.5t-186.5 -206.5t-128 -250.5 q-49 -141 -74.5 -284.5t-25.5 -281.5zM322 709q0 39 2 100t11 132t26.5 144.5t49 139t80 117t115.5 77.5q41 14 84 15q84 0 146.5 -55.5t72.5 -155.5q2 -31 3 -62t1 -61q0 -145 -27.5 -291.5t-109.5 -269.5v4q-37 -57 -93 -83t-110 -30h-69q-41 8 -74 35t-57.5 64.5 t-37.5 83.5t-13 96z" />
<glyph unicode="P" horiz-adv-x="1306" d="M43 356q0 -53 2 -107t10 -69q2 -29 8.5 -59.5t17.5 -58t26.5 -48t39.5 -28.5q8 -4 17.5 -6.5t32.5 -2.5q41 0 70.5 28t49 70t29.5 92t10 95q0 74 1 130.5t5.5 100.5t12.5 78.5t24 65.5q8 0 14.5 -1t14.5 -1q96 0 208 33.5t221.5 100.5t206.5 168.5t165 236.5 q33 72 54.5 146.5t25.5 160.5q0 94 -32 164.5t-83 122t-115.5 85t-132.5 54.5q-37 9 -75 9q-19 0 -39 -2q-58 -7 -116.5 -25.5t-114.5 -43t-109 -43.5q-53 -20 -108.5 -57t-106 -85t-90.5 -106.5t-64 -121.5q-6 -188 -29.5 -376t-23.5 -374q0 -82 -13.5 -164t-13.5 -162z M416 1130q0 37 5 75t18.5 73t37 64.5t60.5 48.5q51 6 96 21t86 15q35 0 60.5 -20.5t25.5 -60.5q0 -39 -11.5 -82t-33 -80t-52 -63.5t-69.5 -30.5q-49 -16 -97 -34t-81 -18q-16 0 -25.5 9.5t-13.5 22.5t-5 29.5t-1 30.5z" />
<glyph unicode="Q" horiz-adv-x="1413" d="M41 688q0 -133 30.5 -259t95 -224.5t165 -158.5t237.5 -60q53 2 105.5 9t105.5 34q37 -47 92.5 -76t116.5 -29h6q37 0 75 10.5t72 32t57.5 53t33.5 74.5q-8 72 -35 133.5t-57 120.5l10 19v-2q57 90 99 193.5t69 211t39 217t12 213.5q0 135 -26.5 267t-85 236.5 t-148.5 170t-215 65.5q-92 0 -192.5 -40.5t-190.5 -106.5q-129 -96 -219 -230.5t-145.5 -284t-81 -302t-25.5 -287.5zM332 772q0 70 11 166t44 189.5t92.5 168t153.5 99.5q16 4 33.5 8t35.5 8h3q47 0 85.5 -22.5t67.5 -61.5t46.5 -88t21.5 -102v-13q0 -90 -14.5 -190 t-41.5 -193q-39 25 -78.5 42.5t-84.5 17.5q-10 0 -19.5 -1t-19.5 -3h-4q-31 0 -62 -16.5t-55.5 -44t-38.5 -62.5t-14 -72v-41q0 -37 3 -72.5t13 -72.5q-55 8 -90 44t-54.5 85t-26.5 108.5t-7 118.5z" />
<glyph unicode="R" horiz-adv-x="1259" d="M43 721q0 -92 2 -184.5t2 -184.5v-10q0 -299 117 -303q78 0 126 52t48 132q0 78 -7 152t-12 151q2 33 13.5 67t34.5 58q23 23 52.5 36t59.5 13q49 0 83 -31.5t59.5 -82.5t47 -117t43 -134.5t49 -133t66.5 -115.5q31 -25 70 -25q55 0 107.5 27t92.5 70t64.5 98t24.5 115 q0 63 -21.5 119.5t-50.5 108.5t-58.5 104.5t-43.5 107.5q8 51 33.5 97t56.5 91t64.5 89.5t58.5 93.5q55 104 101 211.5t46 218.5q0 55 -18 101t-45 85q-59 92 -148.5 132t-193.5 40q-96 0 -193.5 -31.5t-193 -79t-185.5 -102.5t-172 -104q-33 -18 -58.5 -50t-42 -72 t-25.5 -82t-9 -81q-4 -53 -4 -102t-4 -99q-16 -117 -26.5 -225t-10.5 -221zM358 1167q0 45 17.5 103.5t56.5 93.5q41 2 79 16.5t75 33t75.5 37.5t79.5 34q20 12 43 12q37 0 60.5 -35t25.5 -88q0 -63 -28.5 -107t-70.5 -76t-91 -50.5t-90 -28.5t-67.5 -13t-24.5 -3 q-18 0 -43 2t-46.5 10t-36 22.5t-14.5 36.5z" />
<glyph unicode="S" horiz-adv-x="1312" d="M43 393q0 -106 51 -178t125 -116t157 -64.5t144 -22.5q106 6 222 50t218.5 125t178 196t102.5 262q0 10 1 18.5t1 18.5q0 111 -32.5 204t-73.5 183q-25 51 -59 85t-73.5 52.5t-86 25.5t-95.5 7q-70 0 -138.5 -8t-129.5 -8q-23 0 -45.5 4t-38.5 15t-26.5 31.5t-10.5 53.5 v4q10 41 36 68.5t58.5 45t66.5 25t58 7.5q72 0 132.5 -36t103.5 -95l-2 2q16 -25 40.5 -36.5t53.5 -11.5q37 0 75 15.5t73.5 42t65.5 63.5t48 78q10 37 19.5 75t9.5 73q0 88 -29 148t-76 98t-109.5 55.5t-129.5 17.5q-145 0 -290.5 -68.5t-264.5 -184.5t-199 -266.5 t-92 -313.5q-2 -10 -2 -19v-14q0 -41 7 -79t13 -77q53 -82 121 -122t138.5 -55t138.5 -15t120 -1t84.5 -13.5t32.5 -53.5v-10q8 -41 13 -86q-2 -37 -17.5 -66.5t-40 -52.5t-53.5 -36t-57 -13h-15q-59 0 -105 26.5t-87 60.5t-82 64.5t-88 40.5l-33 4q-29 -4 -52.5 -22.5 t-40 -47t-25.5 -62t-9 -66.5v-25z" />
<glyph unicode="T" horiz-adv-x="1050" d="M41 1339q0 -61 36 -83.5t81 -22.5q39 0 71.5 9t73.5 9q27 0 42 -15t23.5 -38.5t11.5 -54.5t3 -62q0 -199 -18.5 -393t-18.5 -395q0 -47 4 -104.5t20.5 -106.5t49.5 -82t88 -33h8q4 0 9 -1t10 -1q51 0 83.5 34t53 83t29 106.5t10.5 106.5q10 205 12 407.5t12 411.5 q6 57 16.5 115.5t39.5 113.5q37 57 85 90t101 53.5t109.5 35t111.5 37.5q49 20 93 58t78 86t53.5 102.5t23.5 107.5v8q0 33 -9.5 58.5t-25.5 48.5q-29 29 -64.5 40t-76.5 11q-92 0 -190.5 -30t-196 -73t-190.5 -90t-175 -82q-59 -29 -116.5 -44t-112.5 -44q-43 -18 -88 -59 t-80 -93.5t-57.5 -110.5t-22.5 -114z" />
<glyph unicode="U" horiz-adv-x="1320" d="M43 584q0 -109 27.5 -217.5t81 -195.5t132 -144.5t183.5 -61.5q72 0 137.5 23.5t140.5 46.5q119 35 211.5 122t155 202.5t95 249.5t34.5 265l8 408q0 154 6.5 304.5t40.5 301.5l2 4v14q0 41 -10 67q-12 30 -32 44.5t-45 19.5t-46 11q-10 2 -18 2h-17q-43 0 -90 -19.5 t-88 -53t-69.5 -79t-32.5 -98.5q2 -66 3 -127t1 -121q0 -408 -68 -813q-10 -55 -28.5 -115.5t-49 -111.5t-72.5 -85t-97 -36q-61 27 -98.5 65t-58 83t-26.5 93t-6 97q0 94 12.5 190.5t26.5 193.5t26.5 194.5t12.5 193.5q0 39 -5 77t-17.5 67.5t-32 48t-47.5 18.5 q-45 0 -87 -33.5t-75 -84t-53.5 -109t-20.5 -107.5q0 -41 6 -81t10 -80q-14 -172 -38.5 -327t-24.5 -306z" />
<glyph unicode="V" horiz-adv-x="1308" d="M43 1305q0 -135 23.5 -261t54.5 -251t60.5 -252t43.5 -265q6 -57 30 -108t60.5 -89t82.5 -62.5t98 -26.5q72 2 139 49t102 127q180 369 342 787.5t279 881.5l2 4v19q0 110 -44 174q-48 70 -126 69q-49 0 -104.5 -29.5t-102.5 -75.5t-81 -103.5t-42 -112.5 q2 -31 11.5 -57.5t9.5 -59.5q-45 -274 -142.5 -518t-212.5 -461q-27 12 -43 45t-26.5 74t-18.5 84t-16 74q-18 86 -41 167.5t-23 174.5q2 57 16.5 101t14.5 89q0 72 -32.5 124t-86.5 52q-29 0 -65.5 -19.5t-70.5 -53t-58.5 -80t-28.5 -97.5q-4 -29 -4 -57v-57z" />
<glyph unicode="W" horiz-adv-x="1607" d="M41 1280q0 -14 4 -35q23 -244 54.5 -486.5t66.5 -492.5q6 -41 13 -86t22.5 -84t40 -67.5t63.5 -34.5q61 4 111.5 51t91.5 105q29 39 39 89t18 101t24.5 99t57.5 83l6 4q16 -12 21.5 -33.5t5.5 -43.5q2 -63 4 -148.5t21.5 -162.5t62.5 -130t127 -53q106 12 176 83t117 169 t79.5 209.5t63.5 208.5q57 176 118.5 355t139.5 368q29 68 61.5 144.5t60.5 156.5t46.5 159.5t18.5 153.5q0 37 -13.5 65.5t-29.5 57.5l-127 51q-43 0 -86 -20q-98 -43 -159 -119t-98.5 -164t-59 -181t-40.5 -169q-14 -53 -26.5 -106.5t-27.5 -105.5t-36.5 -101.5 t-54.5 -94.5q-4 -4 -8 -5t-9 -5q-18 47 -24 96t-6 103q0 76 5 154q1 23 1 45q0 54 -8 106q-2 49 -2 98t-10.5 90t-38 66.5t-84.5 25.5q-43 0 -86 -18q-78 -43 -127.5 -117t-78 -157.5t-45 -173t-30.5 -162.5q-16 -80 -24.5 -159t-41.5 -155q-29 55 -39 121t-12 135.5 t-2 139.5t-8 135q-4 29 -10 60.5t-18.5 57t-29 42t-40.5 16.5q-47 0 -84 -36t-62.5 -88t-40 -109.5t-14.5 -100.5z" />
<glyph unicode="X" horiz-adv-x="1230" d="M43 268q0 -35 9 -66.5t26.5 -57t41 -42t52.5 -16.5q51 0 87 34t64.5 81t57.5 99t65 91q23 35 49.5 65.5t61.5 49.5q31 -39 54.5 -89t48 -104.5t51 -106.5t62.5 -92t84 -65.5t114 -25.5l10 2q43 2 77 23.5t57.5 55t34.5 75.5t11 83q0 31 -7 61.5t-17 59.5 q-35 86 -87.5 154.5t-107.5 131t-107.5 125t-84.5 138.5q39 76 83 145.5t95 143.5q39 57 85 123.5t85 137t65.5 143.5t26.5 144q0 35 -10.5 70t-28.5 61.5t-44 43t-58 16.5q-49 0 -94.5 -29.5t-84.5 -72.5t-68.5 -92.5t-49.5 -88.5v2q-35 -57 -61.5 -117.5t-53.5 -120 t-56.5 -115.5t-70.5 -105q-43 39 -75 89t-60 103v-2q-16 27 -29.5 59.5t-30 60.5t-37 47t-51.5 19q-14 0 -32 -6l-23 -14v2q-49 -35 -85 -100.5t-40 -130.5v-15q0 -106 41 -185t102 -134h-2q37 -35 74 -75t41 -110q-55 -96 -98 -193t-96 -183q-23 -37 -42.5 -77t-23.5 -87 v-21z" />
<glyph unicode="Y" horiz-adv-x="985" d="M43 1393q0 -47 14.5 -83t36.5 -65q37 -51 77 -109.5t74 -126t55.5 -142t21.5 -158.5q0 -113 -16.5 -221.5t-16.5 -221.5q0 -47 8 -91t25.5 -78t47 -55.5t72.5 -21.5h23q55 0 96 33t69.5 83t43 111.5t14.5 117.5q0 98 -14.5 194t-14.5 195v12q16 96 57.5 186t96.5 176 t118.5 172t127.5 175q39 55 80 114.5t73.5 122t55 126t24.5 126.5v10q0 51 -16 92t-57 56v-2q-31 14 -76 14q-49 0 -89 -19.5t-73 -50t-60.5 -69.5t-52.5 -78h2q-53 -78 -87.5 -163t-67.5 -168t-75 -155.5t-112 -123.5h-8q-23 0 -40 28.5t-35.5 71.5t-39 92t-47 92t-60.5 72 t-81 29h-2q-29 -14 -57.5 -45t-53 -70t-42 -82t-19.5 -80v-22z" />
<glyph unicode="Z" horiz-adv-x="1320" d="M43 229q0 -59 19.5 -104t52 -76t77 -46t91.5 -15q66 0 135 11t141 11h23q35 0 69.5 -6t69.5 -14h-2q12 -6 26.5 -7t28.5 -1q47 0 90 20.5t90 30.5q74 16 134.5 74.5t89.5 136.5q6 16 7 30.5t5 30.5v10q0 53 -23.5 88t-60.5 54.5t-83 27t-89 7.5q-104 0 -204.5 -31 t-192.5 -60l-62 -12q92 133 190.5 272.5t192.5 299.5h-2q31 59 69 113t79 108v-2q43 61 90 125.5t87 133t66.5 140.5t30.5 145v19q0 109 -51 175.5t-150 66.5q-78 0 -154.5 -24t-152.5 -52q-53 -23 -106.5 -58.5t-106.5 -58.5q-47 -16 -92 -25.5t-92 -31.5 q-59 -29 -112.5 -86.5t-88.5 -128.5v2q-23 -33 -32 -72t-9 -78q0 -70 37 -96.5t90 -26.5q43 0 101.5 17.5t125 45t135 61.5t132.5 69q-152 -274 -297.5 -514t-296.5 -443q-41 -49 -76 -108.5t-39 -132.5v-15z" />
<glyph unicode="[" horiz-adv-x="667" d="M41 174q2 -53 16.5 -102t46.5 -86q12 -14 18.5 -34t24.5 -28h5q14 0 23 12.5t24 14.5q27 -16 49 -41t53 -27q49 18 95 55t82 86.5t56.5 110t20.5 123.5q0 20 -6 36.5t-29 18.5q-59 4 -96 38t-57.5 85t-27.5 111.5t-7 118.5q0 168 22.5 339t26.5 343v26q2 12 2 25v22 q0 53 -10 111q14 55 54 92t83 72t78 75.5t39 104.5q0 4 -1 9t-1 9q-12 63 -51 107.5t-99 44.5q-31 0 -65.5 -14.5t-71.5 -34t-73 -39t-64 -27.5h2q-37 -18 -64.5 -52t-45 -73t-27 -82t-11.5 -79q0 -49 13 -93q27 -76 35 -162.5t8 -179.5q0 -190 -13.5 -379.5t-17.5 -377.5 q-4 -72 -20.5 -139.5t-18.5 -139.5z" />
<glyph unicode="\" horiz-adv-x="987" d="M43 1491q0 -104 28.5 -190.5t75.5 -151.5q51 -68 92.5 -148.5t76 -169t66.5 -182.5t62 -192q14 -68 35 -146t54.5 -145.5t87 -115.5t133.5 -56q47 2 81.5 21.5t58.5 50t36 67.5t14 74q0 41 -2 65t-10 47q-18 94 -52 178.5t-73 164t-79 157.5t-70.5 160t-68.5 155.5 t-79 144.5t-80 140.5t-70 143.5q-6 33 -15 69.5t-22.5 67.5t-34 51.5t-48.5 20.5q-20 0 -41 -11q-33 -16 -60.5 -45.5t-49 -66.5t-34 -79t-12.5 -79z" />
<glyph unicode="]" horiz-adv-x="673" d="M43 137q0 -37 8 -73.5t26.5 -66.5t47.5 -48.5t72 -18.5t86 10.5t90 14.5h4q23 0 45 -13.5t45 -13.5h6q23 4 44.5 16.5t37.5 26.5q23 18 38 43t15 56v14q-8 88 -27.5 170t-19.5 172v20t2 21q14 199 24.5 397.5t20.5 397.5v59q0 74 -3 148.5t-3 148.5q2 55 11.5 112.5 t19.5 116.5q-4 23 -8 51.5t-12.5 55t-20.5 46t-29 25.5h-10q-47 0 -99.5 -7t-86.5 -23q-43 -18 -84 -52t-75 -77t-58.5 -93.5t-32.5 -101.5v-12q4 -51 36.5 -74.5t73.5 -23.5q20 0 43 6l2 2q27 -72 32 -154t5 -168v-67q-2 -154 -15 -308.5t-18 -308.5v-16q0 -31 2.5 -61.5 t2.5 -61.5v-18q-4 -37 -22.5 -57.5t-45.5 -34t-56.5 -24.5t-55 -26.5t-42 -42t-16.5 -69.5v-15z" />
<glyph unicode="^" horiz-adv-x="1193" d="M41 1221q2 -59 31.5 -102.5t77.5 -43.5q39 0 68.5 22.5t56 56.5t51 73t53.5 71h-2q23 27 43 55.5t41.5 58.5t45 56.5t52.5 47.5q33 -33 66.5 -69t71.5 -66.5t83 -51t101 -20.5q35 0 67 8l13 2q45 16 80.5 48t60 74t37 89t12.5 94q0 45 -8 78v4q-18 43 -48 71.5t-65 48 t-73.5 34t-74.5 32t-66 42t-48 61.5q-37 51 -100 51q-72 0 -124 -44t-96.5 -107.5t-82 -131t-76.5 -112.5q-35 -45 -65.5 -89t-57.5 -92h2q-16 -31 -36.5 -58.5t-39 -56t-32 -58t-19.5 -64.5v-12z" />
<glyph unicode="_" horiz-adv-x="1433" d="M43 -391q0 -39 18.5 -68.5t44 -50t55 -33t54.5 -16.5q33 -4 65.5 -3t67.5 -5q76 -16 158 -36t168 -36t178 -28.5t190 -12.5q47 0 94.5 6t89.5 22.5t79.5 43t66.5 69.5l4 7q16 33 17 61q0 35 -16.5 69.5t-42 63.5t-59.5 46.5t-69 19.5h-26q-31 -2 -62 -2h-59 q-246 0 -459 13t-395 34l-6 -2q-25 -4 -52.5 -17.5t-50 -35t-38 -49t-15.5 -60.5z" />
<glyph unicode="`" horiz-adv-x="811" d="M35 1628q0 -47 32.5 -75.5t80 -50t98.5 -40t90 -45.5q16 -10 29.5 -21.5t25.5 -25.5l10 -6q33 -20 84 -21q41 0 93.5 13.5t98.5 36t77.5 51.5t31.5 57q0 27 -15 54.5t-38.5 53t-49.5 47t-44 34.5q-66 43 -143.5 73.5t-149.5 59.5q-29 12 -65 12q-53 0 -108.5 -25.5 t-90.5 -76.5h2q-23 -18 -36 -49t-13 -56z" />
<glyph unicode="a" horiz-adv-x="1187" d="M41 172q0 -29 7 -58.5t20.5 -56t33 -45t45.5 -22.5h15q31 0 51 14t34.5 38t26 51.5t23.5 51.5v7q0 6 8 14v12q12 23 29.5 35t38 18.5t41 8.5t39.5 2q68 0 136 -22.5t109 -90.5q16 -53 62.5 -87t103.5 -34q41 0 86 10.5t84 33t66.5 58t38.5 87.5v6q4 33 6 63.5t2 63.5 q0 143 -34 272t-77 255t-84 253t-57 266q-10 92 -69.5 142.5t-137.5 50.5q-47 0 -92 -19.5t-85 -52.5t-70.5 -78t-51.5 -94q-117 -295 -203 -569.5t-141 -536.5q0 -10 -2 -18t-2 -15v-14zM432 631v4q10 59 41 109.5t68 123.5h2q10 -2 21 -13t20.5 -27.5t15.5 -36t6 -37.5 q2 -10 2 -19v-16v-19q0 -23 -12 -41t-33 -26l-26 -17l4 2q-16 -8 -34 -15t-40 -13q-35 0 -35 41z" />
<glyph unicode="b" horiz-adv-x="1120" d="M41 80q0 -51 30.5 -78t74.5 -39t95.5 -15t94.5 -5h41q111 0 226.5 32.5t227.5 108.5v-4q98 78 163 183.5t69 217.5v-2q2 12 2 27v26q0 104 -28.5 196.5t-73.5 174.5q49 80 76.5 165t27.5 169q0 62 -23 113q-18 45 -43.5 85t-59.5 70.5t-75 48t-88 17.5q-41 0 -88 -10.5 t-94 -25.5t-93 -34.5t-87 -38.5l-25 -12q-47 -23 -92 -47.5t-88 -61.5l2 2q-53 -43 -80 -112.5t-31 -130.5q-31 -262 -41 -510t-20 -504v-6zM311 385q0 12 2 21v24q2 37 9.5 64.5t29 46t61.5 28t105 9.5q47 0 86 -15.5t64 -62.5l4 -4q2 -2 2 -15v-4q-16 -55 -50 -86t-74 -47 t-82 -24.5t-77 -20.5q-4 -2 -14 -2q-29 0 -47.5 26.5t-18.5 61.5zM340 891q6 37 7 71.5t7 73.5v-2q8 35 26.5 58.5t40 37t45 18.5t44.5 5q41 0 77 -12.5t75 -22.5q2 -4 3 -11t3 -13q-6 -43 -35 -82t-64 -62q-27 -2 -50 -5t-46 -13l2 2q-31 -8 -70.5 -25.5t-64.5 -17.5z" />
<glyph unicode="c" horiz-adv-x="1140" d="M41 608q0 -84 8 -162.5t31 -152.5q20 -74 64 -134.5t102.5 -103.5t128 -65.5t143.5 -22.5h21q70 0 134 30t121.5 78t108.5 109.5t98 124.5q33 35 48.5 83t15.5 95q0 49 -17.5 93.5t-48 77t-71.5 51t-88 18.5h-13q-66 -18 -99.5 -73.5t-63 -116t-70.5 -110.5t-119 -58 q-43 2 -69.5 27.5t-42 65.5t-20.5 87t-5 94q0 49 7 116.5t27.5 134.5t57.5 124t96 86l-2 -2q20 6 37 6q39 0 64.5 -23.5t49 -51t52.5 -50t74 -22.5q51 0 103 27.5t93 72.5t69 101.5t34 115.5v14q0 59 -23.5 104.5t-50.5 86.5l2 -2q-20 45 -56 54t-75 9h-27q-20 0 -40.5 2 t-36.5 10l2 -2q-41 25 -86 25q-82 0 -165 -42t-157 -107.5t-134 -147.5t-99 -164q-53 -111 -78 -228.5t-35 -230.5v-51z" />
<glyph unicode="d" horiz-adv-x="1173" d="M41 164q0 -25 4 -53.5t14.5 -52t26.5 -39t43 -17.5l86 -12h-2q55 -10 112.5 -16.5t120.5 -6.5q68 0 136.5 17.5t133 53.5t121 91t99.5 131q86 150 141.5 317.5t55.5 348.5v8q0 123 -27 233.5t-76 202.5v-2q-41 92 -114.5 131t-163.5 39q-68 0 -138.5 -18.5t-132.5 -53.5 h2q-59 -29 -123.5 -58.5t-111.5 -53.5l-4 -2q-41 -16 -76 -65.5t-37 -102.5q-35 -225 -50 -440.5t-28 -432.5q-4 -37 -8 -68.5t-4 -66.5v-12zM342 387v8q0 145 12.5 298t32.5 306l-2 -4q6 20 25.5 32.5t38.5 19.5l-3 -3q43 12 86 13q43 0 79.5 -16.5t56.5 -57.5 q24 -100 24 -210v-9q0 -55 -9 -115.5t-31.5 -116t-60.5 -98.5t-95 -63q-27 -16 -60 -27.5t-61 -11.5q-14 0 -23.5 17.5t-9.5 37.5z" />
<glyph unicode="e" horiz-adv-x="1181" d="M41 152q0 -47 25.5 -88t66.5 -48h41q63 -8 143 -27.5t170 -19.5q41 0 83 5.5t89 9.5h111q70 0 136.5 41.5t101.5 117.5q12 31 23 65t11 68q0 57 -45 93.5t-98 36.5q-20 0 -41.5 -7.5t-47.5 -14.5t-55.5 -14.5t-68.5 -7.5q-25 0 -51.5 3.5t-52.5 3.5h-23q-45 -4 -88 -15.5 t-84 -11.5q-23 0 -34 11.5t-16 24.5t-6 23.5t-1 8.5v6q4 35 14 70.5t39 52.5q47 8 98 26.5t92 18.5h29q6 0 12.5 -1t12.5 -1q45 0 86 21.5t74.5 57t56 83t28.5 96.5v-2q2 8 2 28q0 68 -44 101.5t-101 33.5q-37 0 -72 -14h2q-53 -18 -101 -35.5t-95 -33.5l2 2l-27 -9 q-16 -4 -24 -4q-8 4 -10.5 15.5t-2.5 23.5v8q0 51 23 101l-2 -2q18 31 47 48t61.5 28.5t67.5 17.5t66 14q35 8 70.5 18.5t86.5 26.5l-2 -2q47 8 103.5 36t104.5 71t81 99t33 120v18q0 49 -24.5 86t-76.5 37h-6q-88 -12 -175 -38.5t-171 -61.5t-164 -74t-151 -76 q-35 -16 -71 -30.5t-77 -24.5l-12 -8q-41 -33 -62.5 -84t-31.5 -103q-39 -262 -54.5 -512.5t-23.5 -500.5v-6z" />
<glyph unicode="f" horiz-adv-x="978" d="M41 174q2 -68 43 -119t94 -59h10q4 2 15 2v-8q68 39 99.5 108.5t33.5 134.5v150q0 68 24.5 105.5t63.5 58t87 29t95 14.5q43 6 91 28.5t88 58.5t67 83t29 104v10q0 80 -51.5 114t-116.5 34q-37 0 -66 -6t-59.5 -17.5t-68.5 -26t-93 -28.5h2l-12 -2q-6 2 -9.5 15.5 t-3.5 25.5v8q0 6 3 10v-2q6 37 31.5 65t57 48.5t61.5 32.5t46 18q31 8 80 19.5t107.5 29t120 45t114.5 70.5q45 37 70.5 87t29.5 102q0 66 -34.5 111.5t-96.5 45.5q-23 0 -50.5 -8t-58 -18.5t-60 -21.5t-52.5 -19v2q-76 -25 -153.5 -54.5t-154.5 -69.5t-149.5 -90.5 t-138.5 -115.5q-25 -33 -39 -80t-14 -82q-35 -240 -53.5 -472t-28.5 -466v-4z" />
<glyph unicode="g" horiz-adv-x="1136" d="M41 592q0 -111 27.5 -220.5t84 -195.5t141.5 -139t200 -53h22q84 0 156.5 34.5t136 92t117 133t100.5 157.5h-2q35 66 41 115t6 90v2q2 10 3 22.5t1 26.5q6 49 6 117q0 45 -6 88t-24.5 77t-50 54.5t-80.5 20.5h-5q-76 -10 -145.5 -22.5t-132.5 -28.5h2q-41 -4 -87 -24.5 t-84 -53.5t-62.5 -77t-24.5 -97l2 -45q8 -70 59.5 -99.5t112.5 -29.5q33 0 61 6q10 0 18.5 -9.5t10.5 -21.5q-10 -57 -54 -93t-89 -44q-53 4 -95 40t-57 93v-2q-8 59 -14 115.5t-6 115.5v37q2 55 26.5 127t61.5 134.5t82 106.5t92 44q31 0 56.5 -18.5t52 -40t58.5 -39 t75 -17.5t86 24.5t79.5 63.5t62 87t34.5 95q0 45 -26 85t-64.5 73t-86 58.5t-92.5 41.5h2q-23 10 -44 14.5t-44 4.5q-80 0 -160.5 -42t-155.5 -108.5t-138.5 -148.5t-104.5 -162q-70 -133 -105.5 -281.5t-35.5 -283.5z" />
<glyph unicode="h" horiz-adv-x="1140" d="M41 217q0 -31 5 -64.5t17.5 -63.5t33 -50.5t50.5 -24.5h5q8 -2 20 -2q31 0 58.5 17.5t48 46t32 65.5t11.5 76v16q0 4 1 6.5t1 6.5v43q0 41 -3.5 84t-3.5 84q0 66 46.5 99.5t103.5 47.5t107.5 16.5t58.5 4.5q25 -41 24 -97q0 -61 -13 -126.5t-13 -125.5q0 -41 10 -80.5 t30.5 -71.5t51.5 -52.5t74 -20.5h18q55 4 109.5 40t68.5 102q45 326 76 661.5t31 671.5v45q0 23 -2 45q0 4 1 7t1 7q0 47 -29 77t-74 30q-29 0 -59 -15l2 2q-47 -12 -89 -44.5t-75 -75.5t-52 -93.5t-19 -95.5v-8q-2 -10 -3 -23v-20q0 -47 6.5 -89t6.5 -89v-17q0 -6 -2 -16 v-18q0 -55 -21.5 -95.5t-56.5 -66t-78 -39.5t-84 -16h-51q-4 0 -5 -1.5t-5 -1.5q-14 0 -21.5 16.5t-7.5 39.5q0 70 12.5 133t12.5 131q0 35 -7.5 67.5t-21.5 58t-35.5 41t-50.5 15.5q-27 0 -57.5 -16.5t-58 -45t-47 -66.5t-26.5 -79v-20q-16 -240 -31.5 -477.5t-31.5 -470.5 v-25z" />
<glyph unicode="i" horiz-adv-x="796" d="M41 197q2 -35 13.5 -71t39.5 -75h-2q4 -6 12 -14l25 -25v15q12 -4 18 -4h13q39 0 71.5 10t63.5 10q35 -4 76 -11t84 -7h14q43 4 84 22.5t76 48t57.5 71.5t28.5 91v14q0 31 -12.5 54.5t-32 39t-43 25.5t-45.5 17l2 -2l-6 2q-33 12 -51.5 30.5t-26.5 43t-9.5 53t-1.5 59.5 v27q6 121 29 245.5t29 257.5v54q10 35 44 55t70.5 41.5t65.5 51.5t29 85v25q-4 29 -12.5 58.5t-22.5 53t-35.5 39t-52.5 15.5h-8t-15 -5l4 2q-31 -4 -56.5 -12t-53 -18t-59 -22.5t-74.5 -22.5q-41 -10 -82 -38t-76 -69t-59.5 -91t-28.5 -105q0 -33 11 -53.5t29.5 -33 t40 -19.5t40.5 -11q6 -53 6 -113v-41q-8 -92 -16.5 -181t-12.5 -181q0 -39 3 -79t3 -79q-4 -35 -31.5 -53.5t-50.5 -30.5h3q-41 -14 -75 -53t-34 -92v-4z" />
<glyph unicode="j" horiz-adv-x="927" d="M41 455q0 -82 27.5 -166t76 -151.5t110.5 -110.5t132 -43q111 0 189.5 74.5t131 188t79 246t30.5 246.5l6 154q4 104 11.5 193.5t27.5 183.5q8 35 14.5 71.5t10.5 77.5v11q-4 76 -47 126t-111 50h-6q-10 0 -26.5 -3.5t-34.5 -15.5l2 2q-10 -6 -22.5 -13t-25.5 -20v3 q-66 -59 -99.5 -144.5t-33.5 -159.5v-24q0 -47 3 -92t3 -92v-33q-6 -53 -6 -117q0 -47 2 -95t2 -95q0 -55 -4 -106.5t-15 -95.5t-31.5 -78t-55.5 -52l-12 -6q-27 6 -37 37.5t-13.5 75.5t-4.5 92.5t-10 89.5t-31.5 67.5t-67.5 26.5q-47 0 -78 -32t-49.5 -76t-26.5 -93 t-10 -86v-16z" />
<glyph unicode="k" horiz-adv-x="1040" d="M41 242q0 -31 8 -63t21.5 -59.5t34 -46t49.5 -24.5h14q33 0 55.5 20.5t36.5 52.5t21.5 68.5t7.5 69.5v100q0 61 7 130t46 120q47 -41 86 -97t70.5 -121.5t59.5 -138.5t52 -147q8 -20 18.5 -41.5t26 -40t35 -29.5t45.5 -11h13q45 10 79.5 38.5t59 68.5t38 87t13.5 90 q0 16 -4 31.5t-14 34.5q-27 80 -70 145t-90 131q-55 72 -101.5 148t-56.5 172q20 76 72.5 133t111 112.5t112.5 119t77 149.5h-2q10 31 16 57.5t10 57.5v6q0 51 -28.5 84.5t-75.5 33.5q-57 0 -122.5 -56t-130 -137t-121 -170t-95.5 -155q-29 -49 -56.5 -95t-56.5 -87 q-2 10 -2 18v21q8 63 26.5 137t18.5 156q0 49 -21.5 87t-62.5 38q-25 0 -47 -15h2l-10 -4q-31 -14 -55.5 -41.5t-43 -62.5t-27.5 -73t-9 -70v-9q-4 -35 -4 -71v-72v-84q-16 -176 -24.5 -348t-12.5 -348z" />
<glyph unicode="l" horiz-adv-x="1011" d="M41 139q0 -61 39 -95t97.5 -50.5t125 -20.5t119.5 -4h131q68 0 141.5 6.5t135 32t100.5 76.5t39 139q0 4 1 10.5t1 10.5q0 63 -41 113.5t-103 50.5q-27 0 -56.5 -8.5t-61 -19.5t-61.5 -19.5t-56 -8.5q-8 0 -32.5 4t-47.5 4h-16q-35 -4 -62.5 -11t-56.5 -7q-23 0 -41 8 q-4 51 -6 102.5t-2 102.5q0 184 19.5 367.5t45.5 373.5v-2l4 33q0 49 -25.5 70.5t-64.5 21.5q-68 0 -110.5 -42t-69.5 -102.5t-38 -126t-13 -112.5q-6 -63 -7 -127.5t-1 -128.5v-100q0 -98 -2.5 -192.5t-12.5 -192.5q-4 -39 -8 -76t-4 -80z" />
<glyph unicode="m" horiz-adv-x="1390" d="M41 186q0 -39 10 -78.5t28.5 -72.5t45.5 -53.5t61 -20.5h7q4 0 5 -1t5 -1q41 0 63.5 42t22.5 89v41q0 35 -2 71t-2 70q0 35 3 74t17 68q16 -55 17 -115q0 -59 5 -115.5t24.5 -106.5t76.5 -87q18 -10 35.5 -16.5t38.5 -6.5h10q86 16 133 74.5t77 137.5t56.5 167t73.5 162 q8 -18 8 -47q-16 -78 -40.5 -142.5t-31.5 -125.5l-2 -11q0 -4 -1 -10t-1 -10q0 -35 15.5 -68t41 -57.5t58.5 -38.5t68 -14h12q41 0 86 27.5t90 72.5h-8q72 94 102.5 201.5t30.5 224.5q0 137 -25 260q-4 16 -4 33v33q0 70 13.5 146.5t31 156.5t34 162.5t20.5 164.5v23 q0 45 -9.5 86t-31 71.5t-57 49t-91.5 18.5q-33 0 -68.5 -8t-70.5 -27h2l-25 -8q-2 -2 -4 -2h-2q-45 -16 -86 -49t-72.5 -76t-52 -91t-26.5 -93v4q-18 -88 -34.5 -195.5t-55.5 -199.5q-14 -29 -23.5 -57.5t-19.5 -57.5l-2 -4q-16 -35 -28.5 -70t-33.5 -67q-25 72 -35 150.5 t-18 159.5t-18.5 161t-34.5 153v2q-10 33 -32 46.5t-48 13.5q-47 0 -96.5 -31t-89.5 -80t-66.5 -111.5t-28.5 -123.5v2q-6 -53 -7 -105.5t-1 -105.5v-187v-53q0 -27 -2 -53v-23q-4 -78 -22.5 -163.5t-18.5 -178.5z" />
<glyph unicode="n" horiz-adv-x="1146" d="M41 295q0 -51 3 -102.5t15.5 -92.5t38 -67.5t72.5 -28.5q31 0 65.5 19.5t71.5 62.5h-10q16 31 24.5 66.5t12.5 72.5v27q0 55 -7.5 108.5t-7.5 108.5v47v21q0 12 5 20q18 -4 32.5 -27.5t28.5 -50.5v-2q0 2 10.5 -22.5t24.5 -57t28.5 -66.5t22.5 -52q25 -66 47.5 -121.5 t51 -96.5t69.5 -64.5t102 -23.5h4q59 0 112.5 39t76.5 101q49 152 79.5 305t47 310t25 313.5t14.5 314.5l6 147v6q0 59 -36 86t-83 27q-41 0 -84 -18l2 2q-53 -14 -95 -50t-71.5 -83.5t-46 -100.5t-16.5 -100q0 -76 14.5 -145.5t14.5 -141.5v-4q0 -10 -1.5 -36.5t-5.5 -58.5 t-13 -65t-23 -57q-23 6 -37.5 21.5t-24.5 35t-19.5 43t-21.5 43.5q-35 66 -63.5 136.5t-40.5 152.5q-10 68 -52.5 109t-99.5 41q-39 0 -73.5 -20.5t-60.5 -53.5t-43 -75t-24 -85q-25 -193 -43 -380t-18 -374v-63z" />
<glyph unicode="o" horiz-adv-x="1202" d="M41 559q0 -113 23.5 -222.5t72.5 -195.5t126 -138t186 -52q113 0 215 48t186 132t146.5 196.5t97.5 241.5q33 111 50 237t17 243q0 98 -22.5 188t-67.5 159.5t-112.5 111.5t-157.5 44h-25q-104 0 -205.5 -43t-187.5 -115.5t-153.5 -170t-106.5 -205.5 q-41 -117 -61.5 -233.5t-20.5 -225.5zM307 565q2 31 4 85.5t10.5 116.5t23.5 125.5t46 116t77 85t114 32.5q59 0 103 -38.5t50 -110.5q2 -25 3 -48.5t1 -47.5q0 -82 -12 -169t-42 -161t-78 -125t-122 -61h-49q-59 14 -92 71.5t-37 128.5z" />
<glyph unicode="p" horiz-adv-x="1134" d="M41 254q0 -25 1 -46.5t5 -43.5h-2q4 -29 10 -58.5t16.5 -57.5t27 -49.5t40.5 -29.5l4 27l2 -29q8 -6 25 -6h14q37 0 64.5 24.5t46 61.5t28 80t9.5 82v108q0 43 4 87.5t22 82.5h15q78 0 170 29t181 84t169 137t135 191v2q29 59 45.5 119.5t20.5 119.5v15q0 80 -27 140 t-70 104.5t-97 73t-112 44.5v-2q-29 10 -63 10q-41 0 -76 -9t-71.5 -22.5t-76.5 -29.5t-89 -31q-2 -2 -5.5 -3t-5.5 -3h2q-8 -4 -13 -5t-9 -5l2 2q-82 -47 -160 -117.5t-119 -185.5v-2q-6 -150 -24.5 -298.5t-18.5 -297.5q-4 -66 -10 -131.5t-10 -130.5v-31zM379 903 q0 25 3 52.5t12 53t24.5 48t40.5 35.5l28 4q29 4 57.5 14t57.5 10q18 0 31.5 -11t13.5 -34v-18q0 -27 -8 -54.5t-23.5 -51t-36 -40t-44.5 -18.5l-5 -2l-14 -4q-20 -8 -38.5 -12.5t-39.5 -10.5h2q-12 -4 -25.5 -8t-21.5 -4h-8q-2 2 -2 6v6l2 -2q-2 10 -4 26z" />
<glyph unicode="q" horiz-adv-x="1185" d="M41 551q0 -111 25.5 -216.5t80 -187t138.5 -131t198 -49.5q39 2 80 8.5t82 22.5q35 -35 81 -57.5t97 -22.5q33 0 68 9.5t63.5 28.5t50 48t29.5 68v6q-8 57 -27.5 105t-41.5 96l-2 4q104 178 143 351t39 327q0 111 -22.5 220t-70.5 196t-124 140.5t-183 53.5 q-127 0 -238.5 -67.5t-200.5 -173t-150.5 -234.5t-85.5 -252q-16 -72 -22.5 -146.5t-6.5 -146.5zM311 608q0 53 9.5 129t34 148.5t69.5 131t117 79.5l18 6q10 4 33 6q33 0 59.5 -17.5t47 -45t32.5 -63.5t17 -75v-14v-16q-1 -9 -3 -19q0 -53 -9 -113.5t-25 -117.5 q-27 16 -55.5 25.5t-59.5 9.5q-35 0 -68.5 -11.5t-62.5 -34t-46.5 -56.5t-17.5 -79v-10q0 -29 1 -55.5t6 -53.5q-57 29 -77 98.5t-20 147.5z" />
<glyph unicode="r" d="M41 571q0 -80 2 -161.5t2 -159.5q-2 -10 -2 -21v-20q0 -39 7 -75t21.5 -63.5t37 -44t51.5 -16.5q66 0 112.5 44t46.5 114q0 82 -8 140.5t-8 113.5q0 8 7 27.5t20.5 40t33 36t46.5 15.5q35 0 60.5 -28t43.5 -66.5t30.5 -80.5t20.5 -69q8 -29 22.5 -74t36 -88t51.5 -74.5 t68 -31.5q47 0 93.5 22.5t82 59t57 85t21.5 97.5q0 55 -16 100t-37.5 86t-46.5 83t-39 89q8 39 29.5 75t46 72t49.5 69.5t43 68.5q41 78 78 161t41 167q0 66 -15.5 107.5t-37.5 76.5v2q-49 78 -126 112.5t-167 34.5q-66 0 -133.5 -16t-128.5 -51q-53 -25 -98.5 -48.5 t-85.5 -48t-77.5 -48t-78.5 -44.5q-29 -16 -50.5 -43.5t-37 -61.5t-23.5 -72t-8 -72q-4 -133 -20.5 -260t-16.5 -261zM336 924q6 47 13 83.5t30 63.5q70 10 129 43t121 55q12 6 26 7q23 0 35 -18.5t12 -47.5v-20q-8 -55 -44.5 -92t-81 -60t-87.5 -32t-63 -9q-39 0 -90 27z " />
<glyph unicode="s" horiz-adv-x="1105" d="M41 315q0 -66 23.5 -115.5t62.5 -87.5t87 -62.5t95 -37.5h-2q66 -20 137 -22q88 4 184.5 41t180.5 103.5t146.5 161.5t84.5 216v35q0 92 -25.5 169t-60.5 148q-43 88 -112.5 117t-151.5 29q-53 0 -106.5 -6.5t-106.5 -6.5q-29 0 -55.5 10.5t-26.5 53.5q6 29 23.5 48 t41 30.5t48 16.5t43.5 5q51 0 95 -24.5t73 -67.5l4 -4q39 -45 90 -45q31 0 64.5 12t64.5 36t56.5 55.5t41.5 68.5l2 2q10 29 16.5 60.5t6.5 62.5q0 76 -24.5 129t-65.5 86t-94.5 47t-110.5 14q-119 0 -244 -59t-226 -158.5t-165.5 -228.5t-64.5 -268q0 -29 4 -51.5t8 -45.5 l6 -30q6 -29 31.5 -54.5t64.5 -47t84 -40t88 -30.5q39 -12 69 -16.5t58 -4.5q16 0 34 1t36 1q33 0 42 -30.5t9 -59.5q-2 -49 -38 -81t-74 -34h-11q-43 0 -77.5 21.5t-68.5 48.5t-68 52.5t-72 31.5q-2 0 -9 8l-24 -4q-27 -4 -49.5 -20.5t-38 -42t-24.5 -56t-9 -61.5v-19z" />
<glyph unicode="t" horiz-adv-x="1019" d="M41 1071q0 -59 36 -81.5t79 -22.5q31 0 58.5 7t55.5 7q29 0 35 -20q4 -41 6 -84t2 -86q0 -137 -14 -272.5t-14 -272.5q0 -45 4 -96.5t19.5 -95.5t45 -72.5t82.5 -28.5h21q45 0 75.5 27.5t49 69.5t26.5 91t10 92q6 166 9 328t10 328q6 47 14 92t29 86l-2 -2q20 33 46 52.5 t53.5 31.5t58 22.5t61.5 24.5q57 14 112.5 44t97.5 73t68.5 100t30.5 125q0 31 -9 52.5t-23 43.5l-3 2q-25 27 -56.5 37t-67.5 10q-35 0 -73 -8t-77 -20q-66 -18 -140.5 -49t-149.5 -65t-142.5 -64.5t-116.5 -46.5q-25 -8 -48.5 -16.5t-47.5 -22.5q-37 -16 -75 -51 t-68.5 -80.5t-49 -94.5t-18.5 -94z" />
<glyph unicode="u" d="M41 455q0 -90 24.5 -178.5t69.5 -159t110.5 -116.5t147.5 -50q59 0 118.5 17.5t119.5 41.5l-2 -2q98 27 175 98.5t129 168t78.5 207t28.5 218.5v-2q10 132 10 262v12q0 15 -1 31q0 121 4 244v-2q10 63 11 126t17 130l4 4l7 58q0 27 -9.5 42t-25 24t-34.5 14.5t-38 9.5 l-18 6q-10 2 -37 2q-37 0 -79 -17.5t-77 -47t-60.5 -69.5t-27.5 -85v2l-2 -8q2 -47 3 -95.5t1 -95.5q0 -160 -12 -322.5t-41 -326.5q-8 -43 -21.5 -88t-35 -83t-52 -63.5t-71.5 -27.5l-31 2h4l-10 6q-27 14 -44.5 40t-27.5 56.5t-14 66.5t-4 70q0 78 10 153t21.5 151.5 t21.5 156.5t10 166q0 35 -6 69t-18.5 60.5t-33 43t-46.5 16.5q-29 0 -56 -19v2q-59 -33 -102 -101.5t-49 -144.5v-22q0 -45 6 -84v2q2 -10 3 -22.5t3 -24.5l-4 -21q-6 -125 -26.5 -250.5t-20.5 -250.5z" />
<glyph unicode="v" horiz-adv-x="1128" d="M41 1049q0 -111 19.5 -214.5t45 -204t50 -202.5t32.5 -209q4 -49 24.5 -93t53.5 -78t73 -54.5t83 -22.5q63 2 120.5 40t90.5 106q143 297 274 635t226 706l4 4v19q0 103 -41 157q-45 60 -117 60q-39 0 -86 -23.5t-89 -62.5t-72 -88t-36 -99q0 -35 8.5 -54t8.5 -42v-8 q-37 -201 -111 -388.5t-162 -354.5q-35 125 -55 203.5t-30.5 127.5t-14.5 79t-4 54v15q0 39 12 70.5t12 66.5q0 68 -31.5 115t-84.5 47q-12 0 -27.5 -4t-32.5 -15l2 2q-76 -33 -110.5 -112.5t-34.5 -177.5z" />
<glyph unicode="w" horiz-adv-x="1433" d="M41 1024q0 -20 2 -31q16 -180 38.5 -358t49.5 -365q6 -45 15.5 -94t24.5 -92t40 -72.5t61 -36.5q57 4 103.5 46t81.5 96q18 31 26.5 68.5t14.5 74.5t16 72t33 59q4 -6 4 -14v-19q0 -61 4 -133.5t21.5 -135t54.5 -104.5t104 -42q96 14 157.5 71.5t101.5 136t65.5 170 t52.5 173.5q47 147 99.5 300.5t123.5 319.5q47 109 90 227.5t43 233.5q0 31 -11 54.5t-23 43.5l-121 56q-18 0 -38 -4.5t-40 -14.5q-88 -37 -143.5 -111.5t-89 -160.5t-51 -169t-27.5 -139q-14 -59 -32 -116.5t-56 -120.5q-6 29 -8.5 58.5t-2.5 62.5q0 70 -3 128 q-1 25 -1 53q0 37 2 79q0 82 -10 140.5t-63 74.5q-23 10 -54 10q-61 0 -107 -30.5t-79 -79t-55.5 -107.5t-37 -117.5t-22.5 -107.5t-14 -76q-10 -49 -16.5 -100.5t-18.5 -98.5q-12 41 -15 87t-3 94q0 49 -2 110.5t-11.5 113.5t-32 88t-61.5 36q-37 0 -68.5 -24.5t-55 -62.5 t-38 -83t-16.5 -84q-2 -12 -2 -33z" />
<glyph unicode="x" horiz-adv-x="1040" d="M41 215q0 -63 35 -114.5t90 -51.5q45 0 76.5 26.5t56.5 64.5t47.5 81t50.5 76q14 20 31.5 41.5t38.5 38.5q37 -53 64.5 -118.5t60.5 -124t82 -97.5t129 -39l10 2q39 0 69.5 19.5t51 49t32 66.5t11.5 74q-1 53 -21 106q-29 66 -68.5 119t-83.5 101.5t-85 98.5t-70 109 q29 57 62.5 114.5t74.5 107.5l50 73q55 82 104 170t59 187v20q0 33 -9 63.5t-25.5 55.5t-42 39t-56.5 14q-43 0 -83 -23.5t-74.5 -61.5t-63.5 -84t-51.5 -90t-38.5 -80t-23 -54q-23 -51 -45 -98t-53 -88q-35 35 -60.5 84t-49 95t-51 78.5t-64.5 32.5q-16 0 -23 -2v7 q-8 -4 -14 -10.5t-14 -10.5l-4 -4q-45 -41 -76 -95.5t-33 -105.5v-12q0 -74 23.5 -132.5t62.5 -101.5h-2l47 -47q25 -23 47.5 -48t26.5 -66q-18 -31 -37.5 -70l-40 -80t-39 -80t-35.5 -67q-20 -33 -36.5 -67t-20.5 -75v-16z" />
<glyph unicode="y" horiz-adv-x="985" d="M41 1116q0 -43 12.5 -75.5t32.5 -57.5q29 -39 60.5 -85t57 -98t43 -110.5t17.5 -122.5q0 -72 -10 -139.5t-14 -136.5v-17q0 -16 -1 -30.5t-1 -30.5q0 -29 2 -54.5t8 -47.5v2q12 -53 49 -85t84 -32h18q49 0 87 29.5t62.5 74.5t37 99.5t12.5 103.5q0 76 -11.5 145.5 t-11.5 141.5v18q14 82 50.5 158t85.5 148.5t103 145.5t106 148q57 84 108 175.5t53 187.5v10q0 47 -21.5 87t-78.5 58v-2q-10 2 -20.5 3.5t-20.5 1.5q-43 0 -78 -17.5t-63.5 -45.5t-52 -59.5t-41.5 -62.5l2 2q-43 -59 -70 -125.5t-52.5 -131t-57 -123t-85.5 -101.5 q-23 0 -39 48t-40.5 106.5t-62.5 106.5t-99 48l-33 -20v2q-47 -39 -85 -97.5t-42 -125.5v-17z" />
<glyph unicode="z" horiz-adv-x="1110" d="M41 182q0 -102 62.5 -157.5t148.5 -55.5q59 0 114.5 9.5t114.5 9.5h13q35 0 73.5 -11.5t77.5 -11.5q35 0 65.5 14.5t84.5 26.5q63 14 115.5 63.5t76.5 118.5l2 2q4 12 4 25q0 12 6 25v12q0 49 -21.5 79.5t-54 49t-73.5 25t-78 6.5q-35 0 -77 -5.5t-85 -14.5t-84 -22.5 t-73 -29.5q29 45 65.5 100.5t76.5 113.5t80 117.5t75 116.5h-5q14 25 31 49.5t33 47.5v-8q37 55 81 113.5t83 121t65.5 130t30.5 138.5v21q0 80 -40 137t-111 68h-21q-59 0 -107.5 -11.5t-96.5 -32t-103 -49t-127 -61.5q-31 -10 -69 -17.5t-79 -27.5q-39 -18 -75.5 -53 t-65.5 -78t-46 -89t-17 -87q0 -66 37.5 -94.5t89.5 -28.5q25 0 52 6t50 18h-2q61 23 119.5 49.5t117.5 55.5q-111 -203 -219 -380t-221 -325q-35 -41 -63.5 -91t-30.5 -115v-13z" />
<glyph unicode="{" horiz-adv-x="800" d="M43 784q0 -43 13.5 -64.5t34 -32.5t44 -18t43.5 -26q14 -29 18.5 -59.5t4.5 -63.5q0 -20 -1 -39.5t-1 -40.5q0 -61 12 -128.5t42 -129t78 -108.5t120 -66q10 -4 19 -7t19 -3q39 0 76 16.5t67 45t50.5 67.5t26.5 82q2 6 2 12v15q0 53 -33 95t-80 42q-8 0 -25 -4h-12 q-12 0 -24.5 2t-20.5 10h2q-29 8 -44 35.5t-15 60.5v17q0 25 2 47t4 47q-2 12 -2 24v27q0 29 1 56.5t1 56.5q0 35 -5 65.5t-22 59.5l-10 16q41 72 61.5 162t28.5 164q-2 14 -2 26v29v96q-2 8 -2 23q0 59 38 105t84 91t84 92.5t38 110.5v8q0 59 -34 94t-83 35q-20 0 -41 -6 l-27 -14l2 2q-25 -14 -48 -26.5t-48 -18.5q-47 -35 -90 -101.5t-75.5 -143.5t-51 -154.5t-18.5 -137.5q0 -35 7 -65.5t7 -65.5v-18q0 -47 -16.5 -80t-40 -59.5t-51 -49t-51 -49.5t-40 -60.5t-16.5 -80.5v-17z" />
<glyph unicode="|" horiz-adv-x="428" d="M43 461q14 -27 19.5 -57.5t9.5 -61.5v-8q0 -47 -11.5 -93t-13.5 -94q2 -25 5 -51t9.5 -52t16.5 -47.5t31 -37.5q16 0 32.5 4t32.5 10h8q43 0 78 38t37 91q20 188 29.5 378t15.5 381.5t14.5 384t30.5 386.5v8q-4 35 -14.5 70t-26.5 61.5t-40.5 43t-55.5 16.5 q-29 0 -52.5 -18.5t-42 -46t-31.5 -59.5t-22 -58q-8 -213 -19 -424t-17 -422q0 -25 14 -43.5t16 -44.5q-2 -29 -11 -57.5t-18.5 -56.5t-16.5 -55.5t-7 -56.5v-28z" />
<glyph unicode="}" horiz-adv-x="800" d="M43 172q0 -61 35 -108.5t82 -57.5l20 2q12 4 23.5 5t23.5 1h37q47 14 88 61.5t73 111t51.5 134t25.5 134.5v8q0 41 -7.5 79t-7.5 79v16q14 80 46 120t92 74q53 35 93 90.5t40 120.5v13q0 4 1 9t1 9q0 49 -20.5 69.5t-49 29t-60.5 14.5t-52 24q-14 29 -17.5 59.5 t-3.5 65.5v76q0 37 -4 85t-23 77v-2q-4 102 -61 158.5t-137 56.5q-47 0 -93 -23.5t-82 -63.5t-58.5 -92.5t-22.5 -109.5q0 -41 20.5 -67.5t50.5 -26.5q12 0 25.5 8t28.5 8q8 0 15 -2t15 -4l17 -2h-2q41 -16 41 -70q0 -27 -2 -55.5t-4 -54.5q2 -10 2 -21v-20q0 -29 -2 -58.5 t-2 -58.5q0 -41 6 -76.5t26 -64.5q-39 -66 -57 -149t-23 -150v-72v-37q0 -16 2 -35q-2 -49 -22.5 -97t-61 -66.5t-73.5 -56.5t-33 -93v-4z" />
<glyph unicode="~" horiz-adv-x="1273" d="M43 1118q0 -45 25.5 -69.5t60.5 -24.5q37 0 62.5 26.5t48 57.5t49 57.5t65.5 26.5q18 0 35 -8t33 -18.5t32.5 -19.5t37 -11t40 -3.5t39.5 -1.5q76 0 154 34t152.5 91.5t143.5 132t128 158.5q23 35 48.5 72t33.5 78v6q0 66 -44 101.5t-104 35.5q-43 0 -71.5 -17.5t-50 -44 t-38 -58t-34.5 -62.5q-25 -27 -54.5 -55.5t-60.5 -52t-62.5 -39t-60.5 -15.5q-31 0 -55.5 15.5t-50.5 25.5q-29 4 -54.5 10t-54.5 6q-51 0 -101 -29.5t-96 -74.5t-87 -97.5t-76 -97.5q-12 -29 -18.5 -59.5t-14.5 -60.5v-15z" />
<glyph unicode="&#xa1;" horiz-adv-x="712" d="M-100 -340q2 -8 2 -16q0 -9 2 -17q18 -29 45.5 -50t62.5 -21q43 0 86 28.5t84 69.5t78 87t66 81h-2q47 59 96 109.5t84 115.5l-2 10q-8 45 -11.5 92.5t-3.5 96.5q0 156 17.5 312.5t34.5 309.5q-8 47 -35 88t-74 41q-20 0 -35.5 -7t-34.5 -15q-96 -139 -159.5 -296 t-110.5 -325t-90 -343t-100 -351zM195 1366q0 -4 1 -9t1 -11l2 4q2 -55 22.5 -101.5t53 -78t73.5 -50t84 -18.5q18 0 41 4t46.5 14t42 27.5t26.5 44.5v14q2 39 20.5 70t40 59.5t37.5 58t16 68.5v35q-16 33 -33.5 67.5t-39 65.5t-49 54.5t-62.5 33.5q-27 -23 -54.5 -35 t-55.5 -28v2q-37 -12 -75 -37t-69 -58.5t-49 -77.5t-18 -95v-5q0 -4 -1 -9t-1 -9z" />
<glyph unicode="&#xa2;" horiz-adv-x="1120" d="M39 811q0 -84 8 -163t31 -152q37 -129 132 -212t218 -106v-20q0 -8 2 -19q-4 -37 -13 -72.5t-9 -72.5q0 -59 33.5 -108.5t86.5 -59.5q25 0 60 23.5t67.5 61.5t56 86t23.5 95q0 33 -3 67t-7 68q78 47 146.5 124t127.5 161q33 35 48.5 83t15.5 95q0 49 -17.5 93t-48 77 t-71.5 51.5t-88 18.5h-13q-66 -18 -99.5 -73.5t-63 -116t-70.5 -110.5t-119 -59q-43 2 -69.5 28t-42 66t-20.5 87t-5 94q0 49 7 116.5t27.5 134t57.5 124t96 86.5l-2 -2q20 6 37 6q39 0 64.5 -23.5t49 -51.5t52.5 -50.5t74 -22.5q51 0 103 28t93 73t69 101t34 116v14 q0 59 -23.5 104.5t-50.5 86.5l2 -3q-20 45 -56 54.5t-75 9.5h-27h-28t-29 4q2 8 2 14q0 8 2 17q-4 29 -6 55.5t-2 54.5q0 10 1 17.5t1 17.5q-4 51 -30.5 87t-69.5 36q-27 0 -65 -22.5t-73.5 -57.5t-60.5 -78t-25 -86q0 -25 1 -48t1 -48q-53 -33 -102 -78t-92 -96t-79 -106.5 t-62 -108.5q-53 -111 -78 -228.5t-35 -230.5v-51z" />
<glyph unicode="&#xa3;" horiz-adv-x="1191" d="M-25 698q0 -59 25 -111t68 -75q-4 -86 -15.5 -169t-11.5 -167q0 -41 16.5 -75.5t46.5 -49.5q86 -39 184.5 -50t203.5 -13h34q94 0 192.5 6t205.5 16q49 4 90 26.5t71.5 59.5t47 83t16.5 100q2 6 2 12v14q0 33 -12.5 64.5t-33 56.5t-48 40t-60.5 15q-39 0 -75.5 -10 t-73.5 -22.5t-73 -22.5t-73 -10q-25 0 -49 5t-47 5q-45 0 -88 -11.5t-86 -11.5q-35 0 -72 17q-4 29 -6 60.5t-4 62.5q35 4 68 6t67 2q8 0 15.5 -1t15.5 -1h6q31 10 60.5 34.5t53 58.5t37 72t13.5 72q0 31 -14 64h2q-31 59 -84 87t-113 28q-35 0 -64.5 -9.5t-58.5 -19.5 q2 27 4 52.5t4 53.5h9q29 0 56.5 -2t55.5 -2q113 0 174.5 70.5t61.5 181.5v29q0 78 -42 134t-110 56q-18 0 -28 -2l-21 -6q-29 -12 -56.5 -23.5t-53.5 -21.5q4 41 10 83t12 83l4 35q0 47 -25.5 69.5t-60.5 22.5q-72 0 -119 -42t-75.5 -103.5t-44 -133t-21.5 -131.5 q-39 -35 -63.5 -92t-24.5 -104t20.5 -80t53.5 -49v-105q-47 -23 -73 -76t-26 -118v-17z" />
<glyph unicode="&#xa5;" horiz-adv-x="1335" d="M43 1393q0 -47 14.5 -83t36.5 -65q35 -49 73 -104.5t71 -118.5q-33 -12 -62 -38t-50.5 -56.5t-33.5 -63.5t-12 -61q0 -37 18.5 -64.5t48 -46t67.5 -28t79 -9.5h26q0 -18 -2 -37.5t-4 -39.5q-16 2 -31.5 3t-31.5 1q-100 0 -151.5 -62.5t-51.5 -144.5v-17q0 -35 12.5 -69.5 t36 -62t56 -46t73.5 -18.5l25 4q10 2 22.5 4t24.5 4q12 -66 46 -110t99 -44h23q72 0 122 55.5t75 133.5q16 2 28 2h29q10 0 20.5 -1t20.5 -1h8q41 10 80 34.5t68.5 58.5t48 72t18.5 72q0 16 -5 33t-13 31h2q-41 59 -111 87t-147 28q-10 0 -21.5 -1t-21.5 -1q-2 18 -3 37.5 t-4 37.5h58q147 0 228 71t81 181v29q0 74 -51 130t-137 60q51 76 108.5 152t112.5 154q39 55 80 114.5t73.5 122t55 126t24.5 126.5v10q0 51 -16 92t-57 56v-2q-31 14 -76 14q-49 0 -89 -19.5t-73 -50t-60.5 -69.5t-52.5 -78h2q-53 -78 -87.5 -163t-67.5 -168t-75 -155.5 t-112 -123.5h-8q-23 0 -40 28.5t-35.5 71.5t-39 92t-47 92t-60.5 72t-81 29h-2q-29 -14 -57.5 -45t-53 -70t-42 -82t-19.5 -80v-22z" />
<glyph unicode="&#xa8;" horiz-adv-x="1105" d="M43 1296q0 -63 31.5 -104t81.5 -41q37 0 81 26.5t84.5 69.5t72.5 98.5t42 114.5l4 17q4 23 4 45v47v22q0 27 -2 53.5t-9 48t-21.5 36t-40.5 14.5q-59 0 -117.5 -45t-106 -112.5t-76 -145.5t-28.5 -144zM522 1450q0 -66 35 -112t92 -46q51 0 114.5 37t122 94.5t106 128 t65.5 138.5l4 18q0 23 1 45.5t1 44.5q0 37 -4 74t-17.5 65.5t-37 47t-62.5 18.5q-37 0 -70 -18q-74 -31 -137 -91.5t-111.5 -135.5t-75 -156.5t-26.5 -151.5z" />
<glyph unicode="&#xa9;" horiz-adv-x="1454" d="M43 692q0 -123 29.5 -245.5t89 -223t146.5 -167t202 -76.5h16q141 10 281.5 82.5t263.5 195.5q76 102 139.5 224t108.5 254t69.5 268.5t24.5 267.5q0 61 -8.5 119.5t-28.5 111.5q-18 86 -61 154.5t-101.5 115t-129 71t-148.5 24.5h-27q-98 -4 -186 -42t-166 -98.5 t-146.5 -136t-127.5 -153.5q-61 -80 -106.5 -173.5t-75 -190.5t-44 -194.5t-14.5 -187.5zM266 766q0 119 25.5 213t71 172t107.5 144.5t138 129.5q41 23 86 39.5t92 16.5q51 0 99.5 -19.5t84.5 -56.5t57.5 -88.5t21.5 -114.5v-98q0 -94 -7.5 -192.5t-44.5 -184.5v4 q0 61 -34.5 113.5t-94.5 52.5h-12q-49 -8 -77.5 -43t-52.5 -74t-48.5 -69.5t-65.5 -30.5q-18 0 -30.5 16.5t-18.5 41t-8 51t-2 45.5v36q4 47 18.5 97.5t51.5 89.5q25 -6 47 -20.5t44.5 -29t46 -25.5t52.5 -11q37 0 73 20.5t64.5 53t49 72.5t24.5 81q0 41 -11.5 79t-27.5 71 v-2q-6 27 -22.5 39t-37 17t-43 7t-40.5 8l2 2q-41 10 -78 11q-121 0 -211 -72t-149.5 -176.5t-89 -223t-29.5 -213.5q0 -76 21.5 -146.5t61.5 -125.5t95 -89t123 -34h24q14 0 27 4l51 8q-43 -16 -86 -29.5t-88 -13.5q-63 0 -110.5 44.5t-78 111t-46 145t-15.5 146.5z" />
<glyph unicode="&#xab;" horiz-adv-x="1009" d="M72 702q4 -47 44 -78.5t81 -60.5q35 -23 56 -58.5t46 -70.5t60.5 -61.5t99.5 -26.5q41 2 69.5 29.5t30.5 62.5q0 33 -16 66q-23 37 -54.5 66.5t-65.5 57t-64.5 55.5t-51.5 60q23 39 51.5 72t59.5 64l41.5 41.5t40 45t31 48t14.5 49.5q-4 8 -3 16t-3 15q-10 29 -30 59.5 t-60 30.5q-31 0 -55.5 -14.5t-44 -35t-35 -43t-25.5 -38.5q-35 -57 -63.5 -114.5t-65.5 -111.5q-20 -33 -50 -61.5t-38 -63.5zM485 713q4 -47 44 -79t81 -61q35 -23 56.5 -58.5t46 -70t60.5 -61.5t99 -27q41 2 70 30t31 63q-1 32 -17 65q-23 37 -54.5 66.5t-65 57.5 t-64.5 55.5t-51 60.5q23 39 51.5 71.5t58.5 63.5q20 20 42 41.5t40.5 45t30.5 48.5t14 49q-4 8 -3 16.5t-3 14.5q-10 29 -29.5 59.5t-60.5 30.5q-31 0 -55.5 -14.5t-44 -35t-34.5 -43t-26 -38.5q-35 -57 -63.5 -114.5t-65.5 -110.5q-20 -33 -49.5 -61.5t-38.5 -63.5z" />
<glyph unicode="&#xac;" horiz-adv-x="2097" d="M37 1348h100l8 118h224v-641h-285v-833h1688q68 0 121 17.5t89.5 48t56 70.5t19.5 85q0 88 -46 139t-122 76q51 25 83 71t32 109q0 35 -8 64.5t-31 56.5h6v287h-96l-8 -191h-598v385h-473v256h108v99h-850zM184 90v639h287v737h221v-354h475v-285h-108v-98h4l154 -381 h-394l-41 -96h471l66 -162h-1135zM692 829l27 -364h98l25 364h-150zM1163 729h545q61 0 98 -13.5t58.5 -32.5t29 -40.5t7.5 -38.5q0 -57 -51.5 -95t-123.5 -38h-233v-98h211q16 0 57 -3t83 -16.5t75 -43t33 -83.5q0 -53 -25.5 -80.5t-65.5 -41t-86 -15.5t-89 -2h-254v2h-7z M1358 1110h313v-104h96v309h-96v-107h-211v256h395l17 -188h94l-6 287h-602v-453z" />
<glyph unicode="&#xad;" horiz-adv-x="808" d="M41 700q0 -37 17.5 -62.5t44 -41.5t57 -23.5t55.5 -7.5q43 0 91 16.5t79 16.5q33 0 65.5 -4t67.5 -4q98 0 165 70t79 174q2 10 3 20t1 20q0 66 -41 112t-100 46q-14 0 -23 -2l-27 -12l3 4q-102 -37 -194.5 -61.5t-197.5 -42.5l-4 -3q-25 -12 -50.5 -34.5t-45.5 -52 t-32.5 -62.5t-12.5 -66z" />
<glyph unicode="&#xae;" horiz-adv-x="1456" d="M43 696q0 -123 29.5 -246.5t88 -225t146.5 -168t203 -76.5h16q117 6 224.5 60t200.5 143t171 206t137.5 250t98.5 275.5t53 283.5q2 20 3 39.5t1 38.5q0 121 -39 227q-18 86 -61 153.5t-101.5 115t-129 72t-148.5 24.5h-27q-100 -6 -188 -45t-166 -99.5t-145.5 -134 t-124.5 -151.5q-59 -80 -104.5 -172t-76 -188.5t-46 -194t-15.5 -187.5zM268 780q0 43 3 93.5t13.5 99.5t29 96t48.5 88q-4 -16 -7 -30.5t-3 -30.5q-2 -8 -2 -23q0 -10 1 -16t1 -17q0 -16 -3 -38.5t-13 -40.5q-4 -117 -8 -232t-9 -229l-2 -4q-27 68 -38 138.5t-11 145.5z M444 332q49 8 88 57.5t39 108.5v18q0 33 -3 63.5t-3 63.5l8 37l17 2q27 0 46 -29.5t35.5 -71.5t31 -87t30.5 -78q-51 -47 -106.5 -75t-114.5 -28q-37 0 -68 19zM475 1300q72 74 143.5 125.5t174.5 51.5q78 0 145.5 -37t103.5 -113q-35 41 -84 59.5t-102 18.5q-71 0 -145 -29 q-35 -14 -74 -26.5t-76 -22.5l-39 -12q-4 -2 -8 -2t-8 -2zM637 1022h6q29 10 56.5 22.5t56.5 20.5l10 -12l-12 -23l-17 -16h-4q-10 -2 -17 -3t-16 -1q-27 0 -51 10zM924 811q6 29 22.5 52.5t33.5 47t33.5 48t22.5 53.5q8 29 17.5 57.5t17.5 56.5v-12q0 -18 -2 -37t-2 -37 q-6 -74 -28.5 -150.5t-65.5 -141.5q-16 10 -31.5 25t-17.5 38z" />
<glyph unicode="&#xaf;" horiz-adv-x="808" d="M45 1987q0 -37 17.5 -63t44 -42t57.5 -23.5t55 -7.5q43 0 91 16.5t79 16.5q33 0 65.5 -4t67.5 -4q98 0 165 69.5t79 174.5q2 10 3 20t1 21q0 66 -41 111.5t-100 45.5l-47 -10q-102 -37 -195.5 -61.5t-200.5 -44.5q-25 -12 -50 -35t-45.5 -52.5t-33 -62.5t-12.5 -65z" />
<glyph unicode="&#xb0;" horiz-adv-x="819" d="M43 1159q0 -61 17.5 -113.5t48 -91.5t73.5 -61.5t94 -22.5q63 0 135 33t136.5 89.5t115.5 132t76 161.5q18 53 27.5 114.5t9.5 110.5q0 53 -19.5 100.5t-50 83.5t-69.5 56.5t-78 20.5q-102 0 -195.5 -53.5t-165 -140.5t-113.5 -196.5t-42 -222.5zM279 1247q0 25 6 56.5 t20 61.5t37 50.5t55 20.5q29 0 45.5 -26t16.5 -60v-15q0 -6 -2 -12q-6 -49 -42 -90t-77 -53l-12 -2q-23 0 -35 21.5t-12 47.5z" />
<glyph unicode="&#xb1;" horiz-adv-x="2134" d="M41 412q0 -82 3 -152t17.5 -120t41 -78.5t73.5 -30.5q29 0 57.5 12t51.5 39q35 39 50 93t19 110q0 90 -9 158.5t-9 140.5q0 49 3 82.5t17 56.5q25 0 43.5 -14.5t32.5 -35t26.5 -44t24.5 -41.5q25 -51 46.5 -115.5t45 -131.5t51 -129t65.5 -111.5t87 -79t117 -29.5 q66 0 126 44t85 111q68 209 106.5 424t59 433.5t29 437.5t18.5 438q0 68 -35 93.5t-86 25.5q-61 0 -125.5 -31t-117 -82t-86 -117.5t-33.5 -136.5q0 -115 15 -215t15 -213q-6 -39 -8 -75.5t-7 -72.5t-16.5 -68t-33.5 -60q-35 2 -59.5 22.5t-42 49t-31 60.5t-27.5 58 q-45 86 -82 176t-53 195q-12 76 -57.5 121t-106.5 45q-45 0 -84 -22.5t-67.5 -60.5t-48 -86t-25.5 -100q-31 -252 -53.5 -490.5t-22.5 -483.5zM1333 537q0 -37 17.5 -62.5t44 -42t57.5 -24t55 -7.5q43 0 89 19.5t77 19.5q33 0 68 -7t69 -7q98 0 165 69.5t79 174.5l4 41 q0 35 -13 66.5t-35.5 54t-52.5 32.5t-63 2q-121 -43 -217 -68.5t-202 -45.5q-25 -12 -50.5 -35t-46 -52.5t-33 -62.5t-12.5 -65zM1368 1196q0 -61 17.5 -113.5t48 -91.5t73.5 -61.5t95 -22.5q63 0 134.5 33t136 89t115.5 132t76 162q18 53 27.5 114.5t9.5 110.5 q0 53 -19.5 100.5t-50 83t-69.5 56t-78 20.5q-102 0 -195.5 -53t-165 -140t-113.5 -196.5t-42 -222.5zM1604 1284q0 25 6 56.5t20.5 61.5t36.5 50.5t55 20.5q29 0 45.5 -26t16.5 -61q0 -55 -37 -105t-84 -64q-33 -2 -46 19t-13 48z" />
<glyph unicode="&#xb4;" horiz-adv-x="868" d="M43 1405q0 -72 42 -99.5t95 -27.5q82 0 166 45t164 115q45 43 95 89t94 99t79 113.5t49 132.5q0 76 -39.5 124t-103.5 48q-66 0 -107.5 -35t-72.5 -84t-59.5 -102.5t-67.5 -89.5q-45 -43 -103.5 -69t-109.5 -56.5t-86 -74.5t-35 -122v-6z" />
<glyph unicode="&#xb7;" horiz-adv-x="585" d="M74 948q0 -43 12 -86t35.5 -76.5t55.5 -55t73 -21.5h12q45 4 90 26.5t83 59t64.5 86t35.5 104.5v19q0 10 1 21t1 24q0 51 -8.5 103t-27 94t-50 68.5t-78.5 26.5q-66 0 -119 -34.5t-91 -89t-61.5 -121t-27.5 -129.5v-19z" />
<glyph unicode="&#xb8;" horiz-adv-x="491" d="M41 -377v-4q2 -66 39 -121t96 -61q70 10 119 58t80 117t48 147.5t28 152.5q0 4 -1 9t-1 11q0 9 2 13q-2 59 -8.5 127.5t-25 128t-54 98.5t-95.5 39h-14q-35 -6 -63.5 -24.5t-55.5 -45.5h2q-29 -33 -52.5 -71.5t-23.5 -83.5v-15q0 -55 21.5 -103t32.5 -101v-9 q-4 -35 -15.5 -66.5t-24 -64.5t-22.5 -64.5t-12 -66.5z" />
<glyph unicode="&#xba;" horiz-adv-x="819" d="M8 500q0 -37 17.5 -62.5t44 -42t57.5 -23.5t55 -7q43 0 91.5 16t78.5 16q33 0 66 -4t67 -4q98 0 165 70t79 174q2 10 3 20.5t1 20.5q0 66 -41 111.5t-100 45.5q-14 0 -23 -2l-26 -12l2 4q-102 -37 -194.5 -61.5t-196.5 -42.5l-4 -2q-25 -12 -50.5 -35t-46 -52.5 t-33 -62.5t-12.5 -65zM43 1159q0 -61 17.5 -113.5t48 -91.5t73.5 -61.5t94 -22.5q63 0 135 33t136.5 89.5t115.5 132t76 161.5q18 53 27.5 114.5t9.5 110.5q0 53 -19.5 100.5t-50 83.5t-69.5 56.5t-78 20.5q-102 0 -195.5 -53.5t-165 -140.5t-113.5 -196.5t-42 -222.5z M279 1247q0 25 6 56.5t20 61.5t37 50.5t55 20.5q29 0 45.5 -26t16.5 -60v-15q0 -6 -2 -12q-6 -49 -42 -90t-77 -53l-12 -2q-23 0 -35 21.5t-12 47.5z" />
<glyph unicode="&#xbb;" horiz-adv-x="1009" d="M72 449q0 32 16 65q23 37 54.5 66.5t65.5 57.5t64.5 55.5t51.5 60.5q-23 39 -51.5 71.5t-59.5 63.5l-41.5 41.5t-40 45t-31 48.5t-14.5 49q4 8 3 16.5t3 14.5q10 29 29.5 59.5t60.5 30.5q31 0 55.5 -14.5t44 -35t35 -43t25.5 -38.5q35 -57 63.5 -114.5t65.5 -110.5 q20 -33 50 -61.5t38 -63.5q-4 -47 -44 -79t-81 -61q-35 -23 -57.5 -58.5t-47 -70t-59 -61.5t-98.5 -27q-41 2 -69.5 30t-30.5 63zM485 438q1 33 17 66q23 37 54.5 66.5t65 57t64.5 55.5t51 60q-23 39 -51.5 72t-58.5 64q-20 20 -42 41.5t-40.5 45t-30.5 48t-14 49.5 q4 8 3 16t3 15q10 29 29.5 59.5t60.5 30.5q31 0 55.5 -14.5t44 -35t34.5 -43t26 -38.5q35 -57 63.5 -114.5t65.5 -111.5q20 -33 50 -61.5t38 -63.5q-4 -47 -44 -78.5t-81 -60.5q-35 -23 -57.5 -58.5t-47 -70.5t-59.5 -61.5t-98 -26.5q-41 2 -70 29.5t-31 62.5z" />
<glyph unicode="&#xbf;" horiz-adv-x="1099" d="M41 16q0 -68 22.5 -118t59.5 -82.5t86 -48t104 -15.5q82 0 168 35q45 25 76 72t70 82l30 14q35 14 66 21.5t63 23.5q49 20 96.5 73.5t85.5 119t62.5 135t26.5 125.5q-2 27 -5 56.5t-11.5 54t-22.5 42t-39 21.5q-27 -8 -55.5 -21.5t-55 -35t-47 -52.5t-28.5 -72v3 q-12 -47 -42 -93.5t-69 -85.5t-83 -62.5t-85 -23.5q-12 0 -22.5 5.5t-12.5 21.5q10 86 59.5 162t96.5 143l27 37q76 86 131 194.5t55 223.5q-8 74 -59.5 116.5t-114.5 42.5h-4q-61 -6 -85 -52t-39.5 -102t-36 -110.5t-75.5 -79.5h2q-37 -23 -55.5 -63.5t-24.5 -81.5v2 q-4 -35 -22.5 -58.5t-43 -43t-50 -39t-41.5 -45.5q-53 -104 -100.5 -214t-57.5 -223v-4zM481 1368q0 -23 2.5 -48.5t18.5 -41.5q31 -59 85 -89t113 -30h17q55 6 97 42t70.5 88t44 113.5t19.5 117.5v8q0 39 -14 71.5t-37 57t-53.5 39t-61.5 14.5h-6q-55 0 -105 -28.5 t-90 -75.5t-67 -108.5t-33 -129.5z" />
<glyph unicode="&#xc0;" horiz-adv-x="1415" d="M43 217q0 -35 8 -70.5t23.5 -66.5t40 -50.5t55.5 -19.5q27 0 48.5 15.5t38.5 39t30.5 53t21.5 58.5q2 10 4 21.5t9 19.5v2l-5 -2q23 55 72 82t98 27h41q45 0 93.5 -6.5t92.5 -23.5t84 -47t68 -77q16 -63 68.5 -100t114.5 -37q47 0 98 12t96 38t78 67t43 98v6q4 41 7 81 t3 81q0 180 -42 344t-96 321.5t-106.5 313t-70.5 321.5q-12 104 -78 160.5t-156 56.5q-59 0 -112.5 -23.5t-99.5 -64.5t-81.5 -95t-58.5 -116v2q-141 -362 -249.5 -701t-174.5 -669q-2 -10 -4 -19t-2 -20v-12zM362 2372q0 -47 33 -76t80 -50.5t98.5 -40t90.5 -44.5 q16 -10 29.5 -21.5t25.5 -25.5l10 -7q33 -20 84 -20q41 0 93 13.5t98.5 36t78 51t31.5 57.5q0 27 -15.5 54.5t-39 53t-49 47t-43.5 33.5q-66 43 -143.5 73.5t-149.5 59.5q-29 12 -66 12q-53 0 -108.5 -25.5t-89.5 -76.5h2q-23 -18 -36.5 -49t-13.5 -55zM481 788v9 q6 41 22.5 79.5t36 75.5t42 74t41.5 76l14 12q33 -2 55.5 -26.5t36.5 -58.5t19.5 -71.5t5.5 -68.5v-15q0 -35 -21.5 -65.5t-50.5 -40.5l-29 -18q-23 -10 -46 -20.5t-48 -16.5h-16q-31 0 -46.5 21.5t-15.5 53.5z" />
<glyph unicode="&#xc1;" horiz-adv-x="1415" d="M43 217q0 -35 8 -70.5t23.5 -66.5t40 -50.5t55.5 -19.5q27 0 48.5 15.5t38.5 39t30.5 53t21.5 58.5q2 10 4 21.5t9 19.5v2l-5 -2q23 55 72 82t98 27h41q45 0 93.5 -6.5t92.5 -23.5t84 -47t68 -77q16 -63 68.5 -100t114.5 -37q47 0 98 12t96 38t78 67t43 98v6q4 41 7 81 t3 81q0 180 -42 344t-96 321.5t-106.5 313t-70.5 321.5q-12 104 -78 160.5t-156 56.5q-59 0 -112.5 -23.5t-99.5 -64.5t-81.5 -95t-58.5 -116v2q-141 -362 -249.5 -701t-174.5 -669q-2 -10 -4 -19t-2 -20v-12zM352 2163q0 -72 42 -99.5t95 -27.5q82 0 166 44.5t164 114.5 q45 43 95.5 89.5t94.5 99.5t78.5 113.5t49.5 132.5q0 76 -40 124t-104 48q-66 0 -107.5 -35t-72.5 -84t-59.5 -102.5t-67.5 -90.5q-45 -43 -103.5 -68.5t-109.5 -56t-86 -74.5t-35 -122v-6zM481 788v9q6 41 22.5 79.5t36 75.5t42 74t41.5 76l14 12q33 -2 55.5 -26.5 t36.5 -58.5t19.5 -71.5t5.5 -68.5v-15q0 -35 -21.5 -65.5t-50.5 -40.5l-29 -18q-23 -10 -46 -20.5t-48 -16.5h-16q-31 0 -46.5 21.5t-15.5 53.5z" />
<glyph unicode="&#xc2;" horiz-adv-x="1415" d="M43 217q0 -35 8 -70.5t23.5 -66.5t40 -50.5t55.5 -19.5q27 0 48.5 15.5t38.5 39t30.5 53t21.5 58.5q2 10 4 21.5t9 19.5v2l-5 -2q23 55 72 82t98 27h41q45 0 93.5 -6.5t92.5 -23.5t84 -47t68 -77q16 -63 68.5 -100t114.5 -37q47 0 98 12t96 38t78 67t43 98v6q4 41 7 81 t3 81q0 180 -42 344t-96 321.5t-106.5 313t-70.5 321.5q-12 104 -78 160.5t-156 56.5q-59 0 -112.5 -23.5t-99.5 -64.5t-81.5 -95t-58.5 -116v2q-141 -362 -249.5 -701t-174.5 -669q-2 -10 -4 -19t-2 -20v-12zM197 1946q2 -59 31.5 -102.5t76.5 -43.5q39 0 68.5 22.5 t56.5 56.5t51.5 73t53.5 71h-3q23 27 43.5 55.5t42 58.5t45 56.5t52.5 47.5q33 -33 66.5 -69t71.5 -66.5t83 -51t100 -20.5q35 0 68 8l12 2q45 16 81 48t60.5 74t37 89t12.5 94q0 45 -9 78v4q-18 43 -47.5 71.5t-64.5 48t-74 34t-75 32t-65.5 41t-47.5 62.5q-37 51 -101 51 q-72 0 -124 -44t-96 -107.5t-82 -131t-77 -112.5q-35 -45 -65.5 -89t-56.5 -92h2q-16 -31 -37 -58.5t-39.5 -56t-31.5 -58t-19 -64.5v-12zM481 788v9q6 41 22.5 79.5t36 75.5t42 74t41.5 76l14 12q33 -2 55.5 -26.5t36.5 -58.5t19.5 -71.5t5.5 -68.5v-15q0 -35 -21.5 -65.5 t-50.5 -40.5l-29 -18q-23 -10 -46 -20.5t-48 -16.5h-16q-31 0 -46.5 21.5t-15.5 53.5z" />
<glyph unicode="&#xc3;" horiz-adv-x="1415" d="M43 217q0 -35 8 -70.5t23.5 -66.5t40 -50.5t55.5 -19.5q27 0 48.5 15.5t38.5 39t30.5 53t21.5 58.5q2 10 4 21.5t9 19.5v2l-5 -2q23 55 72 82t98 27h41q45 0 93.5 -6.5t92.5 -23.5t84 -47t68 -77q16 -63 68.5 -100t114.5 -37q47 0 98 12t96 38t78 67t43 98v6q4 41 7 81 t3 81q0 180 -42 344t-96 321.5t-106.5 313t-70.5 321.5q-12 104 -78 160.5t-156 56.5q-59 0 -112.5 -23.5t-99.5 -64.5t-81.5 -95t-58.5 -116v2q-141 -362 -249.5 -701t-174.5 -669q-2 -10 -4 -19t-2 -20v-12zM96 2028q0 -45 25.5 -70t60.5 -25q37 0 62.5 27t48 57.5 t49.5 57t66 26.5q18 0 34.5 -8t33 -18.5t32.5 -19.5t36.5 -11t40 -3t40.5 -1q76 0 153.5 33.5t152.5 91t143.5 132.5t127.5 159q23 35 48.5 71.5t33.5 77.5v6q0 66 -44 101.5t-103 35.5q-43 0 -72 -17t-50.5 -44t-37.5 -58.5t-35 -62.5q-25 -27 -54.5 -55.5t-60 -52 t-62.5 -39t-60 -15.5q-31 0 -55.5 15.5t-51.5 25.5q-29 4 -54.5 10.5t-54.5 6.5q-51 0 -101 -30t-96 -75t-87 -97t-76 -97q-12 -29 -18.5 -59.5t-14.5 -61.5v-14zM481 788v9q6 41 22.5 79.5t36 75.5t42 74t41.5 76l14 12q33 -2 55.5 -26.5t36.5 -58.5t19.5 -71.5t5.5 -68.5 v-15q0 -35 -21.5 -65.5t-50.5 -40.5l-29 -18q-23 -10 -46 -20.5t-48 -16.5h-16q-31 0 -46.5 21.5t-15.5 53.5z" />
<glyph unicode="&#xc4;" horiz-adv-x="1415" d="M43 217q0 -35 8 -70.5t23.5 -66.5t40 -50.5t55.5 -19.5q27 0 48.5 15.5t38.5 39t30.5 53t21.5 58.5q2 10 4 21.5t9 19.5v2l-5 -2q23 55 72 82t98 27h41q45 0 93.5 -6.5t92.5 -23.5t84 -47t68 -77q16 -63 68.5 -100t114.5 -37q47 0 98 12t96 38t78 67t43 98v6q4 41 7 81 t3 81q0 180 -42 344t-96 321.5t-106.5 313t-70.5 321.5q-12 104 -78 160.5t-156 56.5q-59 0 -112.5 -23.5t-99.5 -64.5t-81.5 -95t-58.5 -116v2q-141 -362 -249.5 -701t-174.5 -669q-2 -10 -4 -19t-2 -20v-12zM322 2013q0 -63 31.5 -104t80.5 -41q37 0 81 26.5t85 69.5 t73 98.5t42 114.5l4 16q4 23 4 45v48v22q0 27 -2 53.5t-9 48t-21.5 36t-41.5 14.5q-59 0 -117.5 -45t-105.5 -113t-75.5 -145.5t-28.5 -143.5zM481 788v9q6 41 22.5 79.5t36 75.5t42 74t41.5 76l14 12q33 -2 55.5 -26.5t36.5 -58.5t19.5 -71.5t5.5 -68.5v-15 q0 -35 -21.5 -65.5t-50.5 -40.5l-29 -18q-23 -10 -46 -20.5t-48 -16.5h-16q-31 0 -46.5 21.5t-15.5 53.5zM801 2167q0 -66 34.5 -112t92.5 -46q51 0 114.5 37t122 94.5t105.5 127.5t65 138l4 19q0 23 1 45t1 45q0 37 -4 74t-17 65.5t-36.5 47t-62.5 18.5q-37 0 -70 -19 q-74 -31 -137.5 -91t-111.5 -135t-74.5 -157t-26.5 -151z" />
<glyph unicode="&#xc5;" horiz-adv-x="1415" d="M43 217q0 -35 8 -70.5t23.5 -66.5t40 -50.5t55.5 -19.5q27 0 48.5 15.5t38.5 39t30.5 53t21.5 58.5q2 10 4 21.5t9 19.5v2l-5 -2q23 55 72 82t98 27h41q45 0 93.5 -6.5t92.5 -23.5t84 -47t68 -77q16 -63 68.5 -100t114.5 -37q47 0 98 12t96 38t78 67t43 98v6q4 41 7 81 t3 81q0 180 -42 344t-96 321.5t-106.5 313t-70.5 321.5q-8 82 -58 137q68 41 122 102.5t83 139.5q16 57 33.5 120.5t17.5 121.5q0 57 -22.5 108.5t-60 90t-88 60t-105.5 21.5t-118.5 -16t-123 -47t-113 -74t-85.5 -96h2q-35 -66 -53.5 -141.5t-18.5 -141.5q0 -78 34 -151.5 t93 -118.5q-41 -41 -72.5 -91t-52.5 -106v2q-141 -362 -249.5 -701t-174.5 -669q-2 -10 -4 -19t-2 -20v-12zM481 788v9q6 41 22.5 79.5t36 75.5t42 74t41.5 76l14 12q33 -2 55.5 -26.5t36.5 -58.5t19.5 -71.5t5.5 -68.5v-15q0 -35 -21.5 -65.5t-50.5 -40.5l-29 -18 q-23 -10 -46 -20.5t-48 -16.5h-16q-31 0 -46.5 21.5t-15.5 53.5zM645 2181v14q2 33 13.5 68t33 63.5t52 46t67.5 17.5q41 0 73 -21.5t36 -64.5q4 -20 4 -31q0 -90 -52.5 -148.5t-130.5 -68.5l-8 -2q-43 10 -65.5 47t-22.5 80z" />
<glyph unicode="&#xc6;" horiz-adv-x="2209" d="M43 217q0 -35 8 -70.5t23.5 -66.5t40 -50.5t55.5 -19.5q27 0 48.5 15.5t38.5 39t30.5 53t21.5 58.5q2 10 4 21.5t9 19.5v2l-5 -2q23 55 72 82t98 27h41q45 0 92.5 -6.5t92.5 -22.5t84 -46t67 -77q16 -76 71.5 -107.5t111.5 -31.5q20 0 41.5 2t41.5 6q63 -14 128 -25.5 t135 -11.5q53 2 106 8t109 9h137q82 0 159.5 49t116.5 135q16 37 27.5 77t11.5 81q0 59 -46 98t-105 39q-35 0 -69 -8.5t-66.5 -19.5t-66.5 -19.5t-69 -8.5q-33 0 -63.5 4.5t-61.5 4.5q-61 0 -123.5 -16.5t-119.5 -16.5q-31 0 -56.5 16.5t-37.5 46.5l2 -2q-4 8 -5.5 17.5 t-1.5 19.5v21q4 47 20.5 99t59.5 75l2 2q57 10 120 33.5t126 23.5q16 0 34.5 -1t35.5 -1q51 0 102 28.5t91 75t64.5 104.5t24.5 118q0 72 -47 109.5t-108 37.5q-45 0 -100.5 -18.5t-110.5 -41t-105.5 -41t-85.5 -18.5q-16 8 -24 26.5t-8 41.5v16q0 106 52 161.5t132 85.5 t176 46.5t182 44.5q55 10 122 43t124 84t96 117t39 139v21q0 53 -25.5 92t-74.5 39h-4q-143 -18 -276.5 -69.5t-258.5 -111t-242.5 -115.5t-230.5 -87l-12 -8q0 57 -19.5 102t-52.5 77t-76 48t-88 16q-59 0 -112.5 -23.5t-99.5 -64.5t-81.5 -95t-58.5 -116v2 q-141 -362 -249.5 -701t-174.5 -669q-2 -10 -4 -19t-2 -20v-12zM481 788v9q6 41 22.5 79.5t36 75.5t42 74t41.5 76l14 12q33 -2 55.5 -26.5t36.5 -58.5t19.5 -71.5t5.5 -68.5v-15q0 -35 -21.5 -65.5t-50.5 -40.5l-29 -18q-23 -10 -46 -20.5t-48 -16.5h-16q-31 0 -46.5 21.5 t-15.5 53.5z" />
<glyph unicode="&#xc7;" horiz-adv-x="1357" d="M41 745q0 -125 19.5 -237.5t62.5 -204.5t111.5 -162.5t166.5 -111.5q4 -49 23.5 -93.5t30.5 -95.5v-8q-4 -35 -15.5 -66.5t-24 -64.5t-22.5 -64.5t-12 -66.5v-4q2 -66 39 -121t96 -61q70 10 119 58t79.5 116.5t48 147.5t28.5 153q0 4 -1.5 9t-1.5 11q1 8 3 12 q-2 29 -3.5 60t-5.5 61q76 31 162 99.5t159 154.5t121 177.5t48 164.5q0 57 -19.5 107.5t-54.5 87.5t-81 58.5t-99 21.5h-10q-41 -12 -69 -39t-49.5 -61.5t-38.5 -71.5t-36 -70q-18 -41 -45 -77t-60.5 -64.5t-71.5 -46t-75 -17.5h-2q-61 0 -100 34t-60.5 88t-28.5 118.5 t-7 126.5q0 35 3 87t12 111.5t26.5 121t45 116.5t67.5 98t95 66q23 10 54 10q53 0 88 -28.5t65.5 -64.5t63.5 -64.5t82 -28.5q61 0 120.5 32.5t108.5 86t81 120t38 133.5v17q0 70 -27.5 124t-58.5 101q-18 39 -53 51.5t-75 14.5t-82 1t-73 15q-39 25 -96 25 q-100 0 -199.5 -51.5t-187.5 -131t-161 -180t-120 -199.5q-74 -156 -107.5 -321.5t-33.5 -319.5z" />
<glyph unicode="&#xc8;" horiz-adv-x="1406" d="M41 188q0 -49 24.5 -93t65.5 -48h2q8 0 15.5 1t15.5 1q47 0 96 -9t99.5 -21.5t103.5 -21.5t108 -9q53 2 106.5 8t108.5 8h138q82 0 159.5 49t116.5 135q16 37 27.5 77t11.5 81q0 59 -46 98t-106 39q-35 0 -68.5 -8t-66 -19.5t-66.5 -19.5t-69 -8q-33 0 -63.5 4t-61.5 4 q-61 0 -123.5 -16.5t-119.5 -16.5q-31 0 -56.5 16.5t-38.5 47.5l2 -2q-4 8 -5 17.5t-1 19.5v20q4 47 20.5 99.5t59.5 74.5l2 2q57 10 119.5 34t126.5 24q16 0 34.5 -1t35.5 -1q51 0 102 28.5t91 74.5t64.5 104.5t24.5 117.5q0 72 -47 110t-109 38q-45 0 -100 -18.5 t-110.5 -41t-105.5 -41t-85 -18.5q-16 8 -24.5 26.5t-8.5 41.5v16q0 106 52.5 161.5t132.5 85t176 46t182 45.5q55 10 121.5 43t124 84t96.5 116.5t39 139.5v20q0 53 -25.5 92t-74.5 39h-4q-143 -18 -276.5 -69t-258.5 -110.5t-242.5 -116t-230.5 -87.5l-8 -4 q-45 -37 -68.5 -96t-38.5 -119q-47 -326 -66.5 -640t-29.5 -625v-9zM291 2306q0 -47 32.5 -75.5t80 -50t98.5 -40t90 -45.5q16 -10 29.5 -21.5t25.5 -25.5l10 -6q33 -20 84 -21q41 0 93.5 13.5t98.5 36t77.5 51t31.5 57.5q0 27 -15 54.5t-38.5 53t-49.5 47t-44 33.5 q-66 43 -143.5 74t-149.5 60q-29 12 -65 12q-53 0 -108.5 -25.5t-90.5 -77.5h2q-23 -18 -36 -48.5t-13 -55.5z" />
<glyph unicode="&#xc9;" horiz-adv-x="1406" d="M41 188q0 -49 24.5 -93t65.5 -48h2q8 0 15.5 1t15.5 1q47 0 96 -9t99.5 -21.5t103.5 -21.5t108 -9q53 2 106.5 8t108.5 8h138q82 0 159.5 49t116.5 135q16 37 27.5 77t11.5 81q0 59 -46 98t-106 39q-35 0 -68.5 -8t-66 -19.5t-66.5 -19.5t-69 -8q-33 0 -63.5 4t-61.5 4 q-61 0 -123.5 -16.5t-119.5 -16.5q-31 0 -56.5 16.5t-38.5 47.5l2 -2q-4 8 -5 17.5t-1 19.5v20q4 47 20.5 99.5t59.5 74.5l2 2q57 10 119.5 34t126.5 24q16 0 34.5 -1t35.5 -1q51 0 102 28.5t91 74.5t64.5 104.5t24.5 117.5q0 72 -47 110t-109 38q-45 0 -100 -18.5 t-110.5 -41t-105.5 -41t-85 -18.5q-16 8 -24.5 26.5t-8.5 41.5v16q0 106 52.5 161.5t132.5 85t176 46t182 45.5q55 10 121.5 43t124 84t96.5 116.5t39 139.5v20q0 53 -25.5 92t-74.5 39h-4q-143 -18 -276.5 -69t-258.5 -110.5t-242.5 -116t-230.5 -87.5l-8 -4 q-45 -37 -68.5 -96t-38.5 -119q-47 -326 -66.5 -640t-29.5 -625v-9zM342 2060q0 -72 42 -99.5t95 -27.5q82 0 166 45t164 115q45 43 95 89t94 99.5t79 114t49 131.5q0 76 -39.5 124t-103.5 48q-66 0 -107.5 -34.5t-72.5 -84t-59.5 -102.5t-67.5 -90q-45 -43 -103.5 -68.5 t-109.5 -56.5t-86 -75t-35 -122v-6z" />
<glyph unicode="&#xca;" horiz-adv-x="1406" d="M41 188q0 -49 24.5 -93t65.5 -48h2q8 0 15.5 1t15.5 1q47 0 96 -9t99.5 -21.5t103.5 -21.5t108 -9q53 2 106.5 8t108.5 8h138q82 0 159.5 49t116.5 135q16 37 27.5 77t11.5 81q0 59 -46 98t-106 39q-35 0 -68.5 -8t-66 -19.5t-66.5 -19.5t-69 -8q-33 0 -63.5 4t-61.5 4 q-61 0 -123.5 -16.5t-119.5 -16.5q-31 0 -56.5 16.5t-38.5 47.5l2 -2q-4 8 -5 17.5t-1 19.5v20q4 47 20.5 99.5t59.5 74.5l2 2q57 10 119.5 34t126.5 24q16 0 34.5 -1t35.5 -1q51 0 102 28.5t91 74.5t64.5 104.5t24.5 117.5q0 72 -47 110t-109 38q-45 0 -100 -18.5 t-110.5 -41t-105.5 -41t-85 -18.5q-16 8 -24.5 26.5t-8.5 41.5v16q0 106 52.5 161.5t132.5 85t176 46t182 45.5q55 10 121.5 43t124 84t96.5 116.5t39 139.5v20q0 53 -25.5 92t-74.5 39h-4q-143 -18 -276.5 -69t-258.5 -110.5t-242.5 -116t-230.5 -87.5l-8 -4 q-45 -37 -68.5 -96t-38.5 -119q-47 -326 -66.5 -640t-29.5 -625v-9zM109 1978q2 -59 31.5 -102t76.5 -43q39 0 68.5 22.5t56.5 56.5t51.5 72.5t52.5 71.5h-2q23 27 43.5 55.5t42 58.5t45 56.5t52.5 46.5q33 -33 66.5 -68.5t71.5 -66.5t83 -51.5t100 -20.5q35 0 68 9l12 2 q45 16 81 48t60.5 74t37 89t12.5 94q0 45 -9 78v4q-18 43 -47.5 71.5t-64.5 48t-74 34t-75 31.5t-65.5 41t-47.5 63q-37 51 -101 51q-72 0 -124 -44t-96 -107.5t-82 -131t-77 -113.5q-35 -45 -65.5 -89t-57.5 -91h3q-16 -31 -37 -58.5t-39.5 -56t-31.5 -58.5t-19 -64v-13z " />
<glyph unicode="&#xcb;" horiz-adv-x="1406" d="M41 188q0 -49 24.5 -93t65.5 -48h2q8 0 15.5 1t15.5 1q47 0 96 -9t99.5 -21.5t103.5 -21.5t108 -9q53 2 106.5 8t108.5 8h138q82 0 159.5 49t116.5 135q16 37 27.5 77t11.5 81q0 59 -46 98t-106 39q-35 0 -68.5 -8t-66 -19.5t-66.5 -19.5t-69 -8q-33 0 -63.5 4t-61.5 4 q-61 0 -123.5 -16.5t-119.5 -16.5q-31 0 -56.5 16.5t-38.5 47.5l2 -2q-4 8 -5 17.5t-1 19.5v20q4 47 20.5 99.5t59.5 74.5l2 2q57 10 119.5 34t126.5 24q16 0 34.5 -1t35.5 -1q51 0 102 28.5t91 74.5t64.5 104.5t24.5 117.5q0 72 -47 110t-109 38q-45 0 -100 -18.5 t-110.5 -41t-105.5 -41t-85 -18.5q-16 8 -24.5 26.5t-8.5 41.5v16q0 106 52.5 161.5t132.5 85t176 46t182 45.5q55 10 121.5 43t124 84t96.5 116.5t39 139.5v20q0 53 -25.5 92t-74.5 39h-4q-143 -18 -276.5 -69t-258.5 -110.5t-242.5 -116t-230.5 -87.5l-8 -4 q-45 -37 -68.5 -96t-38.5 -119q-47 -326 -66.5 -640t-29.5 -625v-9zM211 2040q0 -63 31.5 -104.5t81.5 -41.5q37 0 81 27t84.5 70t72.5 98.5t42 114.5l4 16q4 23 4 45v47v23q0 27 -2 53.5t-9 48t-21.5 35.5t-40.5 14q-59 0 -118 -45t-106 -112.5t-75.5 -145.5t-28.5 -143z M690 2193q0 -66 35 -111.5t92 -45.5q51 0 114.5 36.5t122 94t106 128t65.5 138.5l4 18q0 23 1 45.5t1 45.5q0 37 -4 73.5t-17.5 65.5t-37 47t-62.5 18q-37 0 -70 -18q-74 -31 -137 -91.5t-111.5 -135t-75 -156.5t-26.5 -152z" />
<glyph unicode="&#xcc;" horiz-adv-x="927" d="M43 246q2 -47 15.5 -93.5t41.5 -74.5v2q10 -12 24.5 -17.5t29.5 -9.5h12q43 0 85 13.5t87 13.5q47 -4 95 -13.5t99 -9.5h21q47 2 94 23.5t86 56.5t66.5 83t34.5 106v14q0 39 -15.5 63.5t-40 40t-55.5 25.5t-58.5 20.5t-50 24.5t-32.5 39h2q-33 80 -33 180q0 82 10 165 t22.5 168l25 170t16.5 169q-2 10 -2 18v19q0 16 2 26v11q12 47 54 73.5t88 52t82 60.5t36 100v27q-4 33 -12.5 65.5t-23.5 59.5t-38 43t-53 16q-41 0 -82 -12t-82 -27.5t-81 -32t-77 -24.5q-49 -10 -98 -46t-89 -85t-67.5 -108.5t-34.5 -116.5q0 -37 15.5 -57.5t38 -32 t48 -18.5t48.5 -17q4 -35 7 -70t3 -72q0 -131 -16.5 -262t-20.5 -260q0 -49 4.5 -98t4.5 -98q-4 -39 -22.5 -62.5t-44.5 -40t-55.5 -31t-55 -33t-42 -47t-16.5 -75.5v-4zM43 2322q0 -47 33 -75.5t80 -50t98 -40t90 -45.5q16 -10 29.5 -21t25.5 -26l11 -6q33 -20 84 -20 q41 0 93 13t98 35.5t78 51.5t32 57q0 27 -15.5 54.5t-39 53.5t-49 47.5t-44.5 33.5q-66 43 -143.5 73.5t-149.5 59.5q-29 12 -65 12q-53 0 -108.5 -25.5t-90.5 -76.5h2q-23 -18 -36 -49t-13 -56z" />
<glyph unicode="&#xcd;" horiz-adv-x="927" d="M43 246q2 -47 15.5 -93.5t41.5 -74.5v2q10 -12 24.5 -17.5t29.5 -9.5h12q43 0 85 13.5t87 13.5q47 -4 95 -13.5t99 -9.5h21q47 2 94 23.5t86 56.5t66.5 83t34.5 106v14q0 39 -15.5 63.5t-40 40t-55.5 25.5t-58.5 20.5t-50 24.5t-32.5 39h2q-33 80 -33 180q0 82 10 165 t22.5 168l25 170t16.5 169q-2 10 -2 18v19q0 16 2 26v11q12 47 54 73.5t88 52t82 60.5t36 100v27q-4 33 -12.5 65.5t-23.5 59.5t-38 43t-53 16q-41 0 -82 -12t-82 -27.5t-81 -32t-77 -24.5q-49 -10 -98 -46t-89 -85t-67.5 -108.5t-34.5 -116.5q0 -37 15.5 -57.5t38 -32 t48 -18.5t48.5 -17q4 -35 7 -70t3 -72q0 -131 -16.5 -262t-20.5 -260q0 -49 4.5 -98t4.5 -98q-4 -39 -22.5 -62.5t-44.5 -40t-55.5 -31t-55 -33t-42 -47t-16.5 -75.5v-4zM125 2091q0 -72 42 -99.5t95 -27.5q82 0 166 45t164 115q45 43 95 89t94 99t79 113.5t49 132.5 q0 76 -40 124t-103 48q-66 0 -108 -35t-72.5 -84t-59 -102t-67.5 -90q-45 -43 -103.5 -69t-109.5 -56.5t-86 -74.5t-35 -122v-6z" />
<glyph unicode="&#xce;" horiz-adv-x="927" d="M0 1962q2 -59 31.5 -102t77.5 -43q39 0 68.5 22.5t56 56t51 72.5t53.5 72h-2q23 27 43 55.5t41.5 58t45 56t52.5 47.5q33 -33 66.5 -69t71.5 -66.5t83 -51t101 -20.5q35 0 67 8l13 2q45 16 80.5 48t60 74t37 89t12.5 94q0 45 -8 78v4q-18 43 -48 72t-65 48.5t-73.5 33.5 t-74.5 31.5t-66 41t-48 62.5q-37 51 -100 51q-72 0 -124 -44t-96.5 -107.5t-82 -131t-76.5 -112.5q-35 -45 -65.5 -89t-57.5 -91h2q-16 -31 -36.5 -58.5t-39 -56.5t-32 -58.5t-19.5 -64.5v-12zM43 246q2 -47 15.5 -93.5t41.5 -74.5v2q10 -12 24.5 -17.5t29.5 -9.5h12 q43 0 85 13.5t87 13.5q47 -4 95 -13.5t99 -9.5h21q47 2 94 23.5t86 56.5t66.5 83t34.5 106v14q0 39 -15.5 63.5t-40 40t-55.5 25.5t-58.5 20.5t-50 24.5t-32.5 39h2q-33 80 -33 180q0 82 10 165t22.5 168l25 170t16.5 169q-2 10 -2 18v19q0 16 2 26v11q12 47 54 73.5t88 52 t82 60.5t36 100v27q-4 33 -12.5 65.5t-23.5 59.5t-38 43t-53 16q-41 0 -82 -12t-82 -27.5t-81 -32t-77 -24.5q-49 -10 -98 -46t-89 -85t-67.5 -108.5t-34.5 -116.5q0 -37 15.5 -57.5t38 -32t48 -18.5t48.5 -17q4 -35 7 -70t3 -72q0 -131 -16.5 -262t-20.5 -260 q0 -49 4.5 -98t4.5 -98q-4 -39 -22.5 -62.5t-44.5 -40t-55.5 -31t-55 -33t-42 -47t-16.5 -75.5v-4z" />
<glyph unicode="&#xcf;" horiz-adv-x="927" d="M-2 2046q0 -63 31.5 -104t81.5 -41q37 0 81 26.5t84.5 69.5t72.5 98.5t42 114.5l4 16q4 23 4 45v47v23q0 27 -2 53.5t-9 48t-21.5 35.5t-40.5 14q-59 0 -117.5 -45t-106 -112.5t-76 -145.5t-28.5 -143zM43 246q2 -47 15.5 -93.5t41.5 -74.5v2q10 -12 24.5 -17.5 t29.5 -9.5h12q43 0 85 13.5t87 13.5q47 -4 95 -13.5t99 -9.5h21q47 2 94 23.5t86 56.5t66.5 83t34.5 106v14q0 39 -15.5 63.5t-40 40t-55.5 25.5t-58.5 20.5t-50 24.5t-32.5 39h2q-33 80 -33 180q0 82 10 165t22.5 168l25 170t16.5 169q-2 10 -2 18v19q0 16 2 26v11 q12 47 54 73.5t88 52t82 60.5t36 100v27q-4 33 -12.5 65.5t-23.5 59.5t-38 43t-53 16q-41 0 -82 -12t-82 -27.5t-81 -32t-77 -24.5q-49 -10 -98 -46t-89 -85t-67.5 -108.5t-34.5 -116.5q0 -37 15.5 -57.5t38 -32t48 -18.5t48.5 -17q4 -35 7 -70t3 -72q0 -131 -16.5 -262 t-20.5 -260q0 -49 4.5 -98t4.5 -98q-4 -39 -22.5 -62.5t-44.5 -40t-55.5 -31t-55 -33t-42 -47t-16.5 -75.5v-4zM477 2200q0 -66 35 -112t92 -46q51 0 114.5 37t122 94t106 127.5t65.5 138.5l4 19q0 23 1 45t1 45q0 37 -4 73.5t-17.5 65.5t-37 47.5t-62.5 18.5q-37 0 -70 -19 q-74 -31 -137 -91t-111.5 -135t-75 -157t-26.5 -151z" />
<glyph unicode="&#xd0;" horiz-adv-x="1396" d="M-104 793q0 -37 17 -62.5t44 -42t57.5 -24t55.5 -7.5h4q-4 -70 -8.5 -139t-8.5 -137q-4 -41 -9 -81t-5 -79v-22q0 -29 4 -57.5t13.5 -53.5t26.5 -41t42 -18q82 -10 168 -25.5t178 -15.5q84 0 173 16t173 56t159 108t132 170q106 193 174 396.5t68 430.5q0 150 -29.5 284 t-95.5 251q-47 106 -133 151t-191 45q-84 0 -163.5 -24.5t-157.5 -59t-153 -73.5t-146 -70l-4 -2q-45 -20 -84 -75.5t-43 -114.5q-16 -117 -29.5 -229.5t-24.5 -227.5q-14 -4 -29.5 -6t-33.5 -6q-25 -12 -50.5 -35t-46 -52.5t-32.5 -62.5t-12 -65zM367 485v9v94t4 94h2 q98 0 164.5 70t78.5 174q2 10 3.5 20t1.5 21q0 66 -41 111.5t-101 45.5q-2 0 -15 -3t-32.5 -8t-25.5 -9l18 147q10 33 33.5 51.5t54.5 28.5t62.5 13.5t58.5 3.5q61 0 113.5 -25t78.5 -90q31 -139 31 -289q0 -72 -13.5 -148.5t-43 -146t-76.5 -124t-117 -81.5 q-41 -23 -86 -39t-86 -16q-29 0 -48 31t-19 65z" />
<glyph unicode="&#xd1;" horiz-adv-x="1361" d="M41 334q0 -53 3 -106.5t17.5 -96.5t41 -70.5t73.5 -29.5q29 0 58.5 12t52.5 39h-2q35 39 50 93t19 110v24q0 72 -9 137.5t-9 137.5v32q0 25 2 54.5t10 52.5h8q25 0 43.5 -14.5t32.5 -35t26.5 -44t24.5 -43.5v2q25 -51 46.5 -115.5t45 -131.5t51 -129t64.5 -111.5t86 -79 t115 -29.5h4q66 0 126 44t85 111q68 209 106.5 424t59 433.5t29 437.5t18.5 438v8q0 61 -35 86t-86 25q-61 0 -125.5 -31t-117 -82t-86 -117.5t-33.5 -136.5q0 -115 15 -215t15 -213v-14q-6 -33 -8 -68t-7 -68.5t-16.5 -65.5t-33.5 -60q-35 2 -59.5 22.5t-42 49t-32 60.5 t-28.5 60l2 -2q-45 86 -82 176t-53 195q-12 76 -57.5 121t-106.5 45q-45 0 -84 -22.5t-67.5 -60.5t-48 -86t-25.5 -100q-31 -252 -53.5 -490.5t-22.5 -483.5v-78zM94 1903q0 -45 25.5 -70t60.5 -25q37 0 62.5 27t48 57.5t49.5 57t66 26.5q18 0 34.5 -8t32.5 -18.5 t32.5 -19.5t37 -11t40 -3t40.5 -1q76 0 153.5 33.5t152.5 91t143.5 132.5t127.5 159q23 35 48.5 71.5t33.5 77.5v6q0 66 -44 101.5t-103 35.5q-43 0 -72 -17t-50.5 -44t-38 -58.5t-34.5 -62.5q-25 -27 -54.5 -55.5t-60 -52t-62.5 -39t-61 -15.5q-31 0 -55 15.5t-51 25.5 q-29 4 -54.5 10.5t-54.5 6.5q-51 0 -101 -30t-96 -75t-87 -97t-76 -97q-12 -29 -18.5 -59.5t-14.5 -61.5v-14z" />
<glyph unicode="&#xd2;" horiz-adv-x="1431" d="M41 700q0 -139 26.5 -271t85 -235.5t150.5 -166t221 -62.5q137 0 260 59.5t224.5 162t177.5 239.5t119 293q39 141 61.5 299t22.5 291q0 119 -27 227.5t-79 191t-132 133t-186 54.5h-27q-131 0 -254 -51.5t-228.5 -140.5t-186.5 -206.5t-128 -250.5 q-49 -141 -74.5 -284.5t-25.5 -281.5zM266 2288q0 -47 33 -76t80 -50.5t98 -40t90 -44.5q16 -10 29.5 -21.5t26.5 -25.5l10 -7q33 -20 84 -20q41 0 93 13.5t98 36t78 51t32 57.5q0 27 -15.5 54.5t-39 53t-49 47t-44.5 33.5q-66 43 -143 73.5t-149 59.5q-29 12 -66 12 q-53 0 -108.5 -25.5t-90.5 -76.5h2q-23 -18 -36 -49t-13 -55zM322 709q0 39 2 100t11 132t26.5 144.5t49 139t80 117t115.5 77.5q41 14 84 15q84 0 146.5 -55.5t72.5 -155.5q2 -31 3 -62t1 -61q0 -145 -27.5 -291.5t-109.5 -269.5v4q-37 -57 -93 -83t-110 -30h-69 q-41 8 -74 35t-57.5 64.5t-37.5 83.5t-13 96z" />
<glyph unicode="&#xd3;" horiz-adv-x="1431" d="M41 700q0 -139 26.5 -271t85 -235.5t150.5 -166t221 -62.5q137 0 260 59.5t224.5 162t177.5 239.5t119 293q39 141 61.5 299t22.5 291q0 119 -27 227.5t-79 191t-132 133t-186 54.5h-27q-131 0 -254 -51.5t-228.5 -140.5t-186.5 -206.5t-128 -250.5 q-49 -141 -74.5 -284.5t-25.5 -281.5zM322 709q0 39 2 100t11 132t26.5 144.5t49 139t80 117t115.5 77.5q41 14 84 15q86 0 145.5 -55.5t73.5 -155.5q2 -31 3 -62t1 -61q0 -145 -27.5 -291.5t-109.5 -269.5v4q-37 -57 -93 -83t-110 -30h-69q-41 8 -74 35t-57.5 64.5 t-37.5 83.5t-13 96zM326 2068q0 -72 42 -99t95 -27q82 0 166 44.5t164 114.5q45 43 95 89t94 99.5t79 114t49 131.5q0 76 -40 124t-103 48q-66 0 -108 -34.5t-72.5 -83.5t-59.5 -102.5t-68 -90.5q-45 -43 -103 -68.5t-109.5 -56t-86 -75t-34.5 -121.5v-7z" />
<glyph unicode="&#xd4;" horiz-adv-x="1431" d="M41 700q0 -139 26.5 -271t85 -235.5t150.5 -166t221 -62.5q137 0 260 59.5t224.5 162t177.5 239.5t119 293q39 141 61.5 299t22.5 291q0 119 -27 227.5t-79 191t-132 133t-186 54.5h-27q-131 0 -254 -51.5t-228.5 -140.5t-186.5 -206.5t-128 -250.5 q-49 -141 -74.5 -284.5t-25.5 -281.5zM156 1972q2 -59 31.5 -102t76.5 -43q39 0 68.5 22.5t56.5 56t51.5 72.5t53.5 72h-2q23 27 43 55.5t41.5 58t45 56.5t52.5 47q33 -33 66.5 -68.5t71.5 -66.5t83 -51.5t100 -20.5q35 0 68 8l12 3q45 16 81 47.5t60.5 73.5t37 89.5 t12.5 94.5q0 45 -9 78v4q-18 43 -47.5 71.5t-64.5 48t-74 34t-74.5 31.5t-65.5 40.5t-48 62.5q-37 51 -101 52q-72 0 -124 -44t-96 -107.5t-82 -131.5t-77 -113q-35 -45 -65.5 -89t-56.5 -91h2q-16 -31 -37 -58.5t-39.5 -56t-31.5 -58.5t-19 -64v-13zM322 709q0 39 2 100 t11 132t26.5 144.5t49 139t80 117t115.5 77.5q41 14 84 15q84 0 146.5 -55.5t72.5 -155.5q2 -31 3 -62t1 -61q0 -145 -27.5 -291.5t-109.5 -269.5v4q-37 -57 -93 -83t-110 -30h-69q-41 8 -74 35t-57.5 64.5t-37.5 83.5t-13 96z" />
<glyph unicode="&#xd5;" horiz-adv-x="1431" d="M41 700q0 -139 26.5 -271t85 -235.5t150.5 -166t221 -62.5q137 0 260 59.5t224.5 162t177.5 239.5t119 293q39 141 61.5 299t22.5 291q0 119 -27 227.5t-79 191t-132 133t-186 54.5h-27q-131 0 -254 -51.5t-228.5 -140.5t-186.5 -206.5t-128 -250.5 q-49 -141 -74.5 -284.5t-25.5 -281.5zM125 1985q0 -45 25.5 -70t60.5 -25q37 0 62.5 27t48 57.5t49 57t65.5 26.5q18 0 34.5 -8t33 -18.5t33 -19.5t37 -11t40 -3t39.5 -1q76 0 154 33.5t152.5 91t143 132.5t128.5 159q23 35 48.5 71.5t33.5 77.5v6q0 66 -44 101.5t-104 35.5 q-43 0 -71.5 -17t-50 -44t-38 -58.5t-34.5 -62.5q-25 -27 -54.5 -55.5t-60.5 -52t-62.5 -39t-60.5 -15.5q-31 0 -55.5 15.5t-50.5 25.5q-29 4 -54.5 10.5t-54.5 6.5q-51 0 -101 -30t-96.5 -75t-87 -97t-75.5 -97q-12 -29 -18.5 -59.5t-14.5 -61.5v-14zM322 709q0 39 2 100 t11 132t26.5 144.5t49 139t80 117t115.5 77.5q41 14 84 15q84 0 146.5 -55.5t72.5 -155.5q2 -31 3 -62t1 -61q0 -145 -27.5 -291.5t-109.5 -269.5v4q-37 -57 -93 -83t-110 -30h-69q-41 8 -74 35t-57.5 64.5t-37.5 83.5t-13 96z" />
<glyph unicode="&#xd6;" horiz-adv-x="1431" d="M41 700q0 -139 26.5 -271t85 -235.5t150.5 -166t221 -62.5q137 0 260 59.5t224.5 162t177.5 239.5t119 293q39 141 61.5 299t22.5 291q0 119 -27 227.5t-79 191t-132 133t-186 54.5h-27q-131 0 -254 -51.5t-228.5 -140.5t-186.5 -206.5t-128 -250.5 q-49 -141 -74.5 -284.5t-25.5 -281.5zM272 2021q0 -63 32 -104t81 -41q37 0 81 26.5t85 69.5t73 98.5t42 114.5l4 17q4 23 4 45v47v22q0 27 -2 53.5t-9.5 48t-21.5 36t-41 14.5q-59 0 -117.5 -45t-105.5 -112.5t-76 -145.5t-29 -144zM322 709q0 39 2 100t11 132t26.5 144.5 t49 139t80 117t115.5 77.5q41 14 84 15q84 0 146.5 -55.5t72.5 -155.5q2 -31 3 -62t1 -61q0 -145 -27.5 -291.5t-109.5 -269.5v4q-37 -57 -93 -83t-110 -30h-69q-41 8 -74 35t-57.5 64.5t-37.5 83.5t-13 96zM752 2175q0 -66 34.5 -112t92.5 -46q51 0 114.5 37t122 94.5 t105.5 128t65 138.5l4 18q0 23 1 45.5t1 44.5q0 37 -4 74t-17.5 65.5t-37 47t-62.5 18.5q-37 0 -69 -18q-74 -31 -137.5 -91.5t-111.5 -135.5t-74.5 -156.5t-26.5 -151.5z" />
<glyph unicode="&#xd7;" horiz-adv-x="1071" d="M57 596q0 -29 7.5 -54.5t23.5 -45.5q35 -43 82 -43q29 0 59.5 14t59 35.5t54.5 46t48 45.5q39 39 86 39h10l-2 -2q51 -4 97.5 -27.5t85.5 -58.5q20 -23 51 -37t65 -14q53 0 88 34l9 13q12 8 16 14q31 33 47.5 75t16.5 85q0 27 -6.5 52.5t-22.5 47.5q-12 12 -19 21l-18 12 q-29 18 -63.5 25.5t-61.5 25.5l-2 2q-6 8 -6 21q0 16 10 31.5t21 27.5q37 33 76.5 62.5t74.5 66.5q25 29 43.5 60.5t18.5 64.5q0 27 -16.5 49.5t-52.5 35.5t-77 13t-80 -13t-65 -42l-17 -18q-20 -20 -35.5 -41t-37.5 -43l-4 -9q-16 -16 -38 -29.5t-44 -13.5q-25 0 -41 19 q-25 23 -47.5 48.5t-44.5 49.5l-7 4q-23 12 -49 12q-35 0 -68.5 -16t-62.5 -43l-10 -10q-23 -25 -33 -55.5t-10 -61.5q0 -35 10 -64.5t27 -52.5q14 -20 33.5 -36.5t42.5 -32.5l-17 -19q-16 -31 -43 -55q-25 -27 -53.5 -46.5t-56.5 -41.5l-9 -8q-43 -49 -43 -119z" />
<glyph unicode="&#xd8;" horiz-adv-x="1431" d="M41 700q0 -117 18.5 -228.5t59.5 -207.5q-12 -25 -20.5 -51.5t-10.5 -54.5q0 -31 9 -69t26.5 -70.5t41 -56t54.5 -28.5q37 6 66.5 24.5t54.5 47.5q41 -18 86 -29.5t98 -11.5q141 0 261 56.5t216.5 154.5t169 229.5t120.5 281t73 309t25 313.5t-43 284.5t-129 216.5 q-4 18 -6.5 36t-10.5 34h2q-12 27 -26.5 56.5t-34 55t-45 42t-56.5 16.5q-59 0 -103 -43t-77 -98q-119 -14 -230.5 -70.5t-205.5 -142.5t-167 -196.5t-116 -233.5q-49 -141 -74.5 -284.5t-25.5 -281.5zM322 684v25q0 39 2 104.5t12 143t31.5 157.5t59.5 147.5t95.5 113.5 t139.5 57q-82 -207 -164 -399.5t-174 -370.5q-2 12 -2 22zM561 430q78 180 169 359.5t181 371.5q2 -16 2 -31v-30q0 -147 -26.5 -291.5t-110.5 -265.5q-37 -57 -93 -83t-110 -30h-12z" />
<glyph unicode="&#xd9;" horiz-adv-x="1349" d="M43 584q0 -109 27.5 -217.5t80 -195.5t130 -144.5t180.5 -61.5h6q72 0 137.5 23.5t140.5 46.5q119 35 211.5 122t155 202.5t95 249.5t34.5 265q2 72 5 142.5t3 142.5v55v68q0 154 6.5 304.5t40.5 301.5l2 4l9 56q0 31 -14.5 49t-36 27.5t-47 13.5t-48.5 10h4q-10 2 -18 2 h-17q-43 0 -90 -19.5t-88 -53t-69.5 -79t-32.5 -98.5l-2 -10q6 -117 6 -238q0 -408 -68 -813q-10 -55 -28.5 -115.5t-49 -111.5t-72.5 -85t-97 -36h-35l-29 12q-37 23 -61.5 59t-39 79t-19.5 91t-5 97q0 94 12.5 190.5t26.5 193.5t26.5 194.5t12.5 193.5q0 39 -5 77 t-17.5 67.5t-32 48t-47.5 18.5q-45 0 -87 -33.5t-75 -84t-53.5 -109t-20.5 -107.5q0 -41 6 -81t10 -80l-4 -25q-10 -154 -34.5 -305.5t-24.5 -302.5zM121 2218q0 -47 32.5 -75.5t80 -50t98.5 -40t90 -45.5q16 -10 29.5 -21.5t25.5 -25.5l10 -6q33 -20 84 -21q41 0 93.5 13.5 t98.5 36t77.5 51t31.5 57.5q0 27 -15 54.5t-38.5 53t-49.5 47t-44 33.5q-66 43 -143.5 74t-149.5 60q-29 12 -65 12q-53 0 -108.5 -25.5t-90.5 -77.5h2q-23 -18 -36 -48.5t-13 -55.5z" />
<glyph unicode="&#xda;" horiz-adv-x="1349" d="M43 584q0 -109 27.5 -217.5t80 -195.5t130 -144.5t180.5 -61.5h6q72 0 137.5 23.5t140.5 46.5q119 35 211.5 122t155 202.5t95 249.5t34.5 265q2 72 5 142.5t3 142.5v55v68q0 154 6.5 304.5t40.5 301.5l2 4l9 56q0 31 -14.5 49t-36 27.5t-47 13.5t-48.5 10h4q-10 2 -18 2 h-17q-43 0 -90 -19.5t-88 -53t-69.5 -79t-32.5 -98.5l-2 -10q6 -117 6 -238q0 -408 -68 -813q-10 -55 -28.5 -115.5t-49 -111.5t-72.5 -85t-97 -36h-35l-29 12q-37 23 -61.5 59t-39 79t-19.5 91t-5 97q0 94 12.5 190.5t26.5 193.5t26.5 194.5t12.5 193.5q0 39 -5 77 t-17.5 67.5t-32 48t-47.5 18.5q-45 0 -87 -33.5t-75 -84t-53.5 -109t-20.5 -107.5q0 -41 6 -81t10 -80l-4 -25q-10 -154 -34.5 -305.5t-24.5 -302.5zM373 2105q0 -72 42 -99.5t95 -27.5q82 0 166 45t164 115q45 43 95 89t94 99.5t79 114t49 131.5q0 76 -40 124t-103 48 q-66 0 -108 -34.5t-72.5 -84t-59.5 -102.5t-67 -90q-45 -43 -103.5 -68.5t-110 -56.5t-86 -75t-34.5 -122v-6z" />
<glyph unicode="&#xdb;" horiz-adv-x="1349" d="M43 584q0 -109 27.5 -217.5t80 -195.5t130 -144.5t180.5 -61.5h6q72 0 137.5 23.5t140.5 46.5q119 35 211.5 122t155 202.5t95 249.5t34.5 265q2 72 5 142.5t3 142.5v55v68q0 154 6.5 304.5t40.5 301.5l2 4l9 56q0 31 -14.5 49t-36 27.5t-47 13.5t-48.5 10h4q-10 2 -18 2 h-17q-43 0 -90 -19.5t-88 -53t-69.5 -79t-32.5 -98.5l-2 -10q6 -117 6 -238q0 -408 -68 -813q-10 -55 -28.5 -115.5t-49 -111.5t-72.5 -85t-97 -36h-35l-29 12q-37 23 -61.5 59t-39 79t-19.5 91t-5 97q0 94 12.5 190.5t26.5 193.5t26.5 194.5t12.5 193.5q0 39 -5 77 t-17.5 67.5t-32 48t-47.5 18.5q-45 0 -87 -33.5t-75 -84t-53.5 -109t-20.5 -107.5q0 -41 6 -81t10 -80l-4 -25q-10 -154 -34.5 -305.5t-24.5 -302.5zM162 2023q2 -59 31.5 -102t76.5 -43q39 0 69 22.5t56.5 56.5t51 72.5t53.5 71.5h-2q23 27 43 55.5t41.5 58.5t45 56.5 t52.5 46.5q33 -33 66.5 -68.5t71.5 -66.5t83 -51.5t100 -20.5q35 0 68 9l12 2q45 16 81 48t60.5 74t37 89t12.5 94q0 45 -8 78v4q-18 43 -48 71.5t-65 48t-74 34t-74.5 32t-65.5 41t-48 62.5q-37 51 -101 51q-72 0 -124 -44t-96 -107.5t-81.5 -131t-76.5 -112.5 q-35 -45 -66 -89.5t-57 -91.5h2q-16 -31 -37 -58.5t-39 -56t-31.5 -58t-19.5 -64.5v-13z" />
<glyph unicode="&#xdc;" horiz-adv-x="1349" d="M43 584q0 -109 27.5 -217.5t80 -195.5t130 -144.5t180.5 -61.5h6q72 0 137.5 23.5t140.5 46.5q119 35 211.5 122t155 202.5t95 249.5t34.5 265q2 72 5 142.5t3 142.5v55v68q0 154 6.5 304.5t40.5 301.5l2 4l9 56q0 31 -14.5 49t-36 27.5t-47 13.5t-48.5 10h4q-10 2 -18 2 h-17q-43 0 -90 -19.5t-88 -53t-69.5 -79t-32.5 -98.5l-2 -10q6 -117 6 -238q0 -408 -68 -813q-10 -55 -28.5 -115.5t-49 -111.5t-72.5 -85t-97 -36h-35l-29 12q-37 23 -61.5 59t-39 79t-19.5 91t-5 97q0 94 12.5 190.5t26.5 193.5t26.5 194.5t12.5 193.5q0 39 -5 77 t-17.5 67.5t-32 48t-47.5 18.5q-45 0 -87 -33.5t-75 -84t-53.5 -109t-20.5 -107.5q0 -41 6 -81t10 -80l-4 -25q-10 -154 -34.5 -305.5t-24.5 -302.5zM133 2001q0 -63 32 -104.5t81 -41.5q37 0 81 27t85 70t72.5 98.5t41.5 114.5l4 16q4 23 5 45v47v23q0 27 -2.5 53.5 t-9.5 48t-21.5 35.5t-40.5 14q-59 0 -117.5 -45t-106 -112.5t-76 -145.5t-28.5 -143zM612 2154q0 -66 35 -111.5t92 -45.5q51 0 115 37t122 94t105.5 127.5t65.5 138.5l4 19q0 23 1 45t1 45q0 37 -4 73.5t-17.5 65.5t-37 47t-62.5 18q-37 0 -69 -18q-74 -31 -137.5 -91.5 t-111.5 -135t-75 -156.5t-27 -152z" />
<glyph unicode="&#xdd;" horiz-adv-x="1335" d="M43 1393q0 -47 14.5 -83t36.5 -65q37 -51 77 -109.5t74 -126t55.5 -142t21.5 -158.5q0 -113 -16.5 -221.5t-16.5 -221.5q0 -47 8 -91t25.5 -78t47 -55.5t72.5 -21.5h23q55 0 96 33t69.5 83t43 111.5t14.5 117.5q0 98 -14.5 194t-14.5 195v12q16 96 57.5 186t96.5 176 t118.5 172t127.5 175q39 55 80 114.5t73.5 122t55 126t24.5 126.5v10q0 51 -16 92t-57 56v-2q-31 14 -76 14q-49 0 -89 -19.5t-73 -50t-60.5 -69.5t-52.5 -78h2q-53 -78 -87.5 -163t-67.5 -168t-75 -155.5t-112 -123.5h-8q-23 0 -40 28.5t-35.5 71.5t-39 92t-47 92t-60.5 72 t-81 29h-2q-29 -14 -57.5 -45t-53 -70t-42 -82t-19.5 -80v-22zM299 2118q0 -72 42 -99.5t95 -27.5q82 0 166 44.5t164 114.5q45 43 95 89.5t94 99.5t79 113.5t49 132.5q0 76 -39.5 124t-103.5 48q-66 0 -107.5 -35t-72.5 -84t-59.5 -102.5t-67.5 -90.5q-45 -43 -103.5 -68.5 t-109.5 -56t-86 -74.5t-35 -122v-6z" />
<glyph unicode="&#xde;" horiz-adv-x="1605" d="M43 246q2 -47 15.5 -93.5t41.5 -74.5v2q10 -12 24.5 -17.5t29.5 -9.5h12q43 0 85 13.5t87 13.5q47 -4 95 -13.5t99 -9.5h21q47 2 94 23.5t86 56.5t66.5 83t34.5 106v14q0 47 -21.5 71.5t-52.5 41.5q94 12 195.5 51t197.5 105.5t182.5 160.5t147.5 217q33 72 54.5 145.5 t25.5 145.5q0 100 -32 175t-83 127t-115.5 86t-132.5 54q-41 10 -74 11q-70 0 -145.5 -26t-146.5 -54q23 20 37 46.5t14 67.5v27q-4 33 -12.5 65.5t-23.5 59.5t-38 43t-53 16q-41 0 -82 -12t-82 -27.5t-81 -32t-77 -24.5q-49 -10 -98 -46t-89 -85t-67.5 -108.5t-34.5 -116.5 q0 -37 15.5 -57.5t38 -32t48 -18.5t48.5 -17q4 -35 7 -70t3 -72q0 -131 -16.5 -262t-20.5 -260q0 -49 4.5 -98t4.5 -98q-4 -39 -22.5 -62.5t-44.5 -40t-55.5 -31t-55 -33t-42 -47t-16.5 -75.5v-4zM670 944q0 37 5 75t20.5 72.5t41 65.5t68.5 49q41 4 84 19.5t84 15.5 q35 0 60.5 -20.5t25.5 -61.5q0 -39 -11.5 -82t-33 -79.5t-52 -63.5t-69.5 -31q-49 -16 -97 -33.5t-81 -17.5q-16 0 -25.5 9t-13.5 22.5t-5 30t-1 30.5z" />
<glyph unicode="&#xe0;" d="M14 195q0 -31 7.5 -64t22.5 -60.5t37.5 -45t53.5 -17.5q33 0 53.5 14.5t34 38t24.5 51t23 54.5v6q0 6 9 14v13q16 33 48.5 47t61.5 14h33q68 0 137.5 -20.5t112.5 -89.5q16 -57 64 -89t104 -32q39 0 84 10t82.5 32.5t66.5 58.5t39 87v19q4 29 6 58.5t2 59.5 q0 141 -33.5 270.5t-76.5 255.5t-84 251.5t-58 265.5q-10 92 -70.5 142t-138.5 50q-49 0 -94 -19.5t-84 -52t-68.5 -77.5t-50.5 -94q-117 -295 -203.5 -569.5t-140.5 -536.5q-2 -8 -3 -16.5t-1 -18.5v-10zM268 1919q0 -41 28 -68.5t67.5 -48t81.5 -36t73 -33.5l-2 2 q10 -10 23.5 -19.5t23.5 -19.5l8 -6q16 -12 37 -16.5t43 -4.5q57 0 122 26.5t108 61.5l4 4q4 4 9 11l5 8v-4q12 18 12 41q0 25 -13 49t-32.5 46.5t-42 41t-39.5 28.5h2q-23 14 -53.5 32t-63 33t-66.5 27.5t-60 18.5l4 -2q-12 6 -28.5 9t-33.5 3q-23 0 -59.5 -13t-71.5 -36.5 t-60.5 -57.5t-25.5 -77zM406 651v4q10 59 40.5 109.5t67.5 124.5q18 -4 31.5 -21.5t21.5 -41t11.5 -49t3.5 -46.5v-10q0 -23 -12.5 -40t-30.5 -26l-27 -18l2 2q-16 -8 -33.5 -15.5t-40.5 -13.5h-6q-14 0 -21 12.5t-7 28.5z" />
<glyph unicode="&#xe1;" d="M14 195q0 -31 7.5 -64t22.5 -60.5t37.5 -45t53.5 -17.5q33 0 53.5 14.5t34 38t24.5 51t23 54.5v6q0 6 9 14v13q16 33 48.5 47t61.5 14h33q68 0 137.5 -20.5t112.5 -89.5q16 -57 64 -89t104 -32q39 0 84 10t82.5 32.5t66.5 58.5t39 87v16q4 31 6 61t2 60 q0 141 -33.5 270.5t-76.5 255.5t-84 251.5t-58 265.5q-10 92 -70.5 142t-138.5 50q-49 0 -94 -19.5t-84 -52t-68.5 -77.5t-50.5 -94q-117 -295 -203.5 -569.5t-140.5 -536.5q-2 -8 -3 -16.5t-1 -18.5v-10zM262 1751q0 -72 39 -97.5t90 -25.5q72 0 142.5 38t136.5 95v2 q37 37 79 76t78.5 81t64.5 91t38 109q0 72 -38 116.5t-97 44.5t-96 -29.5t-64 -69.5t-48.5 -84t-51.5 -70q-20 -18 -50 -34t-59 -32h2q-31 -16 -61.5 -32.5t-53 -39t-37 -55.5t-14.5 -78v-6zM406 651v4q10 59 40.5 109.5t67.5 124.5q18 -4 31.5 -21.5t21.5 -41t11.5 -49 t3.5 -46.5v-10q0 -23 -12.5 -40t-30.5 -26l-27 -18l2 2q-16 -8 -33.5 -15.5t-40.5 -13.5h-6q-14 0 -21 12.5t-7 28.5z" />
<glyph unicode="&#xe2;" d="M14 195q0 -31 7.5 -64t22.5 -60.5t37.5 -45t53.5 -17.5q33 0 53.5 14.5t34 38t24.5 51t23 54.5v2v-2v2q0 2 -2 2v2q0 4 11 14v13q16 33 48.5 47t61.5 14h33q68 0 137.5 -20.5t112.5 -89.5q16 -57 64 -89t104 -32q39 0 84 10t82.5 32.5t66.5 58.5t39 87v16q4 31 6 61t2 60 q0 141 -33.5 270.5t-76.5 255.5t-84 251.5t-58 265.5q-10 92 -70.5 142t-138.5 50q-49 0 -94 -19.5t-84 -52t-68.5 -77.5t-50.5 -94q-117 -295 -203.5 -569.5t-140.5 -536.5q-2 -8 -3 -16.5t-1 -18.5v-10zM137 1577q2 -53 31 -95t76 -42q39 0 71.5 26.5t60 62.5t51.5 72.5 t46 57.5h-6q25 33 48.5 66.5t53.5 60.5l23 -23q23 -25 48.5 -48t54 -43.5t61 -33t73.5 -12.5q27 0 54 8h10q43 14 74.5 43t53 65t33 77t11.5 82q0 16 -1 33.5t-5 33.5v2q-25 57 -68 85t-88 47.5t-86 40t-61 65.5q-35 49 -97 49q-61 0 -107 -37t-83 -88t-67.5 -106.5 t-61.5 -92.5q-23 -29 -44.5 -60.5t-39.5 -61t-32.5 -52t-20.5 -33.5q-23 -33 -42.5 -65.5t-23.5 -71.5v-12zM406 651v4q10 59 40.5 109.5t67.5 124.5q18 -4 31.5 -21.5t21.5 -41t11.5 -49t3.5 -46.5v-10q0 -23 -12.5 -40t-30.5 -26l-27 -18l2 2q-16 -8 -33.5 -15.5 t-40.5 -13.5h-6q-14 0 -21 12.5t-7 28.5z" />
<glyph unicode="&#xe3;" d="M14 195q0 -31 7.5 -64t22.5 -60.5t37.5 -45t53.5 -17.5q33 0 53.5 14.5t34 38t24.5 51t23 54.5v8q0 4 9 12v13q16 33 48.5 47t61.5 14h33q68 0 137.5 -20.5t112.5 -89.5q16 -57 64 -89t104 -32q39 0 84 10t82.5 32.5t66.5 58.5t39 87v16q4 31 6 61t2 60 q0 141 -33.5 270.5t-76.5 255.5t-84 251.5t-58 265.5q-10 92 -70.5 142t-138.5 50q-49 0 -94 -19.5t-84 -52t-68.5 -77.5t-50.5 -94q-117 -295 -203.5 -569.5t-140.5 -536.5q-2 -8 -3 -16.5t-1 -18.5v-10zM57 1642q0 -45 27 -70.5t61 -25.5q35 0 57.5 21.5t41 46t37 46 t45.5 21.5q16 0 31.5 -8t30.5 -17t34.5 -16.5t44.5 -7.5h33q68 0 136.5 31t134 83t123.5 119.5t107 141.5q14 23 28 45t20 49v8q0 61 -42 96.5t-98 35.5q-43 0 -68.5 -15.5t-44 -38t-31.5 -51.5t-30 -55l4 6q-18 -20 -40.5 -42t-46 -40t-46 -29.5t-43.5 -11.5q-23 0 -43 7 t-41.5 16.5t-43 16.5t-44.5 7q-51 0 -106.5 -37t-102.5 -87t-79.5 -105.5t-39.5 -91.5zM406 651v4q10 59 40.5 109.5t67.5 124.5q18 -4 31.5 -21.5t21.5 -41t11.5 -49t3.5 -46.5v-10q0 -23 -12.5 -40t-30.5 -26l-27 -18l2 2q-16 -8 -33.5 -15.5t-40.5 -13.5h-6 q-14 0 -21 12.5t-7 28.5z" />
<glyph unicode="&#xe4;" d="M14 195q0 -31 7.5 -64t22.5 -60.5t37.5 -45t53.5 -17.5q33 0 53.5 14.5t34 38t24.5 51t23 54.5v6q0 6 9 14v13q16 33 48.5 47t61.5 14h33q68 0 137.5 -20.5t112.5 -89.5q16 -57 64 -89t104 -32q39 0 84 10t82.5 32.5t66.5 58.5t39 87v16q4 31 6 61t2 60 q0 141 -33.5 270.5t-76.5 255.5t-84 251.5t-58 265.5q-10 92 -70.5 142t-138.5 50q-49 0 -94 -19.5t-84 -52t-68.5 -77.5t-50.5 -94q-117 -295 -203.5 -569.5t-140.5 -536.5q-2 -8 -3 -16.5t-1 -18.5v-10zM238 1630q0 -59 30.5 -97t79.5 -38q31 0 70 22.5t74.5 59.5t63.5 84 t36 96v-2l4 12q2 18 2 39v43v11q0 25 -1 51t-8 47.5t-23.5 36t-45.5 14.5q-51 0 -101 -38t-90 -94t-65.5 -122.5t-25.5 -124.5zM406 651v4q10 59 40.5 109.5t67.5 124.5q18 -4 31.5 -21.5t21.5 -41t11.5 -49t3.5 -46.5v-10q0 -23 -12.5 -40t-30.5 -26l-27 -18l2 2 q-16 -8 -33.5 -15.5t-40.5 -13.5h-6q-14 0 -21 12.5t-7 28.5zM621 1753q0 -59 33.5 -102t86.5 -43q45 0 98.5 30.5t103.5 78.5t90 106.5t57 115.5v5l2 51q0 10 1 18t1 19q0 33 -4.5 66.5t-16.5 59t-34.5 42t-61.5 16.5q-16 0 -32.5 -4t-33.5 -14l2 2q-61 -25 -114.5 -76 t-93 -113.5t-62 -130.5t-22.5 -127z" />
<glyph unicode="&#xe5;" d="M14 195q0 -31 7.5 -64t22.5 -60.5t37.5 -45t53.5 -17.5q33 0 53.5 14.5t34 38t24.5 51t23 54.5v8q0 4 9 12v13q16 33 48.5 47t61.5 14h33q68 0 137.5 -20.5t112.5 -89.5q16 -57 64 -89t104 -32q39 0 84 10t82.5 32.5t66.5 58.5t39 87v19q4 29 6 58.5t2 59.5 q0 141 -33.5 270.5t-76.5 255.5t-84 251.5t-58 265.5q-10 63 -37 102q49 35 89.5 83t62.5 110h2q14 47 27.5 98t13.5 102t-19.5 95.5t-53 77t-76.5 52t-93 19.5q-43 0 -93 -14.5t-99 -40t-95 -62.5t-81 -82v2q-4 -10 -10.5 -17t-10.5 -13h4q-23 -49 -33 -103.5t-10 -101.5 q0 -61 23.5 -119.5t69.5 -99.5q-27 -31 -48.5 -66t-38.5 -73q-117 -295 -203.5 -569.5t-140.5 -536.5q-2 -8 -3 -16.5t-1 -18.5v-10zM406 651v4q10 59 40.5 109.5t67.5 124.5q18 -4 31.5 -21.5t21.5 -41t11.5 -49t3.5 -46.5v-10q0 -23 -12.5 -40t-30.5 -26l-27 -18l2 2 q-16 -8 -33.5 -15.5t-40.5 -13.5h-6q-14 0 -21 12.5t-7 28.5zM537 1765v11q2 25 10 48t22.5 43.5t35 33t44.5 12.5q25 0 44.5 -12.5t21.5 -36.5v-4q4 -16 4 -21q0 -63 -38 -104t-93 -49l-4 -3q-23 8 -35 32t-12 50z" />
<glyph unicode="&#xe6;" horiz-adv-x="1767" d="M14 195q0 -31 7.5 -64t22.5 -60.5t37.5 -45t53.5 -17.5q33 0 53.5 14.5t34 38t24.5 51t23 54.5v2q0 2 -2 2v2q0 4 11 14v13q16 33 48.5 47t61.5 14h33q35 0 70.5 -4t69.5 -16.5t62.5 -34t51.5 -55.5l-4 6q14 -70 64 -98.5t102 -28.5h28h21q12 0 22 4h4q47 -10 96.5 -19.5 t104.5 -9.5q41 0 83 5t89 9h111q70 0 137 42t102 118q12 31 22.5 64.5t10.5 68.5q0 59 -44 95t-97 36q-27 0 -53.5 -7t-53 -15t-54.5 -15.5t-56 -7.5q-27 0 -50.5 4.5t-50.5 4.5q-53 0 -102 -13.5t-92 -13.5q-25 0 -41.5 14.5t-16.5 42.5v17q2 31 7.5 52t17.5 36.5t33.5 28 t58.5 22.5q33 10 64.5 18t60.5 8h55q45 0 89.5 25t79 63.5t56 89t21.5 103.5q0 66 -44 101.5t-101 35.5q-37 0 -80 -14t-86 -31.5t-83 -32t-67 -16.5q-10 8 -10 33v14q0 76 40 116t101.5 63.5t136 37t142.5 35.5l-2 -2q47 8 103.5 36t104.5 71t80.5 99t32.5 120v16 q0 51 -26.5 89t-75.5 38h-4q-115 -16 -217.5 -55t-198.5 -86t-189 -92t-192 -70q-10 88 -70.5 136t-136.5 48q-49 0 -94 -19.5t-84 -52t-68.5 -77.5t-50.5 -94q-117 -295 -203.5 -569.5t-140.5 -536.5q-2 -8 -3 -16.5t-1 -18.5v-10zM406 651v4q10 59 40.5 109.5t67.5 124.5 q18 -4 31.5 -21.5t21.5 -41t11.5 -49t3.5 -46.5v-10q0 -23 -12.5 -40t-30.5 -26l-27 -18l2 2q-16 -8 -33.5 -15.5t-40.5 -13.5h-6q-14 0 -21 12.5t-7 28.5z" />
<glyph unicode="&#xe7;" horiz-adv-x="1085" d="M12 616q0 -102 15.5 -192t49.5 -166t89 -134t135 -95q6 -33 18.5 -62.5t24.5 -77.5v-2q-6 -53 -29.5 -104t-29.5 -105v-6q2 -59 36.5 -109t92.5 -57q61 8 103 49.5t69.5 98.5t43 123.5t23.5 128.5v8q0 2 -1 4t-1 6v2l2 11q-2 20 -3 39.5t-3 41.5q61 27 130 83.5 t127.5 126t96 144t37.5 136.5q0 49 -17 93t-47 77t-71 51.5t-88 18.5h-14q-45 -12 -74 -43t-51.5 -70t-42 -82t-44 -79t-57 -59.5t-81.5 -25.5h-2q-43 0 -70 25.5t-42 65.5t-20.5 88t-5.5 96q0 41 6.5 109.5t25.5 138t57 129t100 83.5q14 6 35 6q39 0 63.5 -23.5t49 -51 t53 -51t73.5 -23.5q51 0 103.5 28.5t94.5 73.5t69.5 101.5t31.5 113.5v15q0 59 -23.5 104t-50.5 86l2 -2q-23 45 -57.5 54.5t-75.5 9.5h-28q-20 0 -39 2t-35 10h2q-37 23 -88 22q-84 0 -166 -41.5t-154.5 -107.5t-133 -148.5t-99.5 -162.5q-59 -127 -87 -262.5t-28 -260.5z " />
<glyph unicode="&#xe8;" horiz-adv-x="1126" d="M12 172q0 -47 24.5 -88t65.5 -47h17q4 0 6 1t6 1q37 0 75 -8t79 -17.5t83 -16.5t89 -7q41 0 83 5t89 9h110q70 0 137.5 42t102.5 118q33 66 33 133q0 57 -44 94t-98 37q-27 0 -53 -7t-53 -15.5t-54.5 -15.5t-56.5 -7q-25 0 -50 3t-50 3q-53 0 -103.5 -12t-91.5 -12 q-18 0 -29.5 7t-17.5 16t-8 19.5t-2 14.5v14q4 35 14.5 71t38.5 52q27 4 70 21v-2q31 10 61.5 18t57.5 8q6 0 12 -1t14 -1h29q45 0 89 24.5t79 64.5t56.5 90t21.5 104q0 66 -43 101.5t-101 35.5q-37 0 -79.5 -14.5t-85.5 -32t-83 -31.5t-69 -16q-10 8 -10 33v14 q0 76 40 115.5t101 63.5t136 37t143 36l-2 -2q47 8 103 35.5t104.5 70.5t81 99.5t32.5 119.5v17q0 49 -26.5 87t-73.5 38h-6q-115 -16 -219.5 -55.5t-203 -86.5t-194.5 -92t-194 -72l-13 -8q-41 -33 -61.5 -84t-30.5 -102q-39 -262 -54.5 -513t-23.5 -501v-6zM211 1866 q0 -45 28.5 -71t68.5 -44t82 -33.5t71 -38.5q23 -14 45 -37l8 -4q16 -12 36.5 -16t43.5 -4q29 0 67.5 9t75.5 24.5t65.5 34t39.5 38.5v-2q12 18 12 41q0 25 -13.5 49.5t-33 48t-42 42t-38.5 28.5q-47 29 -97 50.5t-98 39.5l-43 19q-12 6 -28.5 9t-32.5 3q-23 0 -59.5 -13.5 t-71.5 -37t-60.5 -58t-25.5 -77.5z" />
<glyph unicode="&#xe9;" horiz-adv-x="1126" d="M12 172q0 -47 24.5 -88t65.5 -47h17q4 0 6 1t6 1q37 0 75 -8t79 -17.5t83 -16.5t89 -7q41 0 83 5t89 9h110q70 0 137.5 42t102.5 118q33 66 33 133q0 57 -44 94t-98 37q-27 0 -53 -7t-53 -15.5t-54.5 -15.5t-56.5 -7q-25 0 -50 3t-50 3q-53 0 -103.5 -12t-91.5 -12 q-18 0 -29.5 7t-17.5 16t-8 19.5t-2 14.5v14q4 35 14.5 71t38.5 52q27 4 70 21v-2q31 10 61.5 18t57.5 8q6 0 12 -1t14 -1h29q45 0 89 24.5t79 64.5t56.5 90t21.5 104q0 66 -43 101.5t-101 35.5q-37 0 -79.5 -14.5t-85.5 -32t-83 -31.5t-69 -16q-10 8 -10 33v14 q0 76 40 115.5t101 63.5t136 37t143 36l-2 -2q47 8 103 35.5t104.5 70.5t81 99.5t32.5 119.5v17q0 49 -26.5 87t-73.5 38h-6q-115 -16 -219.5 -55.5t-203 -86.5t-194.5 -92t-194 -72l-13 -8q-41 -33 -61.5 -84t-30.5 -102q-39 -262 -54.5 -513t-23.5 -501v-6zM254 1669 q0 -72 39 -97.5t90 -25.5q72 0 142.5 38t136.5 95v2q37 37 78.5 76t78.5 81t64.5 91t38.5 109q0 72 -38 117t-98 45q-59 0 -96 -30t-63.5 -70t-48 -84t-52.5 -70q-20 -18 -50 -34t-58 -32h2q-31 -16 -61.5 -32.5t-53 -39t-37 -55.5t-14.5 -78v-6z" />
<glyph unicode="&#xea;" horiz-adv-x="1126" d="M12 172q0 -47 24.5 -88t65.5 -47h17q4 0 6 1t6 1q37 0 75 -8t79 -17.5t83 -16.5t89 -7q41 0 83 5t89 9h110q70 0 137.5 42t102.5 118q33 66 33 133q0 57 -44 94t-98 37q-27 0 -53 -7t-53 -15.5t-54.5 -15.5t-56.5 -7q-25 0 -50 3t-50 3q-53 0 -103.5 -12t-91.5 -12 q-18 0 -29.5 7t-17.5 16t-8 19.5t-2 14.5v14q4 35 14.5 71t38.5 52q27 4 70 21v-2q31 10 61.5 18t57.5 8q6 0 12 -1t14 -1h29q45 0 89 24.5t79 64.5t56.5 90t21.5 104q0 66 -43 101.5t-101 35.5q-37 0 -79.5 -14.5t-85.5 -32t-83 -31.5t-69 -16q-10 8 -10 33v14 q0 76 40 115.5t101 63.5t136 37t143 36l-2 -2q47 8 103 35.5t104.5 70.5t81 99.5t32.5 119.5v17q0 49 -26.5 87t-73.5 38h-6q-115 -16 -219.5 -55.5t-203 -86.5t-194.5 -92t-194 -72l-13 -8q-41 -33 -61.5 -84t-30.5 -102q-39 -262 -54.5 -513t-23.5 -501v-6zM66 1604 q2 -55 31.5 -96.5t76.5 -41.5q35 0 62.5 19.5t50 47.5t43 60.5t43.5 59.5q35 39 62.5 82t64.5 75q18 -27 45.5 -54t61.5 -51t73 -38t78 -14q29 0 59 6h2q43 14 76 43t55.5 64.5t33.5 76.5t11 82q0 37 -6 68v2q-23 57 -66.5 85.5t-90 48t-86 39t-58.5 56.5q-20 31 -46 45.5 t-54 14.5q-63 0 -107.5 -36t-80 -87.5t-66.5 -106.5t-66 -94q-29 -41 -58.5 -84t-59.5 -94l-15 -23q-23 -35 -43 -67.5t-26 -73.5v-14z" />
<glyph unicode="&#xeb;" horiz-adv-x="1126" d="M12 172q0 -47 24.5 -88t65.5 -47h17q4 0 6 1t6 1q37 0 75 -8t79 -17.5t83 -16.5t89 -7q41 0 85 5t89 9h108q70 0 137.5 42t102.5 118q33 66 33 133q0 57 -44 94t-98 37q-27 0 -53 -7t-53 -15.5t-54.5 -15.5t-56.5 -7q-25 0 -50 3t-50 3q-53 0 -103.5 -12t-91.5 -12 q-18 0 -29.5 7t-17.5 16t-8 19.5t-2 14.5v14q4 35 14.5 71t38.5 52q27 4 70 21v-2q31 10 61.5 18t57.5 8q6 0 12 -1t14 -1h29q45 0 89 24.5t79 64.5t56.5 90t21.5 104q0 66 -43 101.5t-101 35.5q-37 0 -79.5 -14.5t-85.5 -32t-83 -31.5t-69 -16q-10 8 -10 33v14 q0 76 40 115.5t101 63.5t136 37t143 36l-2 -2q47 8 103 35.5t104.5 70.5t81 99.5t32.5 119.5v17q0 49 -26.5 87t-73.5 38h-6q-115 -16 -219.5 -55.5t-203 -86.5t-194.5 -92t-194 -72l-13 -8q-41 -33 -61.5 -84t-30.5 -102q-39 -262 -54.5 -513t-23.5 -501v-6zM147 1653 q0 -59 32 -98t79 -39q33 0 72 22.5t74.5 59t63.5 85t36 97.5l-2 -2l6 18q2 18 2 37v37v10q0 25 -1 51.5t-9 48t-23.5 36t-46.5 14.5q-49 0 -100 -37t-91 -93.5t-66 -123t-26 -123.5zM532 1776q0 -59 34 -103.5t87 -44.5q45 0 98.5 31t103.5 79t89 106.5t55 115.5v2l5 55 q0 10 1 18.5t1 18.5q0 33 -4.5 65.5t-16.5 59.5t-35.5 43t-60.5 16q-33 0 -66 -16q-61 -27 -113.5 -78t-92 -113.5t-62.5 -130t-23 -124.5z" />
<glyph unicode="&#xec;" horiz-adv-x="741" d="M14 217q2 -35 13.5 -70.5t40.5 -76.5h-2q4 -6 14 -17.5t20 -21.5v16q12 -4 21 -4h12q31 0 62.5 10t72.5 10q37 -4 75 -11t83 -7h16q43 2 84 20.5t75 49t57.5 71.5t29.5 93v14q0 49 -24.5 73.5t-56.5 38t-64.5 22.5t-50.5 30q-31 82 -31 149q0 72 10 145.5t21 149.5v-2 q10 59 17 120.5t11 127.5q-2 10 -2 27q0 10 2 18v8q6 31 39 49.5t71 40t68.5 53t30.5 91.5v22q-4 29 -12 58.5t-22.5 53t-36 39t-52.5 15.5q-35 0 -67.5 -9t-65.5 -22.5t-64.5 -27t-64.5 -19.5q-41 -10 -83 -39.5t-76.5 -71.5t-58.5 -92.5t-28 -99.5q0 -33 11.5 -53.5 t30 -32.5t40 -19.5t39.5 -11.5q6 -47 6 -98q0 -104 -12 -208.5t-16 -209.5q0 -39 3 -79t3 -78q-4 -33 -28.5 -50.5t-51.5 -33.5h2q-20 -10 -41 -21.5t-36 -28t-24.5 -40t-9.5 -56.5v-4zM14 1880q0 -41 28 -68.5t65.5 -48t80.5 -36t74 -33.5q6 -6 10 -8.5t9.5 -4.5t10.5 -7 t13 -19l10 -6q16 -10 37 -14.5t43 -4.5q57 0 122 26.5t108 61.5l-7 -2q37 12 37 60q0 25 -13 49t-32.5 47.5t-42 42t-39.5 29.5h2q-31 20 -71.5 41.5t-82.5 39t-81 28.5t-64 11q-23 0 -59.5 -12t-71 -35.5t-60.5 -58.5t-26 -78z" />
<glyph unicode="&#xed;" horiz-adv-x="741" d="M14 217q2 -35 13.5 -70.5t40.5 -76.5h-2q4 -6 14 -17.5t20 -21.5v16q12 -4 21 -4h12q31 0 62.5 10t72.5 10q37 -4 75 -11t83 -7h16q43 2 84 20.5t75 49t57.5 71.5t29.5 93v14q0 49 -24.5 73.5t-56.5 38t-64.5 22.5t-50.5 30q-31 82 -31 149q0 72 10 145.5t21 149.5v-2 q10 59 17 120.5t11 127.5q-2 10 -2 27q0 10 2 18v8q6 31 39 49.5t71 40t68.5 53t30.5 91.5v22q-4 29 -12 58.5t-22.5 53t-36 39t-52.5 15.5q-35 0 -67.5 -9t-65.5 -22.5t-64.5 -27t-64.5 -19.5q-41 -10 -83 -39.5t-76.5 -71.5t-58.5 -92.5t-28 -99.5q0 -33 11.5 -53.5 t30 -32.5t40 -19.5t39.5 -11.5q6 -47 6 -98q0 -104 -12 -208.5t-16 -209.5q0 -37 3 -78t3 -77q-4 -35 -27.5 -52.5t-52.5 -33.5h2q-20 -10 -41 -21.5t-36 -28t-24.5 -40t-9.5 -56.5v-4zM80 1694q0 -72 39 -97.5t90 -25.5q72 0 142.5 38t135.5 95v2q37 37 78 75t77 81 t64.5 92t41.5 108q0 72 -38 117t-98 45q-59 0 -96 -29.5t-63.5 -69.5t-48 -84t-52.5 -71q-20 -18 -50 -33.5t-58 -31.5h2q-31 -16 -61.5 -33t-53 -39.5t-37 -55t-14.5 -77.5v-6z" />
<glyph unicode="&#xee;" horiz-adv-x="741" d="M-20 1589q2 -53 30.5 -94t75.5 -41q37 0 65.5 20.5t55 52.5t52.5 70.5t54 75.5h-4q25 31 49.5 65t53.5 60l18 -16q25 -25 49.5 -50.5t54 -45t63.5 -33t75 -13.5q29 0 57 7h2q86 31 132 107.5t46 158.5q0 14 -2 29.5t-6 31.5v8q-25 57 -66.5 85t-87 47.5t-87.5 41 t-62 66.5q-37 49 -96 49q-61 0 -107.5 -36.5t-83.5 -88t-67.5 -108t-61.5 -92.5q-33 -41 -60.5 -90.5t-72.5 -108.5q-23 -35 -43 -68.5t-26 -74.5v-15zM14 217q2 -35 13.5 -70.5t40.5 -76.5h-2q4 -6 14 -17.5t20 -21.5v16q12 -4 21 -4h12q31 0 62.5 10t72.5 10q37 -4 75 -11 t83 -7h16q43 2 84 20.5t75 49t57.5 71.5t29.5 93v14q0 49 -24.5 73.5t-56.5 38t-64.5 22.5t-50.5 30q-31 82 -31 149q0 72 10 145.5t21 149.5v-2q10 59 17 120.5t11 127.5q-2 10 -2 27q0 10 2 18v8q6 31 39 49.5t71 40t68.5 53t30.5 91.5v22q-4 29 -12 58.5t-22.5 53t-36 39 t-52.5 15.5q-35 0 -67.5 -9t-65.5 -22.5t-64.5 -27t-64.5 -19.5q-41 -10 -83 -39.5t-76.5 -71.5t-58.5 -92.5t-28 -99.5q0 -33 11.5 -53.5t30 -32.5t40 -19.5t39.5 -11.5q6 -47 6 -98q0 -104 -12 -208.5t-16 -209.5q0 -37 3 -78t3 -77q-4 -35 -27.5 -52.5t-52.5 -33.5h2 q-20 -10 -41 -21.5t-36 -28t-24.5 -40t-9.5 -56.5v-4z" />
<glyph unicode="&#xef;" horiz-adv-x="741" d="M-23 1657q0 -59 32 -98t79 -39q33 0 72 22.5t74.5 59t62.5 85t37 97.5v2l2 14v-2q4 18 4 37v41v10q0 25 -1 51.5t-9 48t-23.5 36t-46.5 14.5q-51 0 -101 -38t-90 -94.5t-66 -123t-26 -123.5zM14 217q2 -35 13.5 -70.5t40.5 -76.5h-2q4 -6 14 -17.5t20 -21.5v16 q12 -4 21 -4h12q31 0 62.5 10t72.5 10q37 -4 75 -11t83 -7h16q43 2 84 20.5t75 49t57.5 71.5t29.5 93v14q0 49 -24.5 73.5t-56.5 38t-64.5 22.5t-50.5 30q-31 82 -31 149q0 72 10 145.5t21 149.5v-2q10 59 17 120.5t11 127.5q-2 10 -2 27q0 10 2 18v8q6 31 39 49.5t71 40 t68.5 53t30.5 91.5v22q-4 29 -12 58.5t-22.5 53t-36 39t-52.5 15.5q-35 0 -67.5 -9t-65.5 -22.5t-64.5 -27t-64.5 -19.5q-41 -10 -83 -39.5t-76.5 -71.5t-58.5 -92.5t-28 -99.5q0 -33 11.5 -53.5t30 -32.5t40 -19.5t39.5 -11.5q6 -47 6 -98q0 -104 -12 -208.5t-16 -209.5 q0 -37 3 -78t3 -77q-4 -35 -27.5 -52.5t-52.5 -33.5h2q-20 -10 -41 -21.5t-36 -28t-24.5 -40t-9.5 -56.5v-4zM360 1780q0 -59 34 -102.5t89 -43.5q45 0 98.5 31t103.5 79t89 106.5t55 115.5l5 55q0 10 1 18.5t1 18.5q0 33 -4.5 67t-16.5 59.5t-35.5 42t-62.5 16.5 q-16 0 -32.5 -3.5t-33.5 -13.5h2q-61 -25 -114.5 -76t-93 -113.5t-62.5 -130t-23 -126.5z" />
<glyph unicode="&#xf0;" horiz-adv-x="1118" d="M-104 655q0 -31 13 -54t34.5 -38.5t46 -25t47.5 -11.5l-4 -88q-2 -31 -4 -65.5t-5.5 -68.5t-5.5 -62.5t-4 -46.5v-15q0 -53 17.5 -103t68.5 -54q63 -10 134 -21.5t147 -11.5q70 0 143.5 13t143 47t131 90.5t108.5 140.5q86 156 141.5 320.5t55.5 350.5q0 123 -24.5 233.5 t-78.5 205.5v-2q-41 92 -113.5 131t-162.5 39q-68 0 -134.5 -19.5t-131 -49.5t-126 -61.5t-118.5 -56.5l-2 -2q-41 -18 -74 -66.5t-37 -99.5q-14 -90 -23 -176t-18 -174l-36 -6q-23 -10 -46.5 -31.5t-42 -48.5t-29.5 -56.5t-11 -56.5zM313 410v69v33q0 16 2 33 q80 6 134.5 66.5t64.5 148.5v-2q2 8 2 16v21q0 61 -39 103t-98 42q-10 -2 -17.5 -3t-13.5 -3l12 86v-4q6 20 22.5 32.5t38 18.5t44 8t41.5 2q43 0 81 -16.5t54 -61.5l-2 5q25 -111 25 -228q0 -55 -10.5 -114.5t-33 -112.5t-59.5 -94t-90 -62q-29 -16 -61.5 -28.5 t-61.5 -12.5q-16 0 -25.5 17.5t-9.5 40.5z" />
<glyph unicode="&#xf1;" horiz-adv-x="1089" d="M12 307q0 -47 2 -97t14.5 -90t39 -66.5t73.5 -28.5q29 0 64 19t71 62h-10q16 31 25.5 68t11.5 74v20q0 57 -7 107.5t-7 111.5v27v31q0 16 4 30q18 -4 32.5 -25.5t26.5 -43.5q0 -2 -7 6t-13 16.5t-8 10.5q0 8 30.5 -41t65.5 -154q20 -61 43.5 -123.5t57.5 -113t80 -82 t112 -31.5h4q57 0 110.5 39t75.5 100q51 156 81 313.5t47.5 318.5t25.5 321.5t14 322.5v-2q2 29 2 57q0 29 2 58v10q0 59 -33.5 83.5t-83.5 24.5q-53 0 -108 -26.5t-100 -70.5t-74 -100.5t-29 -115.5q0 -94 12.5 -174t12.5 -170v-8q-6 -47 -10.5 -98.5t-30.5 -92.5 q-20 6 -35.5 22.5t-28 38t-22.5 46t-19 43.5q-35 66 -61.5 134.5t-38.5 145.5q-12 70 -53 110t-99 40q-41 0 -75.5 -20.5t-60 -52t-42 -73.5t-22.5 -85q-25 -203 -43.5 -393.5t-18.5 -389.5v-43zM55 1542q0 -45 27 -70.5t61 -25.5q35 0 58.5 21.5t42 46t37 46t43.5 21.5 q10 0 21 -6t24 -14v2q31 -20 61.5 -25.5t67.5 -5.5q68 0 137.5 30.5t134 83t122.5 120t107 141.5q14 23 28 45t20 49v8q0 63 -42 97t-98 34q-37 0 -62.5 -14.5t-46 -37t-35.5 -50t-30 -53.5l4 4q-18 -20 -40.5 -43t-45 -41.5t-46 -29.5t-44.5 -11q-16 0 -27.5 7t-29 16 t-44 16.5t-71.5 7.5q-41 0 -81 -21.5t-76.5 -55.5t-69.5 -74t-60 -77q-29 -37 -34 -65.5t-13 -58.5v-17z" />
<glyph unicode="&#xf2;" horiz-adv-x="1144" d="M12 582q0 -115 22.5 -224.5t72 -195.5t127 -138.5t186.5 -52.5q113 0 215 48.5t186 132.5t146.5 196.5t97.5 241.5q31 113 48 239.5t17 237.5q0 98 -22.5 189.5t-66.5 161t-111.5 111.5t-157.5 44h-22q-109 0 -210.5 -42t-187.5 -115t-152.5 -170t-105.5 -208 q-82 -236 -82 -456zM193 1849q0 -43 28.5 -70.5t68.5 -47t82 -34t70 -32.5q20 -14 37 -33l19 -14q29 -16 73 -16q45 0 92.5 14t85 35.5t61.5 47t24 50.5t-13.5 49.5t-33 48t-42 42t-38.5 28.5q-53 35 -118 61.5t-118 46.5q-14 6 -28.5 8.5t-30.5 2.5q-25 0 -62 -13.5 t-72.5 -37t-60 -58.5t-24.5 -78zM279 588q0 45 4 126t25.5 165t64.5 156.5t121 101.5h-2q35 10 61 10q59 0 103.5 -39t50.5 -111q2 -25 3 -48t1 -48q0 -98 -14.5 -204.5t-65.5 -190.5q-41 -66 -90 -91.5t-82 -29.5h-51q-57 12 -93 71.5t-36 131.5z" />
<glyph unicode="&#xf3;" horiz-adv-x="1144" d="M12 582q0 -115 22.5 -224.5t72 -195.5t127 -138.5t186.5 -52.5q113 0 215 48.5t186 132.5t146.5 196.5t97.5 241.5q31 113 48 239.5t17 237.5q0 98 -22.5 189.5t-66.5 161t-111.5 111.5t-157.5 44h-22q-109 0 -210.5 -42t-187.5 -115t-152.5 -170t-105.5 -208 q-82 -236 -82 -456zM240 1675q0 -72 39.5 -97.5t91.5 -25.5q72 0 142.5 38t135.5 96v2q37 37 78 74.5t77 80.5t64.5 92.5t40.5 108.5q0 72 -37.5 118t-97.5 46q-59 0 -96 -29t-62.5 -70t-48 -85t-53.5 -72q-20 -18 -50 -33.5t-58 -32.5h2q-31 -16 -62 -32.5t-54.5 -39 t-37.5 -54t-14 -77.5v-8zM279 588q0 45 4 126t25.5 165t64.5 156.5t121 101.5h-2q35 10 61 10q59 0 103.5 -39t50.5 -111q2 -25 3 -48t1 -48q0 -98 -14.5 -204.5t-65.5 -190.5q-41 -66 -91.5 -91.5t-82.5 -29.5h-49q-57 12 -93 71.5t-36 131.5z" />
<glyph unicode="&#xf4;" horiz-adv-x="1144" d="M12 582q0 -115 22.5 -224.5t72 -195.5t127 -138.5t186.5 -52.5q113 0 215 48.5t186 132.5t146.5 196.5t97.5 241.5q31 113 48 239.5t17 237.5q0 98 -22.5 189.5t-66.5 161t-111.5 111.5t-157.5 44h-22q-109 0 -210.5 -42t-187.5 -115t-152.5 -170t-105.5 -208 q-82 -236 -82 -456zM104 1597q2 -53 31 -94t76 -41q37 0 65.5 20.5t55 52.5t52.5 71t54 75h-4q25 31 49.5 65t53.5 60l18 -16q25 -25 49.5 -50.5t54 -45t63.5 -32.5t75 -13q29 0 57 6h2q43 14 76 42.5t55.5 64.5t33.5 77t11 82q0 14 -1 29.5t-5 31.5v9q-25 57 -66.5 84.5 t-87 47t-87.5 41t-62 66.5q-37 49 -96 49q-61 0 -107.5 -36.5t-83.5 -88t-67.5 -107.5t-61.5 -93q-35 -49 -66.5 -98.5t-68.5 -104.5q-23 -35 -43 -67.5t-25 -73.5v-13zM279 588q0 45 4 126t25.5 165t64.5 156.5t121 101.5h-2q35 10 61 10q59 0 103.5 -39t50.5 -111 q2 -25 3 -48t1 -48q0 -98 -14.5 -204.5t-65.5 -190.5q-41 -66 -91.5 -91.5t-82.5 -29.5h-49q-57 12 -93 71.5t-36 131.5z" />
<glyph unicode="&#xf5;" horiz-adv-x="1144" d="M12 582q0 -115 22.5 -224.5t72 -195.5t127 -138.5t186.5 -52.5q113 0 215 48.5t186 132.5t146.5 196.5t97.5 241.5q31 113 48 239.5t17 237.5q0 98 -22.5 189.5t-66.5 161t-111.5 111.5t-157.5 44h-22q-109 0 -210.5 -42t-187.5 -115t-152.5 -170t-105.5 -208 q-82 -236 -82 -456zM80 1608q0 -45 26.5 -71t61.5 -26t58.5 21.5t42 46.5t37 46.5t42.5 21.5q10 0 21.5 -6.5t23.5 -14.5v2q31 -20 61.5 -25.5t67.5 -5.5q68 0 137.5 31t134 83t123 119.5t107.5 141.5q14 23 27.5 45t19.5 49v9q0 63 -42 97t-97 34q-37 0 -62.5 -14.5 t-46 -37t-36 -50t-29.5 -54.5l4 4q-18 -20 -41 -42.5t-45.5 -41t-46 -30t-43.5 -11.5q-16 0 -27.5 7.5t-29 16.5t-44 16t-71.5 7q-41 0 -81 -21.5t-77 -55t-69.5 -73.5t-59.5 -77q-29 -37 -34 -65.5t-13 -59.5v-16zM279 588q0 45 4 126t25.5 165t64.5 156.5t121 101.5h-2 q35 10 61 10q59 0 103.5 -39t50.5 -111q2 -25 3 -48t1 -48q0 -98 -14.5 -204.5t-65.5 -190.5q-41 -66 -91.5 -91.5t-82.5 -29.5h-49q-57 12 -93 71.5t-36 131.5z" />
<glyph unicode="&#xf6;" horiz-adv-x="1144" d="M12 582q0 -115 22.5 -224.5t72 -195.5t127 -138.5t186.5 -52.5q113 0 215 48.5t186 132.5t146.5 196.5t97.5 241.5q31 113 48 239.5t17 237.5q0 98 -22.5 189.5t-66.5 161t-111.5 111.5t-157.5 44h-22q-109 0 -210.5 -42t-187.5 -115t-152.5 -170t-105.5 -208 q-82 -236 -82 -456zM197 1638q0 -59 31.5 -98t78.5 -39q33 0 72 22.5t74.5 59.5t63.5 85t36 97l-2 -2l6 19q2 18 2 37v36v11q0 25 -1 51.5t-9 48t-23.5 35.5t-46.5 14t-53 -14h2q-45 -18 -87 -57t-73.5 -89.5t-51 -106.5t-19.5 -110zM279 588q0 45 4 126t25.5 165 t63.5 156.5t120 101.5q35 10 61 10q59 0 103.5 -39t50.5 -111q2 -25 3 -48t1 -48q0 -98 -14.5 -204.5t-65.5 -190.5q-41 -66 -90 -91.5t-82 -29.5h-51q-57 12 -93 71.5t-36 131.5zM582 1761q0 -59 33.5 -103t86.5 -44q45 0 98.5 30.5t103.5 79t89.5 107t55.5 115.5l4 57 q0 10 1 18.5t1 18.5q0 33 -4 65.5t-16.5 59t-36 43t-60.5 16.5t-68 -18h2q-61 -25 -113 -75t-92 -113.5t-62.5 -131t-22.5 -125.5z" />
<glyph unicode="&#xf7;" horiz-adv-x="980" d="M41 817l6 -37v2q16 -39 48 -59.5t71 -20.5q35 0 70.5 10.5t66.5 26.5l21 2q43 8 103 11.5t127 8.5t132.5 14t119.5 30.5t90 60t44 99.5v8q0 27 -7 55.5t-20.5 51t-35 36.5t-50.5 14l-22 -6q-199 -72 -375 -116.5t-336 -71.5q-27 -18 -38 -53t-15 -66zM217 236 q0 -41 12.5 -80t35 -70t52 -49.5t66.5 -18.5h10q25 0 45.5 9.5t42.5 21.5h-2q53 35 98.5 93t49.5 134v60q0 45 -6.5 94t-21.5 88t-43 64.5t-73 25.5q-57 0 -105 -30.5t-84 -78.5t-55.5 -107.5t-19.5 -117.5v-12q0 -6 -1 -13t-1 -13zM252 1313q0 -70 35 -121t94 -51 q35 0 76 18.5t73 52.5h-2q53 51 97.5 122t46.5 147l4 14q-2 41 -6 89t-16.5 90t-36 70t-62.5 28q-63 0 -117.5 -43t-95.5 -108t-64.5 -137.5t-23.5 -129.5v-8q-2 -8 -2 -17v-16z" />
<glyph unicode="&#xf8;" horiz-adv-x="1144" d="M12 582q0 -94 14.5 -183.5t45.5 -167.5q-20 -43 -23 -84q0 -29 9.5 -61.5t25.5 -62t39.5 -51t52.5 -25.5q59 14 100 53q33 -12 68 -20.5t76 -8.5q174 0 307 98.5t223 256t135 352t45 389.5q0 123 -33.5 230.5t-103.5 179.5q-2 6 -2 12q0 8 -2 14h4q-12 27 -26.5 58.5 t-35 58.5t-45 44t-55.5 17q-53 0 -91 -34.5t-66 -79.5q-164 -27 -287 -124t-207 -236.5t-126 -303.5t-42 -321zM279 635q0 55 8 131t30.5 149.5t64.5 134t112 87.5h2q-51 -131 -104.5 -256t-112.5 -246zM481 389q35 102 102.5 219t127.5 250q-4 -92 -20.5 -182t-59.5 -170 q-39 -53 -77 -81t-73 -36z" />
<glyph unicode="&#xf9;" horiz-adv-x="1079" d="M14 487q0 -90 23.5 -181t68 -163.5t111 -120t152.5 -51.5h4q43 0 83 11.5t85 27.5v-2q16 4 30.5 10.5t30.5 10.5q98 29 174 99.5t127 165.5t79 205.5t32 219.5q4 100 4 201q0 100 2 200.5t9 200.5t26 201l4 4l6 51q0 55 -34 71.5t-73 24.5l-18 6q-8 2 -16 2h-19 q-37 0 -79 -17t-76.5 -46t-60 -70t-30.5 -86v2l-2 -10q6 -92 7 -192q0 -324 -56 -646q-6 -43 -20.5 -89t-36 -83.5t-52 -62.5t-71.5 -27l-39 8h2q-55 33 -72.5 100.5t-17.5 141.5t10.5 149.5t20.5 153.5v-2q12 78 21 157t9 159q0 35 -5 69.5t-17 61t-31.5 43t-48.5 16.5 q-39 0 -77 -28.5t-66.5 -72.5t-47 -94.5t-18.5 -93.5q0 -23 2 -42t6 -40v2q2 -10 3 -22t4 -25l-5 -16q-8 -123 -27.5 -246t-19.5 -246zM76 1794q0 -43 28.5 -70.5t68.5 -47t82 -34t71 -32.5q10 -10 21 -17.5t20 -17.5l10 -8q16 -12 36.5 -16.5t43.5 -4.5q39 0 85 12.5t85 33 t64.5 47t25.5 53.5q0 25 -13.5 49t-33 47.5t-42 42t-38.5 29.5h2q-47 31 -116.5 63.5t-125.5 46.5l4 -2q-12 6 -28.5 9t-32.5 3q-47 0 -95 -21.5t-77 -66.5q-23 -16 -34 -45.5t-11 -52.5z" />
<glyph unicode="&#xfa;" horiz-adv-x="1079" d="M14 487q0 -90 23.5 -181t68 -163.5t111 -120t152.5 -51.5h4q43 0 83 11.5t85 27.5v-2q16 4 30.5 10.5t30.5 10.5q98 29 174 99.5t127 165.5t79 205.5t32 219.5q4 100 4 201q0 100 2 200.5t9 200.5t26 201l4 4l6 51q0 55 -34 71.5t-73 24.5l-18 6q-8 2 -16 2h-19 q-37 0 -79 -17t-76.5 -46t-60 -70t-30.5 -86v2l-2 -10q6 -92 7 -192q0 -324 -56 -646q-6 -43 -20.5 -89t-36 -83.5t-52 -62.5t-71.5 -27l-39 8h2q-55 33 -72.5 100.5t-17.5 141.5t10.5 149.5t20.5 153.5v-2q12 78 21 157t9 159q0 35 -5 69.5t-17 61t-31.5 43t-48.5 16.5 q-39 0 -77 -28.5t-66.5 -72.5t-47 -94.5t-18.5 -93.5q0 -23 2 -42t6 -40v2q2 -10 3 -22t4 -25l-5 -16q-8 -123 -27.5 -246t-19.5 -246zM279 1704q0 -70 38.5 -95.5t90.5 -25.5q72 0 141 37t137 94v2q37 37 79 76t79 82t64.5 92t37.5 109q0 72 -38 116.5t-97 44.5 q-61 0 -96 -28.5t-59.5 -68.5t-47 -84t-57.5 -75q-20 -18 -50 -33.5t-59 -31.5h2q-31 -16 -61.5 -32.5t-53 -39t-36.5 -54.5t-14 -77v-8z" />
<glyph unicode="&#xfb;" horiz-adv-x="1079" d="M14 487q0 -90 23.5 -181t68 -163.5t111 -120t152.5 -51.5h4q43 0 83 11.5t85 27.5v-2q16 4 30.5 10.5t30.5 10.5q98 29 174 99.5t127 165.5t79 205.5t32 219.5q4 100 4 201q0 100 2 200.5t9 200.5t26 201l4 4l6 51q0 55 -34 71.5t-73 24.5l-18 6q-8 2 -16 2h-19 q-37 0 -79 -17t-76.5 -46t-60 -70t-30.5 -86v2l-2 -10q6 -92 7 -192q0 -324 -56 -646q-6 -43 -20.5 -89t-36 -83.5t-52 -62.5t-71.5 -27l-39 8h2q-55 33 -72.5 100.5t-17.5 141.5t10.5 149.5t20.5 153.5v-2q12 78 21 157t9 159q0 35 -5 69.5t-17 61t-31.5 43t-48.5 16.5 q-39 0 -77 -28.5t-66.5 -72.5t-47 -94.5t-18.5 -93.5q0 -23 2 -42t6 -40v2q2 -10 3 -22t4 -25l-5 -16q-8 -123 -27.5 -246t-19.5 -246zM109 1638q2 -53 31.5 -94t76.5 -41q39 0 64.5 17.5t48 47t48 69.5t66.5 85h-4q23 29 47.5 65t53.5 60q27 -27 53.5 -54.5t57 -51 t67.5 -37.5t82 -14q29 0 59 6l-4 -2q88 31 135 108.5t47 159.5q0 37 -6 66v4q-25 57 -66.5 85.5t-88 47t-88 40t-62.5 66.5q-35 49 -96 49q-63 0 -107.5 -35.5t-79 -87t-65.5 -107.5t-68 -95q-35 -43 -65.5 -93.5t-67.5 -105.5q-23 -35 -43 -68.5t-26 -74.5v-15z" />
<glyph unicode="&#xfc;" horiz-adv-x="1079" d="M14 487q0 -90 23.5 -181t68 -163.5t111 -120t152.5 -51.5h4q43 0 83 11.5t85 27.5v-2q16 4 30.5 10.5t30.5 10.5q98 29 174 99.5t127 165.5t79 205.5t32 219.5q4 100 4 201q0 100 2 200.5t9 200.5t26 201l4 4l6 51q0 55 -34 71.5t-73 24.5l-18 6q-8 2 -16 2h-19 q-37 0 -79 -17t-76.5 -46t-60 -70t-30.5 -86v2l-2 -10q6 -92 7 -192q0 -324 -56 -646q-6 -43 -20.5 -89t-36 -83.5t-52 -62.5t-71.5 -27l-39 8h2q-55 33 -72.5 100.5t-17.5 141.5t10.5 149.5t20.5 153.5v-2q12 78 21 157t9 159q0 35 -5 69.5t-17 61t-31.5 43t-48.5 16.5 q-39 0 -77 -28.5t-66.5 -72.5t-47 -94.5t-18.5 -93.5q0 -23 2 -42t6 -40v2q2 -10 3 -22t4 -25l-5 -16q-8 -123 -27.5 -246t-19.5 -246zM86 1622q0 -59 30.5 -98t80.5 -39q33 0 71.5 22.5t74.5 59.5t62.5 85t36.5 97l2 12q4 18 5 37v41v12q0 25 -2.5 51.5t-9.5 48t-23.5 35 t-44.5 13.5q-49 0 -100.5 -37t-91.5 -93.5t-65.5 -123t-25.5 -123.5zM469 1745q0 -59 34 -103.5t89 -44.5q43 0 97 31t103.5 79t89.5 106.5t56 115.5l4 94q0 33 -4 66t-16.5 59.5t-35 43t-61.5 16.5q-35 0 -65 -19h2q-61 -25 -114.5 -76t-93.5 -113.5t-62.5 -130 t-22.5 -124.5z" />
<glyph unicode="&#xfd;" horiz-adv-x="1069" d="M14 1135q0 -41 13.5 -73t31.5 -58q29 -39 61 -85.5t57.5 -98.5t43 -110.5t17.5 -121.5q0 -88 -13.5 -176t-13.5 -179q0 -41 7 -79.5t23.5 -69.5t44 -49.5t68.5 -18.5h19q47 0 84 29t62.5 72t38.5 95t13 99q0 82 -11 158t-11 154v6q20 127 91 239.5t157 227.5l67 92 q33 45 66 93t59.5 99.5t44 104.5t21.5 106v8q0 47 -21.5 88.5t-79.5 59.5v-2q-10 2 -20.5 3t-20.5 1q-66 0 -119 -43t-96 -105.5t-74.5 -132t-52.5 -122.5q-29 -78 -63.5 -145.5t-93.5 -115.5q-12 2 -23.5 26t-25 57.5t-30 73.5t-40 74t-53 56.5t-68.5 22.5h-8 q-25 -12 -51.5 -40t-48 -61.5t-36 -70.5t-16.5 -70v-18zM219 1714q0 -70 39 -95.5t90 -25.5q72 0 142.5 37t136.5 94v2q37 37 77.5 75t76.5 81t64.5 93t41.5 110q0 72 -38 117t-97 45q-61 0 -96 -29t-60 -69t-47.5 -84t-56.5 -74q-20 -18 -50 -33.5t-59 -32.5h2 q-31 -16 -61.5 -32.5t-53 -39t-37 -54.5t-14.5 -77v-8z" />
<glyph unicode="&#xfe;" horiz-adv-x="1284" d="M14 217q2 -35 13.5 -70.5t40.5 -76.5h-2q4 -6 14 -17.5t20 -21.5v16q12 -4 21 -4h12q31 0 62.5 10t72.5 10q37 -4 75 -11t83 -7h16q43 2 84 20.5t75 49t57.5 71.5t29.5 93v14q0 27 -8 45t-21 33q74 14 151 49t148.5 89t135 128t110.5 166q29 59 46.5 119.5t19.5 119.5v15 q0 80 -26.5 140t-70 103t-97.5 72t-109 45q-6 0 -9 2h3q-29 6 -60 6q-45 0 -90 -13t-90 -30q4 10 6 22.5t2 29.5v22q-4 29 -12 58.5t-22.5 53t-36 39t-52.5 15.5q-35 0 -67.5 -9t-65.5 -22.5t-64.5 -27t-64.5 -19.5q-41 -10 -83 -39.5t-76.5 -71.5t-58.5 -92.5t-28 -99.5 q0 -33 11.5 -53.5t30 -32.5t40 -19.5t39.5 -11.5q6 -47 6 -98q0 -104 -12 -208.5t-16 -209.5q0 -39 3 -79t3 -78q-4 -33 -28.5 -50.5t-51.5 -33.5h2q-20 -10 -41 -21.5t-36 -28t-24.5 -40t-9.5 -56.5v-4zM557 776q0 51 14.5 104.5t65.5 82.5l10 2q27 4 58 14v-2 q20 6 39.5 11t33.5 5q20 0 34.5 -11t14.5 -34v-6q0 -2 -1 -3t-1 -5v-4q0 -27 -8 -54.5t-23.5 -52t-35.5 -41t-45 -18.5h-8q-31 -12 -69 -26.5t-65 -14.5q-10 0 -12 18.5t-2 34.5z" />
<glyph unicode="&#xff;" horiz-adv-x="1069" d="M14 1135q0 -41 13.5 -73t31.5 -58q29 -39 61 -85.5t57.5 -98.5t43 -110.5t17.5 -121.5q0 -88 -13.5 -176t-13.5 -179q0 -41 7 -79.5t23.5 -69.5t44 -49.5t68.5 -18.5h19q47 0 84 29t62.5 72t38.5 95t13 99q0 82 -11 158t-11 154v6q20 127 91 239.5t157 227.5l67 92 q33 45 66 93t59.5 99.5t44 104.5t21.5 106v8q0 47 -21.5 88.5t-79.5 59.5v-2q-10 2 -20.5 3t-20.5 1q-66 0 -119 -43t-96 -105.5t-74.5 -132t-52.5 -122.5q-29 -78 -63.5 -145.5t-93.5 -115.5q-12 2 -23.5 26t-25 57.5t-30 73.5t-40 74t-53 56.5t-68.5 22.5h-8 q-25 -12 -51.5 -40t-48 -61.5t-36 -70.5t-16.5 -70v-18zM59 1663q0 -59 32 -97t79 -38q33 0 72 22.5t74.5 59.5t62.5 84t37 96v2l2 14v-2q4 18 4 37v41v10q0 25 -1 51.5t-9.5 48t-23.5 36t-46 14.5q-51 0 -101.5 -38t-90 -94.5t-65.5 -123t-26 -123.5zM442 1786 q0 -59 34 -102.5t89 -43.5q45 0 98.5 31t103.5 79t89 106.5t55 115.5l4 56q0 10 1.5 18t1.5 18q0 33 -4.5 67t-16.5 59.5t-35.5 42t-62.5 16.5q-16 0 -32.5 -3t-33.5 -14h2q-61 -25 -114.5 -76t-93.5 -113.5t-62.5 -130t-22.5 -126.5z" />
<glyph unicode="&#x152;" horiz-adv-x="2236" d="M41 700q0 -139 26.5 -271t85 -235.5t150.5 -166t221 -62.5q135 0 247 49t212 146q8 -41 30.5 -73t57.5 -36h2q8 0 15.5 1t15.5 1q47 0 96 -9t99.5 -21.5t103.5 -21.5t108 -9q53 2 106.5 8t108.5 8h138q82 0 159.5 49.5t116.5 135.5q16 37 27.5 76.5t11.5 80.5 q0 59 -46 98t-105 39q-35 0 -69 -8t-66.5 -19t-66.5 -19.5t-69 -8.5q-33 0 -63.5 4t-61.5 4q-18 0 -65 -9t-99.5 -20.5t-98.5 -20.5t-64 -9q-31 0 -56.5 16.5t-38.5 46.5l2 -2q-4 8 -5 17.5t-1 19.5v21q4 47 20.5 99t59.5 75l2 2q31 6 79 19.5t96 27.5t90 25.5t65 11.5 q16 0 34.5 -1t35.5 -1q51 0 102 28.5t91 74.5t64.5 104.5t24.5 117.5q0 72 -47 110t-108 38q-27 0 -68 -11.5t-91 -27.5t-103.5 -35.5t-102.5 -36t-89 -28t-65 -11.5q-4 10 -4 33q0 29 6.5 58.5t6.5 60.5v12q23 74 66.5 111t96.5 53q43 14 101.5 29.5t120 31t123 32 t110.5 32.5q55 10 121.5 43t124 84t96.5 116.5t39 139.5v20q0 53 -25.5 92t-74.5 39h-4q-129 -18 -248 -60t-232.5 -94t-220 -104.5t-211.5 -91.5q-53 88 -133 140.5t-190 56.5h-27q-131 0 -254 -51.5t-228.5 -140.5t-186.5 -206.5t-128 -250.5q-49 -141 -74.5 -284.5 t-25.5 -281.5zM322 709q0 39 2 100t11 132t26.5 144.5t49 139t80 117t115.5 77.5q41 14 84 15q84 0 146.5 -55.5t72.5 -155.5q2 -31 3 -62t1 -61q0 -145 -27.5 -291.5t-109.5 -269.5v4q-37 -57 -93 -83t-110 -30h-69q-41 8 -74 35t-57.5 64.5t-37.5 83.5t-13 96z" />
<glyph unicode="&#x153;" horiz-adv-x="1789" d="M12 582q0 -115 22.5 -224.5t72 -195.5t127 -138.5t186.5 -52.5q102 0 190 36t166 104q10 -29 30.5 -47.5t47.5 -22.5h16q4 0 6.5 1t6.5 1q37 0 74.5 -8t78.5 -17.5t83 -16.5t89 -7q23 0 44.5 2t43.5 4l195 6q70 0 137.5 42t102.5 118q33 66 32 135q0 57 -44 93t-97 36 q-61 0 -114.5 -21.5t-102.5 -21.5q-25 0 -48.5 3t-49.5 3q-16 0 -54.5 -7t-80.5 -16.5t-77.5 -16.5t-50.5 -7q-41 0 -57 37l2 2q-4 6 -4 18v17q4 35 14.5 69.5t38.5 51.5q29 6 67 18t76 22.5t68.5 18.5t44.5 8q6 0 12.5 -1t14.5 -1h29q45 0 90 24.5t79.5 64.5t56 90.5 t21.5 101.5q0 70 -44 104.5t-101 34.5q-29 0 -82 -16.5t-111.5 -38t-115 -40t-88.5 -24.5v4q0 16 5 51t5 46v2q12 47 40 73.5t66.5 43t86 25.5t96.5 22q45 10 94 24t96 31l-2 -2q47 8 103.5 36.5t104.5 71.5t81 98.5t33 120.5v17q0 49 -27 87t-74 38h-6q-100 -14 -194.5 -47 t-183.5 -74t-174 -83t-167 -73q-45 70 -110.5 110t-155.5 44h-22q-109 0 -210.5 -42t-187.5 -115t-152.5 -170t-105.5 -208q-82 -236 -82 -456zM279 588q0 45 4 126t25.5 165t64.5 156.5t121 101.5h-2q35 10 61 10q59 0 103.5 -39t50.5 -111q2 -25 3 -48t1 -48 q0 -98 -14.5 -204.5t-65.5 -190.5q-41 -66 -91.5 -91.5t-82.5 -29.5h-49q-57 12 -93 71.5t-36 131.5z" />
<glyph unicode="&#x178;" horiz-adv-x="1335" d="M43 1393q0 -47 14.5 -83t36.5 -65q37 -51 77 -109.5t74 -126t55.5 -142t21.5 -158.5q0 -113 -16.5 -221.5t-16.5 -221.5q0 -47 8 -91t25.5 -78t47 -55.5t72.5 -21.5h23q55 0 96 33t69.5 83t43 111.5t14.5 117.5q0 98 -14.5 194t-14.5 195v12q16 96 57.5 186t96.5 176 t118.5 172t127.5 175q39 55 80 114.5t73.5 122t55 126t24.5 126.5v10q0 51 -16 92t-57 56v-2q-31 14 -76 14q-49 0 -89 -19.5t-73 -50t-60.5 -69.5t-52.5 -78h2q-53 -78 -87.5 -163t-67.5 -168t-75 -155.5t-112 -123.5h-8q-23 0 -40 28.5t-35.5 71.5t-39 92t-47 92t-60.5 72 t-81 29h-2q-29 -14 -57.5 -45t-53 -70t-42 -82t-19.5 -80v-22zM100 2054q0 -63 32 -104t81 -41q37 0 81 26.5t85 69.5t73 98.5t42 114.5l4 16q4 23 4 45v48v22q0 27 -2 53.5t-9.5 48t-21.5 36t-41 14.5q-59 0 -117.5 -45.5t-105.5 -113t-76 -145t-29 -143.5zM580 2208 q0 -66 34.5 -112t92.5 -46q51 0 114.5 37t121.5 94t105.5 127.5t65.5 138.5l4 19q0 23 1 45t1 45q0 37 -4 73.5t-17.5 65.5t-37 47.5t-62.5 18.5q-37 0 -69 -19q-74 -31 -137.5 -91t-111.5 -135t-74.5 -157t-26.5 -151z" />
<glyph unicode="&#x2c6;" horiz-adv-x="1193" d="M41 1221q2 -59 31.5 -102.5t77.5 -43.5q39 0 68.5 22.5t56 56.5t51 73t53.5 71h-2q23 27 43 55.5t41.5 58.5t45 56.5t52.5 47.5q33 -33 66.5 -69t71.5 -66.5t83 -51t101 -20.5q35 0 67 8l13 2q45 16 80.5 48t60 74t37 89t12.5 94q0 45 -8 78v4q-18 43 -48 71.5t-65 48 t-73.5 34t-74.5 32t-66 42t-48 61.5q-37 51 -100 51q-72 0 -124 -44t-96.5 -107.5t-82 -131t-76.5 -112.5q-35 -45 -65.5 -89t-57.5 -92h2q-16 -31 -36.5 -58.5t-39 -56t-32 -58t-19.5 -64.5v-12z" />
<glyph unicode="&#x2dc;" horiz-adv-x="1273" d="M43 1118q0 -45 25.5 -69.5t60.5 -24.5q37 0 62.5 26.5t48 57.5t49 57.5t65.5 26.5q18 0 35 -8t33 -18.5t32.5 -19.5t37 -11t40 -3.5t39.5 -1.5q76 0 154 34t152.5 91.5t143.5 132t128 158.5q23 35 48.5 72t33.5 78v6q0 66 -44 101.5t-104 35.5q-43 0 -71.5 -17.5t-50 -44 t-38 -58t-34.5 -62.5q-25 -27 -54.5 -55.5t-60.5 -52t-62.5 -39t-60.5 -15.5q-31 0 -55.5 15.5t-50.5 25.5q-29 4 -54.5 10t-54.5 6q-51 0 -101 -29.5t-96 -74.5t-87 -97.5t-76 -97.5q-12 -29 -18.5 -59.5t-14.5 -60.5v-15z" />
<glyph unicode="&#x2000;" horiz-adv-x="1424" />
<glyph unicode="&#x2001;" horiz-adv-x="2849" />
<glyph unicode="&#x2002;" horiz-adv-x="1424" />
<glyph unicode="&#x2003;" horiz-adv-x="2849" />
<glyph unicode="&#x2004;" horiz-adv-x="949" />
<glyph unicode="&#x2005;" horiz-adv-x="712" />
<glyph unicode="&#x2006;" horiz-adv-x="474" />
<glyph unicode="&#x2007;" horiz-adv-x="474" />
<glyph unicode="&#x2008;" horiz-adv-x="356" />
<glyph unicode="&#x2009;" horiz-adv-x="569" />
<glyph unicode="&#x200a;" horiz-adv-x="158" />
<glyph unicode="&#x2010;" horiz-adv-x="808" d="M41 700q0 -37 17.5 -62.5t44 -41.5t57 -23.5t55.5 -7.5q43 0 91 16.5t79 16.5q33 0 65.5 -4t67.5 -4q98 0 165 70t79 174q2 10 3 20t1 20q0 66 -41 112t-100 46q-14 0 -23 -2l-27 -12l3 4q-102 -37 -194.5 -61.5t-197.5 -42.5l-4 -3q-25 -12 -50.5 -34.5t-45.5 -52 t-32.5 -62.5t-12.5 -66z" />
<glyph unicode="&#x2011;" horiz-adv-x="808" d="M41 700q0 -37 17.5 -62.5t44 -41.5t57 -23.5t55.5 -7.5q43 0 91 16.5t79 16.5q33 0 65.5 -4t67.5 -4q98 0 165 70t79 174q2 10 3 20t1 20q0 66 -41 112t-100 46q-14 0 -23 -2l-27 -12l3 4q-102 -37 -194.5 -61.5t-197.5 -42.5l-4 -3q-25 -12 -50.5 -34.5t-45.5 -52 t-32.5 -62.5t-12.5 -66z" />
<glyph unicode="&#x2012;" horiz-adv-x="808" d="M41 700q0 -37 17.5 -62.5t44 -41.5t57 -23.5t55.5 -7.5q43 0 91 16.5t79 16.5q33 0 65.5 -4t67.5 -4q98 0 165 70t79 174q2 10 3 20t1 20q0 66 -41 112t-100 46q-14 0 -23 -2l-27 -12l3 4q-102 -37 -194.5 -61.5t-197.5 -42.5l-4 -3q-25 -12 -50.5 -34.5t-45.5 -52 t-32.5 -62.5t-12.5 -66z" />
<glyph unicode="&#x2013;" horiz-adv-x="1120" d="M43 672q0 -35 14.5 -58.5t37 -39t50 -22.5t54.5 -7q35 0 72.5 10t74.5 18q80 12 165 11.5t177 15.5q51 8 108.5 23.5t112 44t97.5 72.5t63 112v4q10 31 10 55q0 63 -43 107.5t-102 44.5q-8 0 -15.5 -1t-17.5 -3l-27 -10l5 4q-123 -45 -238 -71t-221 -54 q-59 -12 -115.5 -26.5t-109.5 -20.5l-5 -2q-25 -10 -51 -32t-47.5 -49.5t-35 -60t-13.5 -65.5z" />
<glyph unicode="&#x2014;" horiz-adv-x="1433" d="M43 647q0 -33 13.5 -56.5t35 -37.5t47 -20.5t49.5 -6.5q39 0 73 14.5t75 20.5q111 10 230.5 14.5t246.5 26.5q68 12 146.5 27.5t154.5 46.5t144.5 82t115.5 135l2 2q16 37 17 68q0 61 -45 104t-105 43q-33 0 -65 -16l2 4q-188 -59 -357.5 -98t-322.5 -78 q-78 -18 -152 -36t-145 -28l-6 -4q-25 -10 -51.5 -31.5t-49 -50.5t-38 -61.5t-15.5 -63.5z" />
<glyph unicode="&#x2018;" horiz-adv-x="473" d="M43 1446q0 -59 16.5 -108.5t37 -96.5t37 -97t16.5 -112v-8q-2 -10 -3 -20q0 -8 -2 -19q18 -23 46 -38t59 -15q18 0 43.5 8t50.5 22.5t42 31t22 32.5l4 6q8 39 14 77t6 79q0 68 -14.5 129t-33.5 119.5t-38.5 116t-32.5 118.5q-20 25 -44.5 42.5t-57.5 17.5 q-39 0 -67.5 -33t-49 -77t-33 -91t-18.5 -76v-8z" />
<glyph unicode="&#x2019;" horiz-adv-x="538" d="M43 1059q0 -72 41 -121t100 -51h2q4 2 8.5 4t8.5 2l4 6q68 68 107.5 152t68.5 175t53.5 186t59.5 187v17q0 10 -2 14q-4 25 -6.5 51.5t-8.5 49t-21.5 37t-45.5 14.5q-49 0 -90 -31t-73 -77t-53.5 -99t-29.5 -96q-20 -100 -41 -198.5t-74 -188.5q-2 -6 -4 -13.5t-4 -15.5 v-4z" />
<glyph unicode="&#x201a;" horiz-adv-x="538" d="M43 -264v-4q0 -72 41 -121t100 -51h2q4 2 8.5 4t8.5 2l4 6q68 68 107.5 151.5t68.5 177t53.5 191.5t59.5 197q0 10 -2 14q-4 25 -6.5 51.5t-8.5 49t-21.5 37t-45.5 14.5q-49 0 -90 -31t-73 -77t-53.5 -99t-29.5 -96q-20 -100 -41 -198.5t-74 -189.5q-2 -6 -4 -13t-4 -15z " />
<glyph unicode="&#x201c;" horiz-adv-x="915" d="M43 1290q0 -33 12.5 -57.5t28.5 -40.5l-2 -2q68 -92 86 -229l-2 2q0 -29 6 -60t18.5 -55.5t32 -39.5t43.5 -15q41 0 73.5 25.5t61.5 64.5q29 43 40.5 92t11.5 100q0 72 -16.5 134.5t-33.5 123.5l3 -2q-6 18 -9.5 36.5t-9.5 37.5v-2q-4 31 -12 63.5t-22.5 60t-34 45 t-46.5 17.5q-25 0 -50 -14t-50 -38t-45.5 -52.5t-34.5 -59.5v2q-16 -33 -29.5 -65.5t-19.5 -65.5v-6zM410 1473q0 -53 14 -98.5t37 -86.5l-2 2q31 -66 53.5 -137.5t26.5 -153.5q2 -49 32.5 -78.5t75.5 -29.5t84 30.5t62 73.5q45 76 62 155t17 163q0 125 -35.5 230.5 t-86.5 197.5v-2q-12 31 -36 53.5t-59 22.5q-39 0 -74.5 -29t-62.5 -64l2 2q-41 -53 -72.5 -113.5t-37.5 -121.5v-16z" />
<glyph unicode="&#x201d;" horiz-adv-x="999" d="M43 940q0 -49 26.5 -80t65.5 -31q10 0 23.5 3.5t23.5 9.5h-2q55 35 91 90t63.5 121.5t49.5 136.5t50 135q23 53 42.5 109.5t29.5 111.5l2 27q0 53 -29.5 81.5t-70.5 28.5q-33 0 -73 -20.5t-75 -54t-60.5 -77.5t-29.5 -93q-12 -78 -12 -160q-23 -72 -52.5 -141.5 t-52.5 -141.5h2q-8 -10 -8 -24q0 -12 -4 -27v-4zM369 973q0 -47 24.5 -85t67.5 -38q29 0 61 22q86 61 152.5 149.5t118 191t88 214t63.5 222.5q2 16 6 31.5t4 31.5v6q2 10 2 27q0 43 -25.5 67.5t-62.5 24.5q-27 0 -53 -12l-12 -4q-47 -16 -89 -47t-76 -71t-58.5 -88 t-36.5 -97q-29 -121 -64 -234t-88 -219q-8 -20 -14 -38.5t-8 -39.5v-14z" />
<glyph unicode="&#x201e;" horiz-adv-x="927" d="M-29 -362v-5q0 -49 27 -79.5t65 -30.5q10 0 23.5 3t24.5 9h-2q55 35 91 90.5t63.5 122t49 136t49.5 134.5q23 53 42.5 110t29.5 112l2 26q0 53 -29.5 82t-70.5 29q-33 0 -73 -20.5t-74.5 -54.5t-60.5 -78t-30 -93q-12 -78 -12 -160q-23 -72 -52.5 -141.5t-51.5 -140.5h2 q-8 -10 -9 -23q0 -14 -4 -28zM297 -319v-15q0 -47 24.5 -85t67.5 -38q29 0 62 23q86 61 152.5 149t117.5 190.5t87.5 214t63.5 222.5q2 16 6.5 31.5t4.5 32.5v6q2 10 2 26q0 43 -25.5 67.5t-62.5 24.5q-27 0 -54 -12l-12 -4q-47 -16 -89 -47t-76 -71t-58.5 -88t-36.5 -97 q-29 -121 -63.5 -233.5t-88.5 -219.5q-8 -20 -14 -38.5t-8 -38.5z" />
<glyph unicode="&#x2022;" horiz-adv-x="606" d="M43 750q0 -43 13.5 -84t37 -74t55 -52.5t70.5 -19.5q55 0 111.5 32t104.5 82t83 114.5t45 130.5v61q0 53 -7 109.5t-24.5 101.5t-48 73.5t-80.5 28.5q-84 0 -150.5 -51t-113.5 -128t-71.5 -164t-24.5 -160z" />
<glyph unicode="&#x2026;" horiz-adv-x="2177" d="M43 166q0 -55 36 -83t89 -32q45 10 86 42t71.5 80t49 111.5t18.5 137.5q0 45 -20.5 73.5t-53.5 28.5h-6q-49 -16 -98 -44.5t-87 -73t-61.5 -103.5t-23.5 -137zM526 176q0 -47 33 -78.5t74 -31.5q59 0 111.5 18t111.5 41q57 63 122.5 140t100.5 179l2 27l-2 16 q-31 51 -81 74t-103 23q-78 0 -144.5 -50.5t-113.5 -111.5q-16 -29 -27.5 -57.5t-27.5 -57.5v2q4 12 10 23.5t10 21.5v2q-25 -39 -50.5 -91t-25.5 -89zM1401 221q0 -59 34.5 -108.5t98.5 -49.5q4 0 9 1.5t9 1.5h4q94 0 184.5 36.5t166 99t133 145.5t86.5 175q2 4 2 6 q0 5 4 9q2 6 2 20q0 39 -22.5 56.5t-54.5 26.5t-67.5 16.5t-62.5 25.5l-33 8q-61 -10 -120.5 -29.5t-111.5 -49t-96 -70.5t-71 -92l4 4q-35 -55 -66.5 -113.5t-31.5 -118.5z" />
<glyph unicode="&#x202f;" horiz-adv-x="569" />
<glyph unicode="&#x2039;" horiz-adv-x="614" d="M72 713q4 -47 44 -79t81 -61q35 -23 56 -58.5t46 -70t60.5 -61.5t99.5 -27q41 2 69.5 30t30.5 63q0 32 -16 65q-23 37 -54.5 66.5t-65.5 57.5t-64.5 55.5t-51.5 60.5q23 39 51.5 71.5t59.5 63.5l41.5 41.5t40 45t31 48.5t14.5 49q-4 8 -3 16.5t-3 14.5q-10 29 -30 59.5 t-60 30.5q-31 0 -55.5 -14.5t-44 -35t-35 -43t-25.5 -38.5q-35 -57 -63.5 -114.5t-65.5 -110.5q-20 -33 -50 -61.5t-38 -63.5z" />
<glyph unicode="&#x203a;" horiz-adv-x="614" d="M72 449q0 32 16 65q23 37 54.5 66.5t65.5 57.5t64.5 55.5t51.5 60.5q-23 39 -51.5 71.5t-59.5 63.5l-41.5 41.5t-40 45t-31 48.5t-14.5 49q4 8 3 16.5t3 14.5q10 29 29.5 59.5t60.5 30.5q31 0 55.5 -14.5t44 -35t35 -43t25.5 -38.5q35 -57 63.5 -114.5t65.5 -110.5 q20 -33 50 -61.5t38 -63.5q-4 -47 -44 -79t-81 -61q-35 -23 -57.5 -58.5t-47 -70t-59 -61.5t-98.5 -27q-41 2 -69.5 30t-30.5 63z" />
<glyph unicode="&#x205f;" horiz-adv-x="712" />
<glyph unicode="&#x20ac;" horiz-adv-x="1357" d="M41 745q0 -199 51 -370q27 -92 81 -165t126 -123t158 -76.5t176 -26.5q86 0 162.5 34.5t147.5 93t134.5 134.5t120.5 155q35 43 54.5 98.5t19.5 108.5q0 57 -19.5 107.5t-54.5 87.5t-81 58.5t-99 21.5h-10q-41 -12 -69 -39t-49.5 -61.5t-38.5 -71.5t-36 -70 q-18 -41 -45 -77t-60.5 -64.5t-71.5 -46t-75 -17.5h-2q-70 0 -109.5 42t-60.5 106q49 4 99.5 8t97.5 4q8 0 15 -1t15 -1h7q31 6 60.5 24.5t53 43t36.5 52t13 54.5q0 23 -14 45h2q-31 43 -84 63.5t-112 20.5t-106.5 -16.5t-106.5 -20.5q0 16 1 35.5t3 42.5q25 6 49 11t53 5 t56.5 -2t56.5 -2q113 0 174 52.5t61 132.5v20q0 57 -42 98t-109 41l-49 -6q-45 -14 -86 -26.5t-82 -22.5q14 31 36.5 62.5t50 56t59.5 40t69 15.5q53 0 88 -28.5t65.5 -64.5t63.5 -64.5t82 -28.5q61 0 120.5 32.5t108.5 86t81 120t38 133.5v17q0 70 -27.5 124t-58.5 101 q-18 39 -53 51.5t-75 14.5t-82 1t-73 15q-39 25 -96 25q-100 0 -199.5 -51.5t-187.5 -131t-161 -180t-120 -199.5q-74 -156 -107.5 -321.5t-33.5 -319.5z" />
<glyph unicode="&#x2122;" horiz-adv-x="1583" d="M41 1366q0 -31 11 -41t38 -10q23 0 41 8l-2 -2h4q10 0 21.5 4t21.5 4q6 0 8 -2q-8 -78 -12 -169t-22 -161v-8q0 -33 -4.5 -65.5t-4.5 -63.5q0 -33 9.5 -57.5t52.5 -24.5h14q59 14 85 79t35 152t10 181t11 166q18 37 47 60.5t60 33.5l59 23q41 23 73 70.5t42 101.5 q-2 16 -1 30.5t-3 28.5l-4 4q-20 23 -56 23q-37 0 -69.5 -18.5t-65.5 -41.5l2 2l-30 -20q-51 -12 -116 -31.5t-121 -53.5t-95 -83t-39 -119zM561 991q0 -47 14.5 -88t42.5 -67q25 4 53.5 16t52.5 32.5t40 48.5t18 62q10 41 8 81t19 81q4 -10 4 -31v-20q0 -8 -2 -19l-6 -40 q-8 -18 -8 -46q0 -41 20.5 -71.5t54.5 -30.5q63 0 107.5 40t77.5 96.5t58.5 120t53.5 112.5v-19q-4 -25 -13 -51.5t-19.5 -53t-18.5 -51t-8 -42.5q0 -31 21.5 -49.5t52.5 -18.5q63 0 108 29.5t76 77t50.5 106.5t29.5 117.5t14 111t6 86.5v11q-2 8 -2 16v18q0 51 11.5 103.5 t26 105t25.5 103.5t11 100q0 113 -106 113q-74 0 -126.5 -31t-88 -79t-59 -105.5t-39 -111.5t-26 -98t-22.5 -65q-29 -20 -43 -51t-24 -59l2 2l-7 -25q-4 37 -11 102.5t-18 131t-23.5 113.5t-26.5 48l-33 -12q-82 -16 -140.5 -48t-97.5 -114q-10 -113 -21.5 -223t-21.5 -221 q-16 -59 -31.5 -120.5t-15.5 -123.5z" />
<glyph unicode="&#x25fc;" horiz-adv-x="1587" d="M0 0v1587h1587v-1587h-1587z" />
</font>
</defs>
</svg>
